G75*
%MOIN*%
%OFA0B0*%
%FSLAX25Y25*%
%IPPOS*%
%LPD*%
%AMOC8*
5,1,8,0,0,1.08239X$1,22.5*
%
%ADD10R,0.06000X0.06000*%
%ADD11C,0.06000*%
%ADD12OC8,0.05400*%
%ADD13R,0.07800X0.02100*%
%ADD14C,0.07000*%
%ADD15OC8,0.04724*%
%ADD16R,0.10039X0.10039*%
%ADD17C,0.10039*%
%ADD18R,0.05906X0.05118*%
%ADD19C,0.10000*%
%ADD20OC8,0.10000*%
%ADD21R,0.06299X0.10630*%
%ADD22C,0.06000*%
%ADD23C,0.02362*%
%ADD24C,0.01600*%
%ADD25C,0.16535*%
%ADD26C,0.05600*%
%ADD27C,0.03543*%
D10*
X0051122Y0154851D03*
X0035201Y0183087D03*
X0043075Y0214780D03*
D11*
X0053075Y0214780D03*
X0063075Y0214780D03*
X0073075Y0214780D03*
X0083075Y0214780D03*
X0093075Y0214780D03*
X0103075Y0214780D03*
X0113075Y0214780D03*
X0123075Y0214780D03*
X0133075Y0214780D03*
X0143075Y0214780D03*
X0153075Y0214780D03*
X0163075Y0214780D03*
X0173075Y0214780D03*
X0183075Y0214780D03*
X0193075Y0214780D03*
X0203075Y0214780D03*
X0213075Y0214780D03*
X0223075Y0214780D03*
X0233075Y0214780D03*
X0233075Y0224780D03*
X0223075Y0224780D03*
X0213075Y0224780D03*
X0203075Y0224780D03*
X0193075Y0224780D03*
X0183075Y0224780D03*
X0173075Y0224780D03*
X0163075Y0224780D03*
X0153075Y0224780D03*
X0143075Y0224780D03*
X0133075Y0224780D03*
X0123075Y0224780D03*
X0113075Y0224780D03*
X0103075Y0224780D03*
X0093075Y0224780D03*
X0083075Y0224780D03*
X0073075Y0224780D03*
X0063075Y0224780D03*
X0053075Y0224780D03*
X0043075Y0224780D03*
X0045043Y0183087D03*
X0051122Y0145009D03*
X0051122Y0135166D03*
X0051122Y0125324D03*
D12*
X0226122Y0148087D03*
X0236122Y0148087D03*
X0236122Y0158087D03*
X0226122Y0158087D03*
X0226122Y0168087D03*
X0236122Y0168087D03*
X0236122Y0178087D03*
X0226122Y0178087D03*
X0226122Y0188087D03*
X0236122Y0188087D03*
X0285437Y0121670D03*
X0295437Y0121670D03*
X0295437Y0111670D03*
X0285437Y0111670D03*
X0285437Y0101670D03*
X0295437Y0101670D03*
X0295437Y0091670D03*
X0285437Y0091670D03*
X0285437Y0081670D03*
X0295437Y0081670D03*
D13*
X0109022Y0185287D03*
X0109022Y0190287D03*
X0109022Y0195287D03*
X0109022Y0200287D03*
X0089622Y0200287D03*
X0089622Y0195287D03*
X0089622Y0190287D03*
X0089622Y0185287D03*
D14*
X0204685Y0118087D02*
X0211685Y0118087D01*
X0211685Y0108087D02*
X0204685Y0108087D01*
X0204685Y0098087D02*
X0211685Y0098087D01*
X0211685Y0088087D02*
X0204685Y0088087D01*
X0204685Y0078087D02*
X0211685Y0078087D01*
X0211685Y0068087D02*
X0204685Y0068087D01*
X0204685Y0058087D02*
X0211685Y0058087D01*
X0211685Y0048087D02*
X0204685Y0048087D01*
D15*
X0065496Y0067072D03*
X0065654Y0076087D03*
X0065654Y0085103D03*
X0065654Y0103135D03*
X0050654Y0109119D03*
X0041638Y0109119D03*
X0032622Y0109119D03*
X0017622Y0103135D03*
X0017622Y0085103D03*
X0017622Y0076087D03*
X0017622Y0067072D03*
X0032622Y0061087D03*
X0041638Y0061087D03*
X0050654Y0061087D03*
D16*
X0105949Y0035300D03*
X0140949Y0035300D03*
D17*
X0125358Y0035300D03*
X0090358Y0035300D03*
D18*
X0026622Y0048847D03*
X0026622Y0056328D03*
X0055622Y0166847D03*
X0055622Y0174328D03*
X0119322Y0191841D03*
X0119322Y0198534D03*
D19*
X0161154Y0035087D03*
X0050122Y0034087D03*
D20*
X0070122Y0034087D03*
X0181154Y0035087D03*
D21*
X0050634Y0048338D03*
X0039610Y0048338D03*
X0031334Y0133087D03*
X0020310Y0133087D03*
D22*
X0020572Y0132987D01*
X0020572Y0120887D01*
X0032122Y0109337D01*
X0032622Y0109119D01*
X0041618Y0109139D02*
X0041618Y0115843D01*
X0031334Y0126128D01*
X0031334Y0133087D01*
X0050654Y0109119D02*
X0064453Y0122918D01*
X0064453Y0144977D01*
X0064453Y0152457D01*
X0065240Y0153245D01*
X0065240Y0164219D01*
X0065122Y0164337D01*
X0084922Y0184137D01*
X0087122Y0184137D01*
X0089872Y0185237D01*
X0089622Y0185287D01*
X0089872Y0185237D02*
X0094822Y0180287D01*
X0114622Y0180287D01*
X0119022Y0184687D01*
X0119022Y0191837D01*
X0119322Y0191841D01*
X0122322Y0191837D01*
X0140472Y0191837D01*
X0163022Y0214387D01*
X0163075Y0214780D01*
X0123075Y0214780D02*
X0122872Y0214387D01*
X0119572Y0211087D01*
X0119572Y0198987D01*
X0119322Y0198534D01*
X0127822Y0184137D02*
X0117372Y0173687D01*
X0092622Y0173687D01*
X0092072Y0174237D01*
X0087122Y0174237D01*
X0089622Y0200287D02*
X0089322Y0200637D01*
X0056872Y0200637D01*
X0043122Y0214387D01*
X0043075Y0214780D01*
X0072822Y0147843D02*
X0072822Y0084587D01*
X0080522Y0084587D01*
X0103072Y0062037D01*
X0148722Y0062037D01*
X0170172Y0083487D01*
X0170172Y0084587D01*
X0203172Y0117587D01*
X0208122Y0117587D01*
X0208185Y0118087D01*
X0208672Y0108237D02*
X0208185Y0108087D01*
X0208672Y0108237D02*
X0212522Y0108237D01*
X0225722Y0121437D01*
X0225722Y0147837D01*
X0226122Y0148087D01*
X0242772Y0145087D02*
X0242772Y0171487D01*
X0236172Y0178087D01*
X0236122Y0178087D01*
X0072822Y0084587D02*
X0065672Y0084587D01*
X0065654Y0085103D01*
X0041638Y0063068D02*
X0024689Y0080017D01*
X0019965Y0084741D01*
X0017984Y0084741D01*
X0017622Y0085103D01*
X0024689Y0080017D02*
X0024689Y0058363D01*
X0026622Y0056430D01*
X0026622Y0056328D01*
X0039610Y0048338D02*
X0039610Y0044599D01*
X0050122Y0034087D01*
X0059335Y0043796D02*
X0054793Y0048338D01*
X0050634Y0048338D01*
X0050673Y0048377D01*
X0050673Y0051276D01*
X0041638Y0060312D01*
X0041638Y0061087D01*
X0041638Y0063068D01*
X0041618Y0061107D02*
X0041638Y0061087D01*
X0041618Y0061107D02*
X0041618Y0109139D01*
X0041638Y0109119D01*
X0050654Y0109119D01*
D23*
X0072822Y0147843D03*
X0087122Y0174237D03*
X0095922Y0195137D03*
X0127822Y0184137D03*
X0242772Y0145087D03*
X0339022Y0039487D03*
D24*
X0052472Y0026837D02*
X0047522Y0026837D01*
X0026622Y0047737D01*
X0026622Y0048847D01*
X0052472Y0026837D02*
X0065122Y0039487D01*
X0065122Y0066987D01*
X0065496Y0067072D01*
X0051122Y0125324D02*
X0050822Y0125837D01*
X0045872Y0130787D01*
X0045872Y0158287D01*
X0054122Y0166537D01*
X0055222Y0166537D01*
X0055622Y0166847D01*
X0053572Y0167087D01*
X0050822Y0169837D01*
X0050822Y0177537D01*
X0068422Y0195137D01*
X0089322Y0195137D01*
X0089622Y0195287D01*
X0095922Y0195137D02*
X0105272Y0185787D01*
X0108572Y0185787D01*
X0109022Y0185287D01*
X0109022Y0190287D02*
X0109122Y0190737D01*
X0109122Y0195137D01*
X0109022Y0195287D01*
X0108572Y0195687D01*
X0101972Y0195687D01*
X0087672Y0209987D01*
X0081072Y0209987D01*
X0078322Y0212737D01*
X0078322Y0227037D01*
X0081072Y0229787D01*
X0087672Y0229787D01*
X0092622Y0224837D01*
X0093075Y0224780D01*
X0088222Y0219337D02*
X0083272Y0224287D01*
X0083075Y0224780D01*
X0088222Y0219337D02*
X0088222Y0212737D01*
X0100322Y0200637D01*
X0108572Y0200637D01*
X0109022Y0200287D01*
X0089622Y0190287D02*
X0089322Y0190187D01*
X0084372Y0190187D01*
X0068972Y0174787D01*
X0060516Y0174787D01*
X0060516Y0156001D01*
X0056972Y0152457D01*
X0056972Y0144190D01*
X0051372Y0138589D01*
X0051372Y0135187D01*
X0051122Y0135166D01*
X0055622Y0174328D02*
X0055772Y0174787D01*
X0060516Y0174787D01*
X0133075Y0224780D02*
X0138075Y0219780D01*
X0157760Y0219780D01*
X0162760Y0214780D01*
X0163075Y0214780D01*
X0163075Y0214859D01*
X0167996Y0219780D01*
X0178075Y0219780D01*
X0183075Y0224780D01*
X0193075Y0224780D02*
X0193272Y0224287D01*
X0197672Y0219887D01*
X0214722Y0219887D01*
X0218022Y0216587D01*
X0218022Y0212737D01*
X0235622Y0195137D01*
X0235622Y0188537D01*
X0236122Y0188087D01*
X0225722Y0181937D02*
X0203172Y0204487D01*
X0203172Y0214387D01*
X0203075Y0214780D01*
X0213075Y0214780D02*
X0213072Y0214387D01*
X0230672Y0196787D01*
X0230672Y0175887D01*
X0226272Y0171487D01*
X0226272Y0168187D01*
X0226122Y0168087D01*
X0226122Y0178087D02*
X0225722Y0178087D01*
X0225722Y0181937D01*
D25*
X0174728Y0161946D03*
X0080240Y0161946D03*
X0080240Y0067457D03*
X0174728Y0067457D03*
D26*
X0185983Y0055989D02*
X0185983Y0042703D01*
X0184799Y0043887D01*
X0181154Y0043887D01*
X0181154Y0035088D01*
X0181153Y0035088D01*
X0181153Y0043887D01*
X0177508Y0043887D01*
X0173201Y0039580D01*
X0173081Y0040028D01*
X0171396Y0042947D01*
X0169013Y0045330D01*
X0166094Y0047015D01*
X0162839Y0047887D01*
X0159468Y0047887D01*
X0156213Y0047015D01*
X0153294Y0045330D01*
X0152617Y0044652D01*
X0152581Y0044738D01*
X0150387Y0046932D01*
X0147520Y0048120D01*
X0134378Y0048120D01*
X0131511Y0046932D01*
X0131269Y0046690D01*
X0130306Y0047246D01*
X0127046Y0048120D01*
X0123671Y0048120D01*
X0120410Y0047246D01*
X0117487Y0045558D01*
X0117124Y0045195D01*
X0115387Y0046932D01*
X0112520Y0048120D01*
X0099378Y0048120D01*
X0096511Y0046932D01*
X0094317Y0044738D01*
X0093775Y0043431D01*
X0093199Y0043670D01*
X0092083Y0043969D01*
X0090936Y0044120D01*
X0090358Y0044120D01*
X0089780Y0044120D01*
X0088634Y0043969D01*
X0087517Y0043670D01*
X0086449Y0043227D01*
X0085448Y0042649D01*
X0084531Y0041945D01*
X0083713Y0041128D01*
X0083009Y0040210D01*
X0082431Y0039209D01*
X0081989Y0038141D01*
X0081689Y0037024D01*
X0081539Y0035878D01*
X0081539Y0035300D01*
X0081539Y0034722D01*
X0081689Y0033576D01*
X0081989Y0032459D01*
X0082431Y0031391D01*
X0083009Y0030390D01*
X0083713Y0029472D01*
X0084531Y0028655D01*
X0085448Y0027951D01*
X0086449Y0027373D01*
X0087517Y0026930D01*
X0088634Y0026631D01*
X0089780Y0026480D01*
X0090358Y0026480D01*
X0090358Y0035300D01*
X0090358Y0035300D01*
X0081539Y0035300D01*
X0090358Y0035300D01*
X0090358Y0044120D01*
X0090358Y0035300D01*
X0090358Y0035300D01*
X0090358Y0035300D01*
X0090358Y0026480D01*
X0090936Y0026480D01*
X0092083Y0026631D01*
X0093199Y0026930D01*
X0093775Y0027169D01*
X0094317Y0025862D01*
X0096511Y0023668D01*
X0099378Y0022480D01*
X0112520Y0022480D01*
X0115387Y0023668D01*
X0117124Y0025405D01*
X0117487Y0025042D01*
X0120410Y0023354D01*
X0123671Y0022480D01*
X0127046Y0022480D01*
X0130306Y0023354D01*
X0131269Y0023910D01*
X0131511Y0023668D01*
X0134378Y0022480D01*
X0147520Y0022480D01*
X0150387Y0023668D01*
X0152429Y0025710D01*
X0153294Y0024845D01*
X0156213Y0023160D01*
X0159468Y0022287D01*
X0162839Y0022287D01*
X0166094Y0023160D01*
X0169013Y0024845D01*
X0171396Y0027228D01*
X0173081Y0030147D01*
X0173201Y0030595D01*
X0177508Y0026287D01*
X0181153Y0026287D01*
X0181153Y0035087D01*
X0181154Y0035087D01*
X0181154Y0026287D01*
X0184799Y0026287D01*
X0185983Y0027472D01*
X0185983Y0021137D01*
X0058934Y0021137D01*
X0064781Y0026984D01*
X0066477Y0025287D01*
X0070122Y0025287D01*
X0070122Y0032325D01*
X0070122Y0032325D01*
X0070122Y0025287D01*
X0073767Y0025287D01*
X0078922Y0030442D01*
X0078922Y0034087D01*
X0071884Y0034087D01*
X0071884Y0034087D01*
X0078922Y0034087D01*
X0078922Y0037732D01*
X0073767Y0042887D01*
X0073722Y0042887D01*
X0073722Y0052667D01*
X0074038Y0052485D01*
X0078125Y0051390D01*
X0082356Y0051390D01*
X0086442Y0052485D01*
X0090106Y0054600D01*
X0092671Y0057165D01*
X0096441Y0053395D01*
X0098903Y0051973D01*
X0101650Y0051237D01*
X0150144Y0051237D01*
X0152891Y0051973D01*
X0155353Y0053395D01*
X0161021Y0059063D01*
X0161871Y0057592D01*
X0164863Y0054600D01*
X0168526Y0052485D01*
X0172613Y0051390D01*
X0176844Y0051390D01*
X0180930Y0052485D01*
X0184594Y0054600D01*
X0185983Y0055989D01*
X0185983Y0052277D02*
X0180155Y0052277D01*
X0185983Y0046678D02*
X0166677Y0046678D01*
X0169302Y0052277D02*
X0153416Y0052277D01*
X0155630Y0046678D02*
X0150641Y0046678D01*
X0159834Y0057875D02*
X0161707Y0057875D01*
X0172474Y0041080D02*
X0174701Y0041080D01*
X0181153Y0041080D02*
X0181154Y0041080D01*
X0181153Y0035481D02*
X0181154Y0035481D01*
X0181153Y0029883D02*
X0181154Y0029883D01*
X0173913Y0029883D02*
X0172929Y0029883D01*
X0168042Y0024284D02*
X0185983Y0024284D01*
X0205914Y0024284D02*
X0239159Y0024284D01*
X0238936Y0025114D02*
X0239843Y0021729D01*
X0240185Y0021137D01*
X0205914Y0021137D01*
X0205914Y0036787D01*
X0213173Y0036787D01*
X0216047Y0037557D01*
X0218623Y0039045D01*
X0220727Y0041149D01*
X0222215Y0043726D01*
X0222985Y0046600D01*
X0222985Y0049575D01*
X0222215Y0052449D01*
X0221846Y0053087D01*
X0222215Y0053726D01*
X0222985Y0056600D01*
X0222985Y0059575D01*
X0222215Y0062449D01*
X0221846Y0063087D01*
X0222215Y0063726D01*
X0222985Y0066600D01*
X0222985Y0069575D01*
X0222215Y0072449D01*
X0221846Y0073087D01*
X0222215Y0073726D01*
X0222985Y0076600D01*
X0222985Y0079575D01*
X0222215Y0082449D01*
X0221846Y0083087D01*
X0222215Y0083726D01*
X0222985Y0086600D01*
X0222985Y0089575D01*
X0222215Y0092449D01*
X0221846Y0093087D01*
X0222215Y0093726D01*
X0222985Y0096600D01*
X0222985Y0099575D01*
X0222215Y0102449D01*
X0220727Y0105026D01*
X0218887Y0106866D01*
X0218985Y0107609D01*
X0218985Y0108087D01*
X0216965Y0108087D01*
X0216964Y0108087D01*
X0216965Y0108087D01*
X0218985Y0108087D01*
X0218985Y0108566D01*
X0218887Y0109309D01*
X0220727Y0111149D01*
X0222215Y0113726D01*
X0222985Y0116600D01*
X0222985Y0119575D01*
X0222215Y0122449D01*
X0220727Y0125026D01*
X0218623Y0127130D01*
X0216047Y0128617D01*
X0213173Y0129387D01*
X0203197Y0129387D01*
X0200323Y0128617D01*
X0197747Y0127130D01*
X0197264Y0126647D01*
X0196541Y0126230D01*
X0182528Y0112217D01*
X0182528Y0118994D01*
X0181173Y0127552D01*
X0178496Y0135792D01*
X0174562Y0143512D01*
X0172843Y0145878D01*
X0176844Y0145878D01*
X0180930Y0146973D01*
X0184594Y0149088D01*
X0187586Y0152080D01*
X0189701Y0155744D01*
X0190796Y0159830D01*
X0190796Y0164061D01*
X0189701Y0168148D01*
X0187586Y0171811D01*
X0184594Y0174803D01*
X0180930Y0176918D01*
X0176844Y0178013D01*
X0172613Y0178013D01*
X0168526Y0176918D01*
X0164863Y0174803D01*
X0161871Y0171811D01*
X0159756Y0168148D01*
X0158661Y0164061D01*
X0158661Y0160049D01*
X0156334Y0161740D01*
X0148614Y0165674D01*
X0140374Y0168351D01*
X0131816Y0169706D01*
X0128664Y0169706D01*
X0136464Y0177506D01*
X0137886Y0179969D01*
X0138622Y0182716D01*
X0138622Y0185559D01*
X0137886Y0188306D01*
X0136464Y0190769D01*
X0134453Y0192780D01*
X0131991Y0194201D01*
X0130075Y0194715D01*
X0130075Y0196456D01*
X0130372Y0197566D01*
X0130372Y0197674D01*
X0130398Y0197780D01*
X0130372Y0199094D01*
X0130372Y0204324D01*
X0131653Y0203980D01*
X0134497Y0203980D01*
X0137243Y0204716D01*
X0138075Y0205196D01*
X0138906Y0204716D01*
X0141653Y0203980D01*
X0144497Y0203980D01*
X0147243Y0204716D01*
X0148075Y0205196D01*
X0148906Y0204716D01*
X0151653Y0203980D01*
X0154497Y0203980D01*
X0157243Y0204716D01*
X0159706Y0206138D01*
X0161682Y0208114D01*
X0161745Y0208097D01*
X0162629Y0207980D01*
X0163075Y0207980D01*
X0163520Y0207980D01*
X0164404Y0208097D01*
X0164468Y0208114D01*
X0166443Y0206138D01*
X0168906Y0204716D01*
X0171653Y0203980D01*
X0174497Y0203980D01*
X0177243Y0204716D01*
X0178075Y0205196D01*
X0178906Y0204716D01*
X0181653Y0203980D01*
X0184497Y0203980D01*
X0187243Y0204716D01*
X0188075Y0205196D01*
X0188906Y0204716D01*
X0191653Y0203980D01*
X0194497Y0203980D01*
X0194572Y0204001D01*
X0194572Y0202777D01*
X0195881Y0199616D01*
X0198301Y0197197D01*
X0215622Y0179875D01*
X0215622Y0173738D01*
X0216273Y0173087D01*
X0215622Y0172437D01*
X0215622Y0163738D01*
X0216273Y0163087D01*
X0215622Y0162437D01*
X0215622Y0153738D01*
X0219622Y0149738D01*
X0219622Y0148087D01*
X0219622Y0145395D01*
X0223430Y0141587D01*
X0226122Y0141587D01*
X0227773Y0141587D01*
X0231773Y0137587D01*
X0234999Y0137587D01*
X0236141Y0136445D01*
X0238603Y0135023D01*
X0241350Y0134287D01*
X0244194Y0134287D01*
X0246941Y0135023D01*
X0249403Y0136445D01*
X0251414Y0138456D01*
X0252836Y0140919D01*
X0253572Y0143666D01*
X0253572Y0172909D01*
X0252836Y0175656D01*
X0251414Y0178119D01*
X0249403Y0180130D01*
X0246208Y0183325D01*
X0246622Y0183738D01*
X0246622Y0192437D01*
X0244222Y0194837D01*
X0244222Y0196848D01*
X0242913Y0200009D01*
X0237853Y0205068D01*
X0239706Y0206138D01*
X0241717Y0208149D01*
X0242938Y0210264D01*
X0244074Y0209128D01*
X0247110Y0207376D01*
X0250495Y0206469D01*
X0254001Y0206469D01*
X0256906Y0207247D01*
X0256906Y0039400D01*
X0254001Y0040179D01*
X0250495Y0040179D01*
X0247110Y0039272D01*
X0244074Y0037519D01*
X0241596Y0035041D01*
X0239843Y0032005D01*
X0238936Y0028619D01*
X0238936Y0025114D01*
X0239275Y0029883D02*
X0205914Y0029883D01*
X0205914Y0035481D02*
X0242037Y0035481D01*
X0256906Y0041080D02*
X0220658Y0041080D01*
X0222985Y0046678D02*
X0256906Y0046678D01*
X0256906Y0052277D02*
X0222261Y0052277D01*
X0222985Y0057875D02*
X0256906Y0057875D01*
X0256906Y0063474D02*
X0222070Y0063474D01*
X0222985Y0069073D02*
X0256906Y0069073D01*
X0256906Y0074671D02*
X0222468Y0074671D01*
X0222799Y0080270D02*
X0256906Y0080270D01*
X0256906Y0085868D02*
X0222789Y0085868D01*
X0222478Y0091467D02*
X0256906Y0091467D01*
X0256906Y0097065D02*
X0222985Y0097065D01*
X0222091Y0102664D02*
X0256906Y0102664D01*
X0256906Y0108262D02*
X0218985Y0108262D01*
X0222251Y0113861D02*
X0256906Y0113861D01*
X0256906Y0119459D02*
X0222985Y0119459D01*
X0220695Y0125058D02*
X0256906Y0125058D01*
X0256906Y0130656D02*
X0180164Y0130656D01*
X0178260Y0136255D02*
X0236471Y0136255D01*
X0226122Y0141587D02*
X0226122Y0143238D01*
X0226122Y0143238D01*
X0226122Y0141587D01*
X0226122Y0141853D02*
X0226122Y0141853D01*
X0223164Y0141853D02*
X0175407Y0141853D01*
X0181759Y0147452D02*
X0219622Y0147452D01*
X0219622Y0148087D02*
X0221273Y0148087D01*
X0221273Y0148087D01*
X0219622Y0148087D01*
X0216310Y0153050D02*
X0188146Y0153050D01*
X0190479Y0158649D02*
X0215622Y0158649D01*
X0215622Y0164247D02*
X0190746Y0164247D01*
X0188721Y0169846D02*
X0215622Y0169846D01*
X0215622Y0175444D02*
X0183484Y0175444D01*
X0165973Y0175444D02*
X0134402Y0175444D01*
X0138174Y0181043D02*
X0214454Y0181043D01*
X0208856Y0186641D02*
X0138332Y0186641D01*
X0134993Y0192240D02*
X0203257Y0192240D01*
X0197659Y0197838D02*
X0130397Y0197838D01*
X0130372Y0203437D02*
X0194572Y0203437D01*
X0163075Y0207980D02*
X0163075Y0210501D01*
X0163075Y0210501D01*
X0163075Y0210501D01*
X0163075Y0207980D01*
X0163075Y0209035D02*
X0163075Y0209035D01*
X0160736Y0169846D02*
X0128804Y0169846D01*
X0151413Y0164247D02*
X0158711Y0164247D01*
X0181568Y0125058D02*
X0195369Y0125058D01*
X0189770Y0119459D02*
X0182455Y0119459D01*
X0182528Y0113861D02*
X0184172Y0113861D01*
X0249073Y0136255D02*
X0256906Y0136255D01*
X0256906Y0141853D02*
X0253086Y0141853D01*
X0253572Y0147452D02*
X0256906Y0147452D01*
X0256906Y0153050D02*
X0253572Y0153050D01*
X0253572Y0158649D02*
X0256906Y0158649D01*
X0256906Y0164247D02*
X0253572Y0164247D01*
X0253572Y0169846D02*
X0256906Y0169846D01*
X0256906Y0175444D02*
X0252893Y0175444D01*
X0256906Y0181043D02*
X0248490Y0181043D01*
X0246622Y0186641D02*
X0256906Y0186641D01*
X0256906Y0192240D02*
X0246622Y0192240D01*
X0243812Y0197838D02*
X0256906Y0197838D01*
X0256906Y0203437D02*
X0239485Y0203437D01*
X0242229Y0209035D02*
X0244235Y0209035D01*
X0318237Y0176913D02*
X0320151Y0174999D01*
X0323351Y0173673D01*
X0326814Y0173673D01*
X0330014Y0174999D01*
X0332463Y0177447D01*
X0333788Y0180647D01*
X0333788Y0184110D01*
X0332463Y0187310D01*
X0330548Y0189224D01*
X0358987Y0189224D01*
X0357073Y0187310D01*
X0355747Y0184110D01*
X0355747Y0180647D01*
X0357073Y0177447D01*
X0359521Y0174999D01*
X0362721Y0173673D01*
X0366184Y0173673D01*
X0369384Y0174999D01*
X0371833Y0177447D01*
X0373158Y0180647D01*
X0373158Y0184110D01*
X0371833Y0187310D01*
X0369919Y0189224D01*
X0371146Y0189224D01*
X0371601Y0189189D01*
X0372466Y0188907D01*
X0373202Y0188372D01*
X0373737Y0187636D01*
X0374019Y0186771D01*
X0374054Y0186316D01*
X0374054Y0020961D01*
X0374019Y0020506D01*
X0373737Y0019641D01*
X0373202Y0018905D01*
X0372466Y0018370D01*
X0371601Y0018089D01*
X0371146Y0018053D01*
X0369919Y0018053D01*
X0371833Y0019967D01*
X0373158Y0023167D01*
X0373158Y0026630D01*
X0371833Y0029830D01*
X0369384Y0032279D01*
X0366184Y0033604D01*
X0362721Y0033604D01*
X0359521Y0032279D01*
X0357073Y0029830D01*
X0355747Y0026630D01*
X0355747Y0023167D01*
X0357073Y0019967D01*
X0358987Y0018053D01*
X0330548Y0018053D01*
X0332463Y0019967D01*
X0333788Y0023167D01*
X0333788Y0026630D01*
X0332463Y0029830D01*
X0330014Y0032279D01*
X0326814Y0033604D01*
X0323351Y0033604D01*
X0320151Y0032279D01*
X0318237Y0030364D01*
X0318237Y0050554D01*
X0316980Y0054422D01*
X0316980Y0054422D01*
X0314590Y0057712D01*
X0314590Y0057712D01*
X0311299Y0060103D01*
X0307431Y0061360D01*
X0276264Y0061360D01*
X0276264Y0141980D01*
X0307431Y0141980D01*
X0311299Y0143237D01*
X0311299Y0143237D01*
X0314590Y0145628D01*
X0316980Y0148918D01*
X0318237Y0152786D01*
X0318237Y0176913D01*
X0318237Y0175444D02*
X0319706Y0175444D01*
X0318237Y0169846D02*
X0374054Y0169846D01*
X0374054Y0175444D02*
X0369830Y0175444D01*
X0373158Y0181043D02*
X0374054Y0181043D01*
X0374029Y0186641D02*
X0372110Y0186641D01*
X0356796Y0186641D02*
X0332740Y0186641D01*
X0333788Y0181043D02*
X0355747Y0181043D01*
X0359076Y0175444D02*
X0330460Y0175444D01*
X0318237Y0164247D02*
X0374054Y0164247D01*
X0374054Y0158649D02*
X0318237Y0158649D01*
X0318237Y0153050D02*
X0374054Y0153050D01*
X0374054Y0147452D02*
X0315915Y0147452D01*
X0316980Y0148918D02*
X0316980Y0148918D01*
X0314590Y0145628D02*
X0314590Y0145628D01*
X0314590Y0145628D01*
X0298129Y0128170D02*
X0295437Y0128170D01*
X0292745Y0128170D01*
X0290367Y0125793D01*
X0288089Y0128072D01*
X0282785Y0128072D01*
X0279035Y0124322D01*
X0279035Y0119018D01*
X0281384Y0116670D01*
X0279035Y0114322D01*
X0279035Y0109018D01*
X0281384Y0106670D01*
X0279035Y0104322D01*
X0279035Y0099018D01*
X0281384Y0096670D01*
X0279035Y0094322D01*
X0279035Y0089018D01*
X0281384Y0086670D01*
X0279035Y0084322D01*
X0279035Y0079018D01*
X0282785Y0075269D01*
X0288089Y0075269D01*
X0290437Y0077617D01*
X0292785Y0075269D01*
X0298089Y0075269D01*
X0301839Y0079018D01*
X0301839Y0084322D01*
X0299490Y0086670D01*
X0301839Y0089018D01*
X0301839Y0094322D01*
X0299490Y0096670D01*
X0301839Y0099018D01*
X0301839Y0104322D01*
X0299490Y0106670D01*
X0301839Y0109018D01*
X0301839Y0114322D01*
X0299560Y0116600D01*
X0301937Y0118978D01*
X0301937Y0121670D01*
X0295437Y0121670D01*
X0295437Y0121670D01*
X0301937Y0121670D01*
X0301937Y0124362D01*
X0298129Y0128170D01*
X0295437Y0128170D02*
X0295437Y0121670D01*
X0295437Y0128170D01*
X0295437Y0125058D02*
X0295437Y0125058D01*
X0295437Y0121670D02*
X0295437Y0121670D01*
X0301242Y0125058D02*
X0374054Y0125058D01*
X0374054Y0119459D02*
X0301937Y0119459D01*
X0301839Y0113861D02*
X0374054Y0113861D01*
X0374054Y0108262D02*
X0301082Y0108262D01*
X0301839Y0102664D02*
X0374054Y0102664D01*
X0374054Y0097065D02*
X0299885Y0097065D01*
X0301839Y0091467D02*
X0374054Y0091467D01*
X0374054Y0085868D02*
X0300292Y0085868D01*
X0301839Y0080270D02*
X0374054Y0080270D01*
X0374054Y0074671D02*
X0276264Y0074671D01*
X0276264Y0069073D02*
X0374054Y0069073D01*
X0374054Y0063474D02*
X0276264Y0063474D01*
X0276264Y0080270D02*
X0279035Y0080270D01*
X0280582Y0085868D02*
X0276264Y0085868D01*
X0276264Y0091467D02*
X0279035Y0091467D01*
X0280989Y0097065D02*
X0276264Y0097065D01*
X0276264Y0102664D02*
X0279035Y0102664D01*
X0279792Y0108262D02*
X0276264Y0108262D01*
X0276264Y0113861D02*
X0279035Y0113861D01*
X0279035Y0119459D02*
X0276264Y0119459D01*
X0276264Y0125058D02*
X0279771Y0125058D01*
X0276264Y0130656D02*
X0374054Y0130656D01*
X0374054Y0136255D02*
X0276264Y0136255D01*
X0276264Y0141853D02*
X0374054Y0141853D01*
X0311299Y0060103D02*
X0311299Y0060103D01*
X0314365Y0057875D02*
X0374054Y0057875D01*
X0374054Y0052277D02*
X0317677Y0052277D01*
X0318237Y0046678D02*
X0374054Y0046678D01*
X0374054Y0041080D02*
X0318237Y0041080D01*
X0318237Y0035481D02*
X0374054Y0035481D01*
X0374054Y0029883D02*
X0371780Y0029883D01*
X0373158Y0024284D02*
X0374054Y0024284D01*
X0372901Y0018686D02*
X0370552Y0018686D01*
X0358354Y0018686D02*
X0331182Y0018686D01*
X0333788Y0024284D02*
X0355747Y0024284D01*
X0357126Y0029883D02*
X0332410Y0029883D01*
X0314590Y0057712D02*
X0314590Y0057712D01*
X0154265Y0024284D02*
X0151003Y0024284D01*
X0118798Y0024284D02*
X0116003Y0024284D01*
X0095894Y0024284D02*
X0062081Y0024284D01*
X0070122Y0029883D02*
X0070122Y0029883D01*
X0078363Y0029883D02*
X0083398Y0029883D01*
X0081539Y0035481D02*
X0078922Y0035481D01*
X0075575Y0041080D02*
X0083676Y0041080D01*
X0090358Y0041080D02*
X0090358Y0041080D01*
X0096257Y0046678D02*
X0073722Y0046678D01*
X0073722Y0052277D02*
X0074814Y0052277D01*
X0085667Y0052277D02*
X0098378Y0052277D01*
X0115641Y0046678D02*
X0119427Y0046678D01*
X0090358Y0035481D02*
X0090358Y0035481D01*
X0090358Y0029883D02*
X0090358Y0029883D01*
X0056522Y0048338D02*
X0051145Y0048338D01*
X0056522Y0048338D01*
X0056522Y0048338D01*
X0051145Y0048338D02*
X0051145Y0048338D01*
X0041638Y0066443D02*
X0041638Y0066443D01*
X0041638Y0066443D01*
X0041638Y0067250D01*
X0042444Y0067250D01*
X0046444Y0071250D01*
X0054863Y0071250D01*
X0055334Y0070779D01*
X0055334Y0071281D01*
X0055711Y0071658D01*
X0055491Y0071878D01*
X0055491Y0080297D01*
X0055610Y0080415D01*
X0055608Y0080419D01*
X0055290Y0081605D01*
X0054930Y0082779D01*
X0054923Y0082976D01*
X0054872Y0083166D01*
X0054872Y0084394D01*
X0054810Y0086137D01*
X0055447Y0088908D01*
X0055491Y0088993D01*
X0055491Y0089312D01*
X0055853Y0089674D01*
X0056779Y0091420D01*
X0058717Y0093502D01*
X0060068Y0094348D01*
X0055491Y0098925D01*
X0055491Y0105242D01*
X0053206Y0102957D01*
X0050654Y0102957D01*
X0050654Y0109119D01*
X0056816Y0109119D01*
X0056816Y0111671D01*
X0053663Y0114824D01*
X0055291Y0115260D01*
X0057753Y0116681D01*
X0059764Y0118692D01*
X0061186Y0121155D01*
X0061922Y0123902D01*
X0061922Y0126745D01*
X0061186Y0129492D01*
X0060752Y0130245D01*
X0061186Y0130997D01*
X0061922Y0133744D01*
X0061922Y0136588D01*
X0061840Y0136895D01*
X0062022Y0137077D01*
X0062022Y0113297D01*
X0061444Y0113297D01*
X0056816Y0108668D01*
X0056816Y0109119D01*
X0050654Y0109119D01*
X0050654Y0109119D01*
X0050653Y0109119D01*
X0050653Y0109119D01*
X0043490Y0109119D01*
X0043490Y0109119D01*
X0044491Y0109119D01*
X0050653Y0109119D01*
X0050653Y0102957D01*
X0048101Y0102957D01*
X0046146Y0104912D01*
X0044190Y0102957D01*
X0041638Y0102957D01*
X0041638Y0103102D01*
X0041638Y0103101D01*
X0041638Y0102957D01*
X0041522Y0102957D01*
X0040175Y0101269D01*
X0037886Y0099582D01*
X0037180Y0099305D01*
X0036831Y0098957D01*
X0036290Y0098957D01*
X0035238Y0098544D01*
X0032412Y0098228D01*
X0029600Y0098653D01*
X0028906Y0098957D01*
X0028413Y0098957D01*
X0028148Y0099221D01*
X0027953Y0099273D01*
X0027784Y0099371D01*
X0027784Y0098925D01*
X0021831Y0092972D01*
X0018172Y0092972D01*
X0018172Y0091265D01*
X0020175Y0091265D01*
X0023784Y0087656D01*
X0023784Y0085103D01*
X0022978Y0085103D01*
X0022978Y0085103D01*
X0023784Y0085103D01*
X0023784Y0084297D01*
X0027784Y0080297D01*
X0027784Y0071878D01*
X0027486Y0071580D01*
X0027784Y0071281D01*
X0027784Y0070621D01*
X0028413Y0071250D01*
X0036831Y0071250D01*
X0040831Y0067250D01*
X0041638Y0067250D01*
X0041638Y0066443D01*
X0044267Y0069073D02*
X0039008Y0069073D01*
X0027784Y0074671D02*
X0055491Y0074671D01*
X0055491Y0080270D02*
X0027784Y0080270D01*
X0023784Y0085868D02*
X0054819Y0085868D01*
X0056822Y0091467D02*
X0018172Y0091467D01*
X0025924Y0097065D02*
X0057352Y0097065D01*
X0055491Y0102664D02*
X0041288Y0102664D01*
X0050653Y0108262D02*
X0050654Y0108262D01*
X0046146Y0113326D02*
X0044190Y0115281D01*
X0041638Y0115281D01*
X0041638Y0115090D01*
X0041638Y0115281D01*
X0041497Y0115281D01*
X0040472Y0116671D01*
X0038436Y0118297D01*
X0032760Y0123972D01*
X0034858Y0123972D01*
X0035592Y0124118D01*
X0036283Y0124405D01*
X0036906Y0124821D01*
X0037435Y0125350D01*
X0037851Y0125972D01*
X0038137Y0126664D01*
X0038181Y0126883D01*
X0038581Y0125916D01*
X0040322Y0124175D01*
X0040322Y0123902D01*
X0041058Y0121155D01*
X0042480Y0118692D01*
X0044491Y0116681D01*
X0046953Y0115260D01*
X0047842Y0115022D01*
X0046146Y0113326D01*
X0045611Y0113861D02*
X0046681Y0113861D01*
X0041638Y0115090D02*
X0041638Y0115090D01*
X0042037Y0119459D02*
X0037274Y0119459D01*
X0037143Y0125058D02*
X0039440Y0125058D01*
X0031334Y0134552D02*
X0031334Y0134552D01*
X0031334Y0142202D01*
X0034858Y0142202D01*
X0035592Y0142056D01*
X0036283Y0141770D01*
X0036906Y0141354D01*
X0037272Y0140988D01*
X0037272Y0159998D01*
X0038581Y0163159D01*
X0041001Y0165578D01*
X0042611Y0167188D01*
X0042222Y0168127D01*
X0042222Y0172662D01*
X0040875Y0173023D01*
X0038412Y0174445D01*
X0036570Y0176287D01*
X0035201Y0176287D01*
X0035201Y0178535D01*
X0035201Y0178535D01*
X0035201Y0176287D01*
X0031827Y0176287D01*
X0031092Y0176433D01*
X0030401Y0176720D01*
X0029778Y0177136D01*
X0029249Y0177665D01*
X0028833Y0178287D01*
X0028547Y0178979D01*
X0028401Y0179713D01*
X0028401Y0183087D01*
X0034243Y0183087D01*
X0034243Y0183087D01*
X0028401Y0183087D01*
X0028401Y0186462D01*
X0028547Y0187196D01*
X0028833Y0187887D01*
X0029249Y0188510D01*
X0029778Y0189039D01*
X0030401Y0189455D01*
X0031092Y0189741D01*
X0031827Y0189887D01*
X0035201Y0189887D01*
X0035201Y0187640D01*
X0035201Y0187640D01*
X0035201Y0189887D01*
X0036570Y0189887D01*
X0038412Y0191730D01*
X0040875Y0193151D01*
X0043621Y0193887D01*
X0046465Y0193887D01*
X0049038Y0193198D01*
X0038066Y0204170D01*
X0035656Y0205168D01*
X0033462Y0207362D01*
X0032539Y0209592D01*
X0032075Y0209128D01*
X0029040Y0207376D01*
X0025654Y0206469D01*
X0022149Y0206469D01*
X0018763Y0207376D01*
X0018172Y0207717D01*
X0018172Y0146202D01*
X0025011Y0146202D01*
X0027878Y0145015D01*
X0030072Y0142821D01*
X0030328Y0142202D01*
X0031334Y0142202D01*
X0031334Y0134552D01*
X0031334Y0136255D02*
X0031334Y0136255D01*
X0031334Y0141853D02*
X0031334Y0141853D01*
X0036082Y0141853D02*
X0037272Y0141853D01*
X0037272Y0147452D02*
X0018172Y0147452D01*
X0018172Y0153050D02*
X0037272Y0153050D01*
X0037272Y0158649D02*
X0018172Y0158649D01*
X0018172Y0164247D02*
X0039670Y0164247D01*
X0042222Y0169846D02*
X0018172Y0169846D01*
X0018172Y0175444D02*
X0037413Y0175444D01*
X0028401Y0181043D02*
X0018172Y0181043D01*
X0018172Y0186641D02*
X0028437Y0186641D01*
X0018172Y0192240D02*
X0039296Y0192240D01*
X0044398Y0197838D02*
X0018172Y0197838D01*
X0018172Y0203437D02*
X0038799Y0203437D01*
X0032769Y0209035D02*
X0031914Y0209035D01*
X0061922Y0136255D02*
X0062022Y0136255D01*
X0062022Y0130656D02*
X0060989Y0130656D01*
X0061922Y0125058D02*
X0062022Y0125058D01*
X0062022Y0119459D02*
X0060207Y0119459D01*
X0062022Y0113861D02*
X0054626Y0113861D01*
D27*
X0064453Y0144977D03*
X0059335Y0043796D03*
M02*
