G75*
%MOIN*%
%OFA0B0*%
%FSLAX25Y25*%
%IPPOS*%
%LPD*%
%AMOC8*
5,1,8,0,0,1.08239X$1,22.5*
%
%ADD10C,0.95288*%
%ADD11C,0.08674*%
%ADD12R,0.06000X0.06000*%
%ADD13R,0.06800X0.06800*%
%ADD14C,0.06000*%
%ADD15C,0.06800*%
%ADD16C,0.11824*%
%ADD17OC8,0.05400*%
%ADD18OC8,0.06200*%
%ADD19C,0.07000*%
%ADD20C,0.07800*%
%ADD21OC8,0.04724*%
%ADD22OC8,0.05524*%
%ADD23R,0.10039X0.10039*%
%ADD24R,0.10839X0.10839*%
%ADD25C,0.10039*%
%ADD26C,0.10839*%
%ADD27C,0.10000*%
%ADD28C,0.10800*%
%ADD29OC8,0.10000*%
%ADD30OC8,0.10800*%
%ADD31R,0.10800X0.20800*%
%ADD32R,0.10406X0.05249*%
%ADD33C,0.02362*%
%ADD34C,0.16535*%
%ADD35C,0.17335*%
%ADD36C,0.03543*%
%ADD37C,0.04343*%
D10*
X0127484Y0114662D03*
D11*
X0325083Y0182379D03*
X0364453Y0182379D03*
X0364453Y0024898D03*
X0325083Y0024898D03*
D12*
X0051122Y0154851D03*
X0035201Y0183087D03*
X0043075Y0214780D03*
D13*
X0043075Y0214780D03*
X0035201Y0183087D03*
X0051122Y0154851D03*
D14*
X0051122Y0145009D03*
X0051122Y0135166D03*
X0051122Y0125324D03*
X0045043Y0183087D03*
X0053075Y0214780D03*
X0063075Y0214780D03*
X0073075Y0214780D03*
X0083075Y0214780D03*
X0093075Y0214780D03*
X0103075Y0214780D03*
X0113075Y0214780D03*
X0123075Y0214780D03*
X0133075Y0214780D03*
X0143075Y0214780D03*
X0153075Y0214780D03*
X0163075Y0214780D03*
X0173075Y0214780D03*
X0183075Y0214780D03*
X0193075Y0214780D03*
X0203075Y0214780D03*
X0213075Y0214780D03*
X0223075Y0214780D03*
X0233075Y0214780D03*
X0233075Y0224780D03*
X0223075Y0224780D03*
X0213075Y0224780D03*
X0203075Y0224780D03*
X0193075Y0224780D03*
X0183075Y0224780D03*
X0173075Y0224780D03*
X0163075Y0224780D03*
X0153075Y0224780D03*
X0143075Y0224780D03*
X0133075Y0224780D03*
X0123075Y0224780D03*
X0113075Y0224780D03*
X0103075Y0224780D03*
X0093075Y0224780D03*
X0083075Y0224780D03*
X0073075Y0224780D03*
X0063075Y0224780D03*
X0053075Y0224780D03*
X0043075Y0224780D03*
D15*
X0043075Y0224780D03*
X0053075Y0224780D03*
X0063075Y0224780D03*
X0073075Y0224780D03*
X0083075Y0224780D03*
X0093075Y0224780D03*
X0103075Y0224780D03*
X0113075Y0224780D03*
X0123075Y0224780D03*
X0133075Y0224780D03*
X0143075Y0224780D03*
X0153075Y0224780D03*
X0163075Y0224780D03*
X0173075Y0224780D03*
X0183075Y0224780D03*
X0193075Y0224780D03*
X0203075Y0224780D03*
X0213075Y0224780D03*
X0223075Y0224780D03*
X0233075Y0224780D03*
X0233075Y0214780D03*
X0223075Y0214780D03*
X0213075Y0214780D03*
X0203075Y0214780D03*
X0193075Y0214780D03*
X0183075Y0214780D03*
X0173075Y0214780D03*
X0163075Y0214780D03*
X0153075Y0214780D03*
X0143075Y0214780D03*
X0133075Y0214780D03*
X0123075Y0214780D03*
X0113075Y0214780D03*
X0103075Y0214780D03*
X0093075Y0214780D03*
X0083075Y0214780D03*
X0073075Y0214780D03*
X0063075Y0214780D03*
X0053075Y0214780D03*
X0045043Y0183087D03*
X0051122Y0145009D03*
X0051122Y0135166D03*
X0051122Y0125324D03*
D16*
X0023902Y0026867D03*
X0252248Y0026867D03*
X0252248Y0219780D03*
X0023902Y0219780D03*
D17*
X0226122Y0188087D03*
X0236122Y0188087D03*
X0236122Y0178087D03*
X0226122Y0178087D03*
X0226122Y0168087D03*
X0236122Y0168087D03*
X0236122Y0158087D03*
X0226122Y0158087D03*
X0226122Y0148087D03*
X0236122Y0148087D03*
X0285437Y0121670D03*
X0295437Y0121670D03*
X0295437Y0111670D03*
X0285437Y0111670D03*
X0285437Y0101670D03*
X0295437Y0101670D03*
X0295437Y0091670D03*
X0285437Y0091670D03*
X0285437Y0081670D03*
X0295437Y0081670D03*
D18*
X0295437Y0081670D03*
X0285437Y0081670D03*
X0285437Y0091670D03*
X0295437Y0091670D03*
X0295437Y0101670D03*
X0285437Y0101670D03*
X0285437Y0111670D03*
X0295437Y0111670D03*
X0295437Y0121670D03*
X0285437Y0121670D03*
X0236122Y0148087D03*
X0226122Y0148087D03*
X0226122Y0158087D03*
X0236122Y0158087D03*
X0236122Y0168087D03*
X0226122Y0168087D03*
X0226122Y0178087D03*
X0236122Y0178087D03*
X0236122Y0188087D03*
X0226122Y0188087D03*
D19*
X0211685Y0118087D02*
X0204685Y0118087D01*
X0204685Y0108087D02*
X0211685Y0108087D01*
X0211685Y0098087D02*
X0204685Y0098087D01*
X0204685Y0088087D02*
X0211685Y0088087D01*
X0211685Y0078087D02*
X0204685Y0078087D01*
X0204685Y0068087D02*
X0211685Y0068087D01*
X0211685Y0058087D02*
X0204685Y0058087D01*
X0204685Y0048087D02*
X0211685Y0048087D01*
D20*
X0204685Y0048087D01*
X0204685Y0058087D02*
X0211685Y0058087D01*
X0211685Y0068087D02*
X0204685Y0068087D01*
X0204685Y0078087D02*
X0211685Y0078087D01*
X0211685Y0088087D02*
X0204685Y0088087D01*
X0204685Y0098087D02*
X0211685Y0098087D01*
X0211685Y0108087D02*
X0204685Y0108087D01*
X0204685Y0118087D02*
X0211685Y0118087D01*
D21*
X0065654Y0103135D03*
X0050654Y0109119D03*
X0041638Y0109119D03*
X0032622Y0109119D03*
X0017622Y0103135D03*
X0017622Y0085103D03*
X0017622Y0076087D03*
X0017622Y0067072D03*
X0032622Y0061087D03*
X0041638Y0061087D03*
X0050654Y0061087D03*
X0065496Y0067072D03*
X0065654Y0076087D03*
X0065654Y0085103D03*
D22*
X0065654Y0085103D03*
X0065654Y0076087D03*
X0065496Y0067072D03*
X0050654Y0061087D03*
X0041638Y0061087D03*
X0032622Y0061087D03*
X0017622Y0067072D03*
X0017622Y0076087D03*
X0017622Y0085103D03*
X0017622Y0103135D03*
X0032622Y0109119D03*
X0041638Y0109119D03*
X0050654Y0109119D03*
X0065654Y0103135D03*
D23*
X0105949Y0035300D03*
X0140949Y0035300D03*
D24*
X0140949Y0035300D03*
X0105949Y0035300D03*
D25*
X0090358Y0035300D03*
X0125358Y0035300D03*
D26*
X0125358Y0035300D03*
X0090358Y0035300D03*
D27*
X0050122Y0034087D03*
X0161154Y0035087D03*
D28*
X0161154Y0035087D03*
X0050122Y0034087D03*
D29*
X0070122Y0034087D03*
X0181154Y0035087D03*
D30*
X0181154Y0035087D03*
X0070122Y0034087D03*
D31*
X0325161Y0072457D03*
X0365161Y0072457D03*
X0365161Y0132457D03*
X0325161Y0132457D03*
D32*
X0328626Y0154938D03*
X0328626Y0164938D03*
X0362484Y0164938D03*
X0362484Y0154938D03*
X0362484Y0050765D03*
X0362484Y0040765D03*
X0328626Y0040765D03*
X0328626Y0050765D03*
D33*
X0339022Y0039487D03*
X0242772Y0145087D03*
X0127822Y0184137D03*
X0095922Y0195137D03*
X0087122Y0174237D03*
X0072822Y0147843D03*
D34*
X0080240Y0161946D03*
X0174728Y0161946D03*
X0174728Y0067457D03*
X0080240Y0067457D03*
D35*
X0080240Y0067457D03*
X0174728Y0067457D03*
X0174728Y0161946D03*
X0080240Y0161946D03*
D36*
X0064453Y0144977D03*
X0059335Y0043796D03*
D37*
X0059335Y0043796D03*
X0064453Y0144977D03*
M02*
