G75*
%MOIN*%
%OFA0B0*%
%FSLAX25Y25*%
%IPPOS*%
%LPD*%
%AMOC8*
5,1,8,0,0,1.08239X$1,22.5*
%
%ADD10C,0.00000*%
%ADD11C,0.00394*%
%ADD12C,0.00500*%
D10*
X0018390Y0026867D02*
X0018392Y0027015D01*
X0018398Y0027163D01*
X0018408Y0027311D01*
X0018422Y0027458D01*
X0018440Y0027605D01*
X0018461Y0027751D01*
X0018487Y0027897D01*
X0018517Y0028042D01*
X0018550Y0028186D01*
X0018588Y0028329D01*
X0018629Y0028471D01*
X0018674Y0028612D01*
X0018722Y0028752D01*
X0018775Y0028891D01*
X0018831Y0029028D01*
X0018891Y0029163D01*
X0018954Y0029297D01*
X0019021Y0029429D01*
X0019092Y0029559D01*
X0019166Y0029687D01*
X0019243Y0029813D01*
X0019324Y0029937D01*
X0019408Y0030059D01*
X0019495Y0030178D01*
X0019586Y0030295D01*
X0019680Y0030410D01*
X0019776Y0030522D01*
X0019876Y0030632D01*
X0019978Y0030738D01*
X0020084Y0030842D01*
X0020192Y0030943D01*
X0020303Y0031041D01*
X0020416Y0031137D01*
X0020532Y0031229D01*
X0020650Y0031318D01*
X0020771Y0031403D01*
X0020894Y0031486D01*
X0021019Y0031565D01*
X0021146Y0031641D01*
X0021275Y0031713D01*
X0021406Y0031782D01*
X0021539Y0031847D01*
X0021674Y0031908D01*
X0021810Y0031966D01*
X0021947Y0032021D01*
X0022086Y0032071D01*
X0022227Y0032118D01*
X0022368Y0032161D01*
X0022511Y0032201D01*
X0022655Y0032236D01*
X0022799Y0032268D01*
X0022945Y0032295D01*
X0023091Y0032319D01*
X0023238Y0032339D01*
X0023385Y0032355D01*
X0023532Y0032367D01*
X0023680Y0032375D01*
X0023828Y0032379D01*
X0023976Y0032379D01*
X0024124Y0032375D01*
X0024272Y0032367D01*
X0024419Y0032355D01*
X0024566Y0032339D01*
X0024713Y0032319D01*
X0024859Y0032295D01*
X0025005Y0032268D01*
X0025149Y0032236D01*
X0025293Y0032201D01*
X0025436Y0032161D01*
X0025577Y0032118D01*
X0025718Y0032071D01*
X0025857Y0032021D01*
X0025994Y0031966D01*
X0026130Y0031908D01*
X0026265Y0031847D01*
X0026398Y0031782D01*
X0026529Y0031713D01*
X0026658Y0031641D01*
X0026785Y0031565D01*
X0026910Y0031486D01*
X0027033Y0031403D01*
X0027154Y0031318D01*
X0027272Y0031229D01*
X0027388Y0031137D01*
X0027501Y0031041D01*
X0027612Y0030943D01*
X0027720Y0030842D01*
X0027826Y0030738D01*
X0027928Y0030632D01*
X0028028Y0030522D01*
X0028124Y0030410D01*
X0028218Y0030295D01*
X0028309Y0030178D01*
X0028396Y0030059D01*
X0028480Y0029937D01*
X0028561Y0029813D01*
X0028638Y0029687D01*
X0028712Y0029559D01*
X0028783Y0029429D01*
X0028850Y0029297D01*
X0028913Y0029163D01*
X0028973Y0029028D01*
X0029029Y0028891D01*
X0029082Y0028752D01*
X0029130Y0028612D01*
X0029175Y0028471D01*
X0029216Y0028329D01*
X0029254Y0028186D01*
X0029287Y0028042D01*
X0029317Y0027897D01*
X0029343Y0027751D01*
X0029364Y0027605D01*
X0029382Y0027458D01*
X0029396Y0027311D01*
X0029406Y0027163D01*
X0029412Y0027015D01*
X0029414Y0026867D01*
X0029412Y0026719D01*
X0029406Y0026571D01*
X0029396Y0026423D01*
X0029382Y0026276D01*
X0029364Y0026129D01*
X0029343Y0025983D01*
X0029317Y0025837D01*
X0029287Y0025692D01*
X0029254Y0025548D01*
X0029216Y0025405D01*
X0029175Y0025263D01*
X0029130Y0025122D01*
X0029082Y0024982D01*
X0029029Y0024843D01*
X0028973Y0024706D01*
X0028913Y0024571D01*
X0028850Y0024437D01*
X0028783Y0024305D01*
X0028712Y0024175D01*
X0028638Y0024047D01*
X0028561Y0023921D01*
X0028480Y0023797D01*
X0028396Y0023675D01*
X0028309Y0023556D01*
X0028218Y0023439D01*
X0028124Y0023324D01*
X0028028Y0023212D01*
X0027928Y0023102D01*
X0027826Y0022996D01*
X0027720Y0022892D01*
X0027612Y0022791D01*
X0027501Y0022693D01*
X0027388Y0022597D01*
X0027272Y0022505D01*
X0027154Y0022416D01*
X0027033Y0022331D01*
X0026910Y0022248D01*
X0026785Y0022169D01*
X0026658Y0022093D01*
X0026529Y0022021D01*
X0026398Y0021952D01*
X0026265Y0021887D01*
X0026130Y0021826D01*
X0025994Y0021768D01*
X0025857Y0021713D01*
X0025718Y0021663D01*
X0025577Y0021616D01*
X0025436Y0021573D01*
X0025293Y0021533D01*
X0025149Y0021498D01*
X0025005Y0021466D01*
X0024859Y0021439D01*
X0024713Y0021415D01*
X0024566Y0021395D01*
X0024419Y0021379D01*
X0024272Y0021367D01*
X0024124Y0021359D01*
X0023976Y0021355D01*
X0023828Y0021355D01*
X0023680Y0021359D01*
X0023532Y0021367D01*
X0023385Y0021379D01*
X0023238Y0021395D01*
X0023091Y0021415D01*
X0022945Y0021439D01*
X0022799Y0021466D01*
X0022655Y0021498D01*
X0022511Y0021533D01*
X0022368Y0021573D01*
X0022227Y0021616D01*
X0022086Y0021663D01*
X0021947Y0021713D01*
X0021810Y0021768D01*
X0021674Y0021826D01*
X0021539Y0021887D01*
X0021406Y0021952D01*
X0021275Y0022021D01*
X0021146Y0022093D01*
X0021019Y0022169D01*
X0020894Y0022248D01*
X0020771Y0022331D01*
X0020650Y0022416D01*
X0020532Y0022505D01*
X0020416Y0022597D01*
X0020303Y0022693D01*
X0020192Y0022791D01*
X0020084Y0022892D01*
X0019978Y0022996D01*
X0019876Y0023102D01*
X0019776Y0023212D01*
X0019680Y0023324D01*
X0019586Y0023439D01*
X0019495Y0023556D01*
X0019408Y0023675D01*
X0019324Y0023797D01*
X0019243Y0023921D01*
X0019166Y0024047D01*
X0019092Y0024175D01*
X0019021Y0024305D01*
X0018954Y0024437D01*
X0018891Y0024571D01*
X0018831Y0024706D01*
X0018775Y0024843D01*
X0018722Y0024982D01*
X0018674Y0025122D01*
X0018629Y0025263D01*
X0018588Y0025405D01*
X0018550Y0025548D01*
X0018517Y0025692D01*
X0018487Y0025837D01*
X0018461Y0025983D01*
X0018440Y0026129D01*
X0018422Y0026276D01*
X0018408Y0026423D01*
X0018398Y0026571D01*
X0018392Y0026719D01*
X0018390Y0026867D01*
X0080240Y0114662D02*
X0080254Y0115821D01*
X0080297Y0116980D01*
X0080368Y0118137D01*
X0080467Y0119293D01*
X0080595Y0120445D01*
X0080751Y0121594D01*
X0080936Y0122739D01*
X0081148Y0123879D01*
X0081388Y0125013D01*
X0081656Y0126141D01*
X0081951Y0127263D01*
X0082274Y0128376D01*
X0082624Y0129482D01*
X0083002Y0130578D01*
X0083406Y0131665D01*
X0083836Y0132741D01*
X0084293Y0133807D01*
X0084776Y0134861D01*
X0085285Y0135903D01*
X0085819Y0136933D01*
X0086378Y0137948D01*
X0086961Y0138950D01*
X0087570Y0139937D01*
X0088202Y0140909D01*
X0088858Y0141865D01*
X0089537Y0142805D01*
X0090239Y0143728D01*
X0090964Y0144633D01*
X0091710Y0145520D01*
X0092479Y0146389D01*
X0093268Y0147239D01*
X0094077Y0148069D01*
X0094907Y0148878D01*
X0095757Y0149667D01*
X0096626Y0150436D01*
X0097513Y0151182D01*
X0098418Y0151907D01*
X0099341Y0152609D01*
X0100281Y0153288D01*
X0101237Y0153944D01*
X0102209Y0154576D01*
X0103196Y0155185D01*
X0104198Y0155768D01*
X0105213Y0156327D01*
X0106243Y0156861D01*
X0107285Y0157370D01*
X0108339Y0157853D01*
X0109405Y0158310D01*
X0110481Y0158740D01*
X0111568Y0159144D01*
X0112664Y0159522D01*
X0113770Y0159872D01*
X0114883Y0160195D01*
X0116005Y0160490D01*
X0117133Y0160758D01*
X0118267Y0160998D01*
X0119407Y0161210D01*
X0120552Y0161395D01*
X0121701Y0161551D01*
X0122853Y0161679D01*
X0124009Y0161778D01*
X0125166Y0161849D01*
X0126325Y0161892D01*
X0127484Y0161906D01*
X0128643Y0161892D01*
X0129802Y0161849D01*
X0130959Y0161778D01*
X0132115Y0161679D01*
X0133267Y0161551D01*
X0134416Y0161395D01*
X0135561Y0161210D01*
X0136701Y0160998D01*
X0137835Y0160758D01*
X0138963Y0160490D01*
X0140085Y0160195D01*
X0141198Y0159872D01*
X0142304Y0159522D01*
X0143400Y0159144D01*
X0144487Y0158740D01*
X0145563Y0158310D01*
X0146629Y0157853D01*
X0147683Y0157370D01*
X0148725Y0156861D01*
X0149755Y0156327D01*
X0150770Y0155768D01*
X0151772Y0155185D01*
X0152759Y0154576D01*
X0153731Y0153944D01*
X0154687Y0153288D01*
X0155627Y0152609D01*
X0156550Y0151907D01*
X0157455Y0151182D01*
X0158342Y0150436D01*
X0159211Y0149667D01*
X0160061Y0148878D01*
X0160891Y0148069D01*
X0161700Y0147239D01*
X0162489Y0146389D01*
X0163258Y0145520D01*
X0164004Y0144633D01*
X0164729Y0143728D01*
X0165431Y0142805D01*
X0166110Y0141865D01*
X0166766Y0140909D01*
X0167398Y0139937D01*
X0168007Y0138950D01*
X0168590Y0137948D01*
X0169149Y0136933D01*
X0169683Y0135903D01*
X0170192Y0134861D01*
X0170675Y0133807D01*
X0171132Y0132741D01*
X0171562Y0131665D01*
X0171966Y0130578D01*
X0172344Y0129482D01*
X0172694Y0128376D01*
X0173017Y0127263D01*
X0173312Y0126141D01*
X0173580Y0125013D01*
X0173820Y0123879D01*
X0174032Y0122739D01*
X0174217Y0121594D01*
X0174373Y0120445D01*
X0174501Y0119293D01*
X0174600Y0118137D01*
X0174671Y0116980D01*
X0174714Y0115821D01*
X0174728Y0114662D01*
X0174714Y0113503D01*
X0174671Y0112344D01*
X0174600Y0111187D01*
X0174501Y0110031D01*
X0174373Y0108879D01*
X0174217Y0107730D01*
X0174032Y0106585D01*
X0173820Y0105445D01*
X0173580Y0104311D01*
X0173312Y0103183D01*
X0173017Y0102061D01*
X0172694Y0100948D01*
X0172344Y0099842D01*
X0171966Y0098746D01*
X0171562Y0097659D01*
X0171132Y0096583D01*
X0170675Y0095517D01*
X0170192Y0094463D01*
X0169683Y0093421D01*
X0169149Y0092391D01*
X0168590Y0091376D01*
X0168007Y0090374D01*
X0167398Y0089387D01*
X0166766Y0088415D01*
X0166110Y0087459D01*
X0165431Y0086519D01*
X0164729Y0085596D01*
X0164004Y0084691D01*
X0163258Y0083804D01*
X0162489Y0082935D01*
X0161700Y0082085D01*
X0160891Y0081255D01*
X0160061Y0080446D01*
X0159211Y0079657D01*
X0158342Y0078888D01*
X0157455Y0078142D01*
X0156550Y0077417D01*
X0155627Y0076715D01*
X0154687Y0076036D01*
X0153731Y0075380D01*
X0152759Y0074748D01*
X0151772Y0074139D01*
X0150770Y0073556D01*
X0149755Y0072997D01*
X0148725Y0072463D01*
X0147683Y0071954D01*
X0146629Y0071471D01*
X0145563Y0071014D01*
X0144487Y0070584D01*
X0143400Y0070180D01*
X0142304Y0069802D01*
X0141198Y0069452D01*
X0140085Y0069129D01*
X0138963Y0068834D01*
X0137835Y0068566D01*
X0136701Y0068326D01*
X0135561Y0068114D01*
X0134416Y0067929D01*
X0133267Y0067773D01*
X0132115Y0067645D01*
X0130959Y0067546D01*
X0129802Y0067475D01*
X0128643Y0067432D01*
X0127484Y0067418D01*
X0126325Y0067432D01*
X0125166Y0067475D01*
X0124009Y0067546D01*
X0122853Y0067645D01*
X0121701Y0067773D01*
X0120552Y0067929D01*
X0119407Y0068114D01*
X0118267Y0068326D01*
X0117133Y0068566D01*
X0116005Y0068834D01*
X0114883Y0069129D01*
X0113770Y0069452D01*
X0112664Y0069802D01*
X0111568Y0070180D01*
X0110481Y0070584D01*
X0109405Y0071014D01*
X0108339Y0071471D01*
X0107285Y0071954D01*
X0106243Y0072463D01*
X0105213Y0072997D01*
X0104198Y0073556D01*
X0103196Y0074139D01*
X0102209Y0074748D01*
X0101237Y0075380D01*
X0100281Y0076036D01*
X0099341Y0076715D01*
X0098418Y0077417D01*
X0097513Y0078142D01*
X0096626Y0078888D01*
X0095757Y0079657D01*
X0094907Y0080446D01*
X0094077Y0081255D01*
X0093268Y0082085D01*
X0092479Y0082935D01*
X0091710Y0083804D01*
X0090964Y0084691D01*
X0090239Y0085596D01*
X0089537Y0086519D01*
X0088858Y0087459D01*
X0088202Y0088415D01*
X0087570Y0089387D01*
X0086961Y0090374D01*
X0086378Y0091376D01*
X0085819Y0092391D01*
X0085285Y0093421D01*
X0084776Y0094463D01*
X0084293Y0095517D01*
X0083836Y0096583D01*
X0083406Y0097659D01*
X0083002Y0098746D01*
X0082624Y0099842D01*
X0082274Y0100948D01*
X0081951Y0102061D01*
X0081656Y0103183D01*
X0081388Y0104311D01*
X0081148Y0105445D01*
X0080936Y0106585D01*
X0080751Y0107730D01*
X0080595Y0108879D01*
X0080467Y0110031D01*
X0080368Y0111187D01*
X0080297Y0112344D01*
X0080254Y0113503D01*
X0080240Y0114662D01*
X0018390Y0219780D02*
X0018392Y0219928D01*
X0018398Y0220076D01*
X0018408Y0220224D01*
X0018422Y0220371D01*
X0018440Y0220518D01*
X0018461Y0220664D01*
X0018487Y0220810D01*
X0018517Y0220955D01*
X0018550Y0221099D01*
X0018588Y0221242D01*
X0018629Y0221384D01*
X0018674Y0221525D01*
X0018722Y0221665D01*
X0018775Y0221804D01*
X0018831Y0221941D01*
X0018891Y0222076D01*
X0018954Y0222210D01*
X0019021Y0222342D01*
X0019092Y0222472D01*
X0019166Y0222600D01*
X0019243Y0222726D01*
X0019324Y0222850D01*
X0019408Y0222972D01*
X0019495Y0223091D01*
X0019586Y0223208D01*
X0019680Y0223323D01*
X0019776Y0223435D01*
X0019876Y0223545D01*
X0019978Y0223651D01*
X0020084Y0223755D01*
X0020192Y0223856D01*
X0020303Y0223954D01*
X0020416Y0224050D01*
X0020532Y0224142D01*
X0020650Y0224231D01*
X0020771Y0224316D01*
X0020894Y0224399D01*
X0021019Y0224478D01*
X0021146Y0224554D01*
X0021275Y0224626D01*
X0021406Y0224695D01*
X0021539Y0224760D01*
X0021674Y0224821D01*
X0021810Y0224879D01*
X0021947Y0224934D01*
X0022086Y0224984D01*
X0022227Y0225031D01*
X0022368Y0225074D01*
X0022511Y0225114D01*
X0022655Y0225149D01*
X0022799Y0225181D01*
X0022945Y0225208D01*
X0023091Y0225232D01*
X0023238Y0225252D01*
X0023385Y0225268D01*
X0023532Y0225280D01*
X0023680Y0225288D01*
X0023828Y0225292D01*
X0023976Y0225292D01*
X0024124Y0225288D01*
X0024272Y0225280D01*
X0024419Y0225268D01*
X0024566Y0225252D01*
X0024713Y0225232D01*
X0024859Y0225208D01*
X0025005Y0225181D01*
X0025149Y0225149D01*
X0025293Y0225114D01*
X0025436Y0225074D01*
X0025577Y0225031D01*
X0025718Y0224984D01*
X0025857Y0224934D01*
X0025994Y0224879D01*
X0026130Y0224821D01*
X0026265Y0224760D01*
X0026398Y0224695D01*
X0026529Y0224626D01*
X0026658Y0224554D01*
X0026785Y0224478D01*
X0026910Y0224399D01*
X0027033Y0224316D01*
X0027154Y0224231D01*
X0027272Y0224142D01*
X0027388Y0224050D01*
X0027501Y0223954D01*
X0027612Y0223856D01*
X0027720Y0223755D01*
X0027826Y0223651D01*
X0027928Y0223545D01*
X0028028Y0223435D01*
X0028124Y0223323D01*
X0028218Y0223208D01*
X0028309Y0223091D01*
X0028396Y0222972D01*
X0028480Y0222850D01*
X0028561Y0222726D01*
X0028638Y0222600D01*
X0028712Y0222472D01*
X0028783Y0222342D01*
X0028850Y0222210D01*
X0028913Y0222076D01*
X0028973Y0221941D01*
X0029029Y0221804D01*
X0029082Y0221665D01*
X0029130Y0221525D01*
X0029175Y0221384D01*
X0029216Y0221242D01*
X0029254Y0221099D01*
X0029287Y0220955D01*
X0029317Y0220810D01*
X0029343Y0220664D01*
X0029364Y0220518D01*
X0029382Y0220371D01*
X0029396Y0220224D01*
X0029406Y0220076D01*
X0029412Y0219928D01*
X0029414Y0219780D01*
X0029412Y0219632D01*
X0029406Y0219484D01*
X0029396Y0219336D01*
X0029382Y0219189D01*
X0029364Y0219042D01*
X0029343Y0218896D01*
X0029317Y0218750D01*
X0029287Y0218605D01*
X0029254Y0218461D01*
X0029216Y0218318D01*
X0029175Y0218176D01*
X0029130Y0218035D01*
X0029082Y0217895D01*
X0029029Y0217756D01*
X0028973Y0217619D01*
X0028913Y0217484D01*
X0028850Y0217350D01*
X0028783Y0217218D01*
X0028712Y0217088D01*
X0028638Y0216960D01*
X0028561Y0216834D01*
X0028480Y0216710D01*
X0028396Y0216588D01*
X0028309Y0216469D01*
X0028218Y0216352D01*
X0028124Y0216237D01*
X0028028Y0216125D01*
X0027928Y0216015D01*
X0027826Y0215909D01*
X0027720Y0215805D01*
X0027612Y0215704D01*
X0027501Y0215606D01*
X0027388Y0215510D01*
X0027272Y0215418D01*
X0027154Y0215329D01*
X0027033Y0215244D01*
X0026910Y0215161D01*
X0026785Y0215082D01*
X0026658Y0215006D01*
X0026529Y0214934D01*
X0026398Y0214865D01*
X0026265Y0214800D01*
X0026130Y0214739D01*
X0025994Y0214681D01*
X0025857Y0214626D01*
X0025718Y0214576D01*
X0025577Y0214529D01*
X0025436Y0214486D01*
X0025293Y0214446D01*
X0025149Y0214411D01*
X0025005Y0214379D01*
X0024859Y0214352D01*
X0024713Y0214328D01*
X0024566Y0214308D01*
X0024419Y0214292D01*
X0024272Y0214280D01*
X0024124Y0214272D01*
X0023976Y0214268D01*
X0023828Y0214268D01*
X0023680Y0214272D01*
X0023532Y0214280D01*
X0023385Y0214292D01*
X0023238Y0214308D01*
X0023091Y0214328D01*
X0022945Y0214352D01*
X0022799Y0214379D01*
X0022655Y0214411D01*
X0022511Y0214446D01*
X0022368Y0214486D01*
X0022227Y0214529D01*
X0022086Y0214576D01*
X0021947Y0214626D01*
X0021810Y0214681D01*
X0021674Y0214739D01*
X0021539Y0214800D01*
X0021406Y0214865D01*
X0021275Y0214934D01*
X0021146Y0215006D01*
X0021019Y0215082D01*
X0020894Y0215161D01*
X0020771Y0215244D01*
X0020650Y0215329D01*
X0020532Y0215418D01*
X0020416Y0215510D01*
X0020303Y0215606D01*
X0020192Y0215704D01*
X0020084Y0215805D01*
X0019978Y0215909D01*
X0019876Y0216015D01*
X0019776Y0216125D01*
X0019680Y0216237D01*
X0019586Y0216352D01*
X0019495Y0216469D01*
X0019408Y0216588D01*
X0019324Y0216710D01*
X0019243Y0216834D01*
X0019166Y0216960D01*
X0019092Y0217088D01*
X0019021Y0217218D01*
X0018954Y0217350D01*
X0018891Y0217484D01*
X0018831Y0217619D01*
X0018775Y0217756D01*
X0018722Y0217895D01*
X0018674Y0218035D01*
X0018629Y0218176D01*
X0018588Y0218318D01*
X0018550Y0218461D01*
X0018517Y0218605D01*
X0018487Y0218750D01*
X0018461Y0218896D01*
X0018440Y0219042D01*
X0018422Y0219189D01*
X0018408Y0219336D01*
X0018398Y0219484D01*
X0018392Y0219632D01*
X0018390Y0219780D01*
X0246736Y0219780D02*
X0246738Y0219928D01*
X0246744Y0220076D01*
X0246754Y0220224D01*
X0246768Y0220371D01*
X0246786Y0220518D01*
X0246807Y0220664D01*
X0246833Y0220810D01*
X0246863Y0220955D01*
X0246896Y0221099D01*
X0246934Y0221242D01*
X0246975Y0221384D01*
X0247020Y0221525D01*
X0247068Y0221665D01*
X0247121Y0221804D01*
X0247177Y0221941D01*
X0247237Y0222076D01*
X0247300Y0222210D01*
X0247367Y0222342D01*
X0247438Y0222472D01*
X0247512Y0222600D01*
X0247589Y0222726D01*
X0247670Y0222850D01*
X0247754Y0222972D01*
X0247841Y0223091D01*
X0247932Y0223208D01*
X0248026Y0223323D01*
X0248122Y0223435D01*
X0248222Y0223545D01*
X0248324Y0223651D01*
X0248430Y0223755D01*
X0248538Y0223856D01*
X0248649Y0223954D01*
X0248762Y0224050D01*
X0248878Y0224142D01*
X0248996Y0224231D01*
X0249117Y0224316D01*
X0249240Y0224399D01*
X0249365Y0224478D01*
X0249492Y0224554D01*
X0249621Y0224626D01*
X0249752Y0224695D01*
X0249885Y0224760D01*
X0250020Y0224821D01*
X0250156Y0224879D01*
X0250293Y0224934D01*
X0250432Y0224984D01*
X0250573Y0225031D01*
X0250714Y0225074D01*
X0250857Y0225114D01*
X0251001Y0225149D01*
X0251145Y0225181D01*
X0251291Y0225208D01*
X0251437Y0225232D01*
X0251584Y0225252D01*
X0251731Y0225268D01*
X0251878Y0225280D01*
X0252026Y0225288D01*
X0252174Y0225292D01*
X0252322Y0225292D01*
X0252470Y0225288D01*
X0252618Y0225280D01*
X0252765Y0225268D01*
X0252912Y0225252D01*
X0253059Y0225232D01*
X0253205Y0225208D01*
X0253351Y0225181D01*
X0253495Y0225149D01*
X0253639Y0225114D01*
X0253782Y0225074D01*
X0253923Y0225031D01*
X0254064Y0224984D01*
X0254203Y0224934D01*
X0254340Y0224879D01*
X0254476Y0224821D01*
X0254611Y0224760D01*
X0254744Y0224695D01*
X0254875Y0224626D01*
X0255004Y0224554D01*
X0255131Y0224478D01*
X0255256Y0224399D01*
X0255379Y0224316D01*
X0255500Y0224231D01*
X0255618Y0224142D01*
X0255734Y0224050D01*
X0255847Y0223954D01*
X0255958Y0223856D01*
X0256066Y0223755D01*
X0256172Y0223651D01*
X0256274Y0223545D01*
X0256374Y0223435D01*
X0256470Y0223323D01*
X0256564Y0223208D01*
X0256655Y0223091D01*
X0256742Y0222972D01*
X0256826Y0222850D01*
X0256907Y0222726D01*
X0256984Y0222600D01*
X0257058Y0222472D01*
X0257129Y0222342D01*
X0257196Y0222210D01*
X0257259Y0222076D01*
X0257319Y0221941D01*
X0257375Y0221804D01*
X0257428Y0221665D01*
X0257476Y0221525D01*
X0257521Y0221384D01*
X0257562Y0221242D01*
X0257600Y0221099D01*
X0257633Y0220955D01*
X0257663Y0220810D01*
X0257689Y0220664D01*
X0257710Y0220518D01*
X0257728Y0220371D01*
X0257742Y0220224D01*
X0257752Y0220076D01*
X0257758Y0219928D01*
X0257760Y0219780D01*
X0257758Y0219632D01*
X0257752Y0219484D01*
X0257742Y0219336D01*
X0257728Y0219189D01*
X0257710Y0219042D01*
X0257689Y0218896D01*
X0257663Y0218750D01*
X0257633Y0218605D01*
X0257600Y0218461D01*
X0257562Y0218318D01*
X0257521Y0218176D01*
X0257476Y0218035D01*
X0257428Y0217895D01*
X0257375Y0217756D01*
X0257319Y0217619D01*
X0257259Y0217484D01*
X0257196Y0217350D01*
X0257129Y0217218D01*
X0257058Y0217088D01*
X0256984Y0216960D01*
X0256907Y0216834D01*
X0256826Y0216710D01*
X0256742Y0216588D01*
X0256655Y0216469D01*
X0256564Y0216352D01*
X0256470Y0216237D01*
X0256374Y0216125D01*
X0256274Y0216015D01*
X0256172Y0215909D01*
X0256066Y0215805D01*
X0255958Y0215704D01*
X0255847Y0215606D01*
X0255734Y0215510D01*
X0255618Y0215418D01*
X0255500Y0215329D01*
X0255379Y0215244D01*
X0255256Y0215161D01*
X0255131Y0215082D01*
X0255004Y0215006D01*
X0254875Y0214934D01*
X0254744Y0214865D01*
X0254611Y0214800D01*
X0254476Y0214739D01*
X0254340Y0214681D01*
X0254203Y0214626D01*
X0254064Y0214576D01*
X0253923Y0214529D01*
X0253782Y0214486D01*
X0253639Y0214446D01*
X0253495Y0214411D01*
X0253351Y0214379D01*
X0253205Y0214352D01*
X0253059Y0214328D01*
X0252912Y0214308D01*
X0252765Y0214292D01*
X0252618Y0214280D01*
X0252470Y0214272D01*
X0252322Y0214268D01*
X0252174Y0214268D01*
X0252026Y0214272D01*
X0251878Y0214280D01*
X0251731Y0214292D01*
X0251584Y0214308D01*
X0251437Y0214328D01*
X0251291Y0214352D01*
X0251145Y0214379D01*
X0251001Y0214411D01*
X0250857Y0214446D01*
X0250714Y0214486D01*
X0250573Y0214529D01*
X0250432Y0214576D01*
X0250293Y0214626D01*
X0250156Y0214681D01*
X0250020Y0214739D01*
X0249885Y0214800D01*
X0249752Y0214865D01*
X0249621Y0214934D01*
X0249492Y0215006D01*
X0249365Y0215082D01*
X0249240Y0215161D01*
X0249117Y0215244D01*
X0248996Y0215329D01*
X0248878Y0215418D01*
X0248762Y0215510D01*
X0248649Y0215606D01*
X0248538Y0215704D01*
X0248430Y0215805D01*
X0248324Y0215909D01*
X0248222Y0216015D01*
X0248122Y0216125D01*
X0248026Y0216237D01*
X0247932Y0216352D01*
X0247841Y0216469D01*
X0247754Y0216588D01*
X0247670Y0216710D01*
X0247589Y0216834D01*
X0247512Y0216960D01*
X0247438Y0217088D01*
X0247367Y0217218D01*
X0247300Y0217350D01*
X0247237Y0217484D01*
X0247177Y0217619D01*
X0247121Y0217756D01*
X0247068Y0217895D01*
X0247020Y0218035D01*
X0246975Y0218176D01*
X0246934Y0218318D01*
X0246896Y0218461D01*
X0246863Y0218605D01*
X0246833Y0218750D01*
X0246807Y0218896D01*
X0246786Y0219042D01*
X0246768Y0219189D01*
X0246754Y0219336D01*
X0246744Y0219484D01*
X0246738Y0219632D01*
X0246736Y0219780D01*
X0321146Y0182379D02*
X0321148Y0182504D01*
X0321154Y0182629D01*
X0321164Y0182753D01*
X0321178Y0182877D01*
X0321195Y0183001D01*
X0321217Y0183124D01*
X0321243Y0183246D01*
X0321272Y0183368D01*
X0321305Y0183488D01*
X0321343Y0183607D01*
X0321383Y0183726D01*
X0321428Y0183842D01*
X0321476Y0183957D01*
X0321528Y0184071D01*
X0321584Y0184183D01*
X0321643Y0184293D01*
X0321705Y0184401D01*
X0321771Y0184508D01*
X0321840Y0184612D01*
X0321913Y0184713D01*
X0321988Y0184813D01*
X0322067Y0184910D01*
X0322149Y0185004D01*
X0322234Y0185096D01*
X0322321Y0185185D01*
X0322412Y0185271D01*
X0322505Y0185354D01*
X0322601Y0185435D01*
X0322699Y0185512D01*
X0322799Y0185586D01*
X0322902Y0185657D01*
X0323007Y0185724D01*
X0323115Y0185789D01*
X0323224Y0185849D01*
X0323335Y0185907D01*
X0323448Y0185960D01*
X0323562Y0186010D01*
X0323678Y0186057D01*
X0323795Y0186099D01*
X0323914Y0186138D01*
X0324034Y0186174D01*
X0324155Y0186205D01*
X0324277Y0186233D01*
X0324399Y0186256D01*
X0324523Y0186276D01*
X0324647Y0186292D01*
X0324771Y0186304D01*
X0324896Y0186312D01*
X0325021Y0186316D01*
X0325145Y0186316D01*
X0325270Y0186312D01*
X0325395Y0186304D01*
X0325519Y0186292D01*
X0325643Y0186276D01*
X0325767Y0186256D01*
X0325889Y0186233D01*
X0326011Y0186205D01*
X0326132Y0186174D01*
X0326252Y0186138D01*
X0326371Y0186099D01*
X0326488Y0186057D01*
X0326604Y0186010D01*
X0326718Y0185960D01*
X0326831Y0185907D01*
X0326942Y0185849D01*
X0327052Y0185789D01*
X0327159Y0185724D01*
X0327264Y0185657D01*
X0327367Y0185586D01*
X0327467Y0185512D01*
X0327565Y0185435D01*
X0327661Y0185354D01*
X0327754Y0185271D01*
X0327845Y0185185D01*
X0327932Y0185096D01*
X0328017Y0185004D01*
X0328099Y0184910D01*
X0328178Y0184813D01*
X0328253Y0184713D01*
X0328326Y0184612D01*
X0328395Y0184508D01*
X0328461Y0184401D01*
X0328523Y0184293D01*
X0328582Y0184183D01*
X0328638Y0184071D01*
X0328690Y0183957D01*
X0328738Y0183842D01*
X0328783Y0183726D01*
X0328823Y0183607D01*
X0328861Y0183488D01*
X0328894Y0183368D01*
X0328923Y0183246D01*
X0328949Y0183124D01*
X0328971Y0183001D01*
X0328988Y0182877D01*
X0329002Y0182753D01*
X0329012Y0182629D01*
X0329018Y0182504D01*
X0329020Y0182379D01*
X0329018Y0182254D01*
X0329012Y0182129D01*
X0329002Y0182005D01*
X0328988Y0181881D01*
X0328971Y0181757D01*
X0328949Y0181634D01*
X0328923Y0181512D01*
X0328894Y0181390D01*
X0328861Y0181270D01*
X0328823Y0181151D01*
X0328783Y0181032D01*
X0328738Y0180916D01*
X0328690Y0180801D01*
X0328638Y0180687D01*
X0328582Y0180575D01*
X0328523Y0180465D01*
X0328461Y0180357D01*
X0328395Y0180250D01*
X0328326Y0180146D01*
X0328253Y0180045D01*
X0328178Y0179945D01*
X0328099Y0179848D01*
X0328017Y0179754D01*
X0327932Y0179662D01*
X0327845Y0179573D01*
X0327754Y0179487D01*
X0327661Y0179404D01*
X0327565Y0179323D01*
X0327467Y0179246D01*
X0327367Y0179172D01*
X0327264Y0179101D01*
X0327159Y0179034D01*
X0327051Y0178969D01*
X0326942Y0178909D01*
X0326831Y0178851D01*
X0326718Y0178798D01*
X0326604Y0178748D01*
X0326488Y0178701D01*
X0326371Y0178659D01*
X0326252Y0178620D01*
X0326132Y0178584D01*
X0326011Y0178553D01*
X0325889Y0178525D01*
X0325767Y0178502D01*
X0325643Y0178482D01*
X0325519Y0178466D01*
X0325395Y0178454D01*
X0325270Y0178446D01*
X0325145Y0178442D01*
X0325021Y0178442D01*
X0324896Y0178446D01*
X0324771Y0178454D01*
X0324647Y0178466D01*
X0324523Y0178482D01*
X0324399Y0178502D01*
X0324277Y0178525D01*
X0324155Y0178553D01*
X0324034Y0178584D01*
X0323914Y0178620D01*
X0323795Y0178659D01*
X0323678Y0178701D01*
X0323562Y0178748D01*
X0323448Y0178798D01*
X0323335Y0178851D01*
X0323224Y0178909D01*
X0323114Y0178969D01*
X0323007Y0179034D01*
X0322902Y0179101D01*
X0322799Y0179172D01*
X0322699Y0179246D01*
X0322601Y0179323D01*
X0322505Y0179404D01*
X0322412Y0179487D01*
X0322321Y0179573D01*
X0322234Y0179662D01*
X0322149Y0179754D01*
X0322067Y0179848D01*
X0321988Y0179945D01*
X0321913Y0180045D01*
X0321840Y0180146D01*
X0321771Y0180250D01*
X0321705Y0180357D01*
X0321643Y0180465D01*
X0321584Y0180575D01*
X0321528Y0180687D01*
X0321476Y0180801D01*
X0321428Y0180916D01*
X0321383Y0181032D01*
X0321343Y0181151D01*
X0321305Y0181270D01*
X0321272Y0181390D01*
X0321243Y0181512D01*
X0321217Y0181634D01*
X0321195Y0181757D01*
X0321178Y0181881D01*
X0321164Y0182005D01*
X0321154Y0182129D01*
X0321148Y0182254D01*
X0321146Y0182379D01*
X0360516Y0182379D02*
X0360518Y0182504D01*
X0360524Y0182629D01*
X0360534Y0182753D01*
X0360548Y0182877D01*
X0360565Y0183001D01*
X0360587Y0183124D01*
X0360613Y0183246D01*
X0360642Y0183368D01*
X0360675Y0183488D01*
X0360713Y0183607D01*
X0360753Y0183726D01*
X0360798Y0183842D01*
X0360846Y0183957D01*
X0360898Y0184071D01*
X0360954Y0184183D01*
X0361013Y0184293D01*
X0361075Y0184401D01*
X0361141Y0184508D01*
X0361210Y0184612D01*
X0361283Y0184713D01*
X0361358Y0184813D01*
X0361437Y0184910D01*
X0361519Y0185004D01*
X0361604Y0185096D01*
X0361691Y0185185D01*
X0361782Y0185271D01*
X0361875Y0185354D01*
X0361971Y0185435D01*
X0362069Y0185512D01*
X0362169Y0185586D01*
X0362272Y0185657D01*
X0362377Y0185724D01*
X0362485Y0185789D01*
X0362594Y0185849D01*
X0362705Y0185907D01*
X0362818Y0185960D01*
X0362932Y0186010D01*
X0363048Y0186057D01*
X0363165Y0186099D01*
X0363284Y0186138D01*
X0363404Y0186174D01*
X0363525Y0186205D01*
X0363647Y0186233D01*
X0363769Y0186256D01*
X0363893Y0186276D01*
X0364017Y0186292D01*
X0364141Y0186304D01*
X0364266Y0186312D01*
X0364391Y0186316D01*
X0364515Y0186316D01*
X0364640Y0186312D01*
X0364765Y0186304D01*
X0364889Y0186292D01*
X0365013Y0186276D01*
X0365137Y0186256D01*
X0365259Y0186233D01*
X0365381Y0186205D01*
X0365502Y0186174D01*
X0365622Y0186138D01*
X0365741Y0186099D01*
X0365858Y0186057D01*
X0365974Y0186010D01*
X0366088Y0185960D01*
X0366201Y0185907D01*
X0366312Y0185849D01*
X0366422Y0185789D01*
X0366529Y0185724D01*
X0366634Y0185657D01*
X0366737Y0185586D01*
X0366837Y0185512D01*
X0366935Y0185435D01*
X0367031Y0185354D01*
X0367124Y0185271D01*
X0367215Y0185185D01*
X0367302Y0185096D01*
X0367387Y0185004D01*
X0367469Y0184910D01*
X0367548Y0184813D01*
X0367623Y0184713D01*
X0367696Y0184612D01*
X0367765Y0184508D01*
X0367831Y0184401D01*
X0367893Y0184293D01*
X0367952Y0184183D01*
X0368008Y0184071D01*
X0368060Y0183957D01*
X0368108Y0183842D01*
X0368153Y0183726D01*
X0368193Y0183607D01*
X0368231Y0183488D01*
X0368264Y0183368D01*
X0368293Y0183246D01*
X0368319Y0183124D01*
X0368341Y0183001D01*
X0368358Y0182877D01*
X0368372Y0182753D01*
X0368382Y0182629D01*
X0368388Y0182504D01*
X0368390Y0182379D01*
X0368388Y0182254D01*
X0368382Y0182129D01*
X0368372Y0182005D01*
X0368358Y0181881D01*
X0368341Y0181757D01*
X0368319Y0181634D01*
X0368293Y0181512D01*
X0368264Y0181390D01*
X0368231Y0181270D01*
X0368193Y0181151D01*
X0368153Y0181032D01*
X0368108Y0180916D01*
X0368060Y0180801D01*
X0368008Y0180687D01*
X0367952Y0180575D01*
X0367893Y0180465D01*
X0367831Y0180357D01*
X0367765Y0180250D01*
X0367696Y0180146D01*
X0367623Y0180045D01*
X0367548Y0179945D01*
X0367469Y0179848D01*
X0367387Y0179754D01*
X0367302Y0179662D01*
X0367215Y0179573D01*
X0367124Y0179487D01*
X0367031Y0179404D01*
X0366935Y0179323D01*
X0366837Y0179246D01*
X0366737Y0179172D01*
X0366634Y0179101D01*
X0366529Y0179034D01*
X0366421Y0178969D01*
X0366312Y0178909D01*
X0366201Y0178851D01*
X0366088Y0178798D01*
X0365974Y0178748D01*
X0365858Y0178701D01*
X0365741Y0178659D01*
X0365622Y0178620D01*
X0365502Y0178584D01*
X0365381Y0178553D01*
X0365259Y0178525D01*
X0365137Y0178502D01*
X0365013Y0178482D01*
X0364889Y0178466D01*
X0364765Y0178454D01*
X0364640Y0178446D01*
X0364515Y0178442D01*
X0364391Y0178442D01*
X0364266Y0178446D01*
X0364141Y0178454D01*
X0364017Y0178466D01*
X0363893Y0178482D01*
X0363769Y0178502D01*
X0363647Y0178525D01*
X0363525Y0178553D01*
X0363404Y0178584D01*
X0363284Y0178620D01*
X0363165Y0178659D01*
X0363048Y0178701D01*
X0362932Y0178748D01*
X0362818Y0178798D01*
X0362705Y0178851D01*
X0362594Y0178909D01*
X0362484Y0178969D01*
X0362377Y0179034D01*
X0362272Y0179101D01*
X0362169Y0179172D01*
X0362069Y0179246D01*
X0361971Y0179323D01*
X0361875Y0179404D01*
X0361782Y0179487D01*
X0361691Y0179573D01*
X0361604Y0179662D01*
X0361519Y0179754D01*
X0361437Y0179848D01*
X0361358Y0179945D01*
X0361283Y0180045D01*
X0361210Y0180146D01*
X0361141Y0180250D01*
X0361075Y0180357D01*
X0361013Y0180465D01*
X0360954Y0180575D01*
X0360898Y0180687D01*
X0360846Y0180801D01*
X0360798Y0180916D01*
X0360753Y0181032D01*
X0360713Y0181151D01*
X0360675Y0181270D01*
X0360642Y0181390D01*
X0360613Y0181512D01*
X0360587Y0181634D01*
X0360565Y0181757D01*
X0360548Y0181881D01*
X0360534Y0182005D01*
X0360524Y0182129D01*
X0360518Y0182254D01*
X0360516Y0182379D01*
X0246736Y0026867D02*
X0246738Y0027015D01*
X0246744Y0027163D01*
X0246754Y0027311D01*
X0246768Y0027458D01*
X0246786Y0027605D01*
X0246807Y0027751D01*
X0246833Y0027897D01*
X0246863Y0028042D01*
X0246896Y0028186D01*
X0246934Y0028329D01*
X0246975Y0028471D01*
X0247020Y0028612D01*
X0247068Y0028752D01*
X0247121Y0028891D01*
X0247177Y0029028D01*
X0247237Y0029163D01*
X0247300Y0029297D01*
X0247367Y0029429D01*
X0247438Y0029559D01*
X0247512Y0029687D01*
X0247589Y0029813D01*
X0247670Y0029937D01*
X0247754Y0030059D01*
X0247841Y0030178D01*
X0247932Y0030295D01*
X0248026Y0030410D01*
X0248122Y0030522D01*
X0248222Y0030632D01*
X0248324Y0030738D01*
X0248430Y0030842D01*
X0248538Y0030943D01*
X0248649Y0031041D01*
X0248762Y0031137D01*
X0248878Y0031229D01*
X0248996Y0031318D01*
X0249117Y0031403D01*
X0249240Y0031486D01*
X0249365Y0031565D01*
X0249492Y0031641D01*
X0249621Y0031713D01*
X0249752Y0031782D01*
X0249885Y0031847D01*
X0250020Y0031908D01*
X0250156Y0031966D01*
X0250293Y0032021D01*
X0250432Y0032071D01*
X0250573Y0032118D01*
X0250714Y0032161D01*
X0250857Y0032201D01*
X0251001Y0032236D01*
X0251145Y0032268D01*
X0251291Y0032295D01*
X0251437Y0032319D01*
X0251584Y0032339D01*
X0251731Y0032355D01*
X0251878Y0032367D01*
X0252026Y0032375D01*
X0252174Y0032379D01*
X0252322Y0032379D01*
X0252470Y0032375D01*
X0252618Y0032367D01*
X0252765Y0032355D01*
X0252912Y0032339D01*
X0253059Y0032319D01*
X0253205Y0032295D01*
X0253351Y0032268D01*
X0253495Y0032236D01*
X0253639Y0032201D01*
X0253782Y0032161D01*
X0253923Y0032118D01*
X0254064Y0032071D01*
X0254203Y0032021D01*
X0254340Y0031966D01*
X0254476Y0031908D01*
X0254611Y0031847D01*
X0254744Y0031782D01*
X0254875Y0031713D01*
X0255004Y0031641D01*
X0255131Y0031565D01*
X0255256Y0031486D01*
X0255379Y0031403D01*
X0255500Y0031318D01*
X0255618Y0031229D01*
X0255734Y0031137D01*
X0255847Y0031041D01*
X0255958Y0030943D01*
X0256066Y0030842D01*
X0256172Y0030738D01*
X0256274Y0030632D01*
X0256374Y0030522D01*
X0256470Y0030410D01*
X0256564Y0030295D01*
X0256655Y0030178D01*
X0256742Y0030059D01*
X0256826Y0029937D01*
X0256907Y0029813D01*
X0256984Y0029687D01*
X0257058Y0029559D01*
X0257129Y0029429D01*
X0257196Y0029297D01*
X0257259Y0029163D01*
X0257319Y0029028D01*
X0257375Y0028891D01*
X0257428Y0028752D01*
X0257476Y0028612D01*
X0257521Y0028471D01*
X0257562Y0028329D01*
X0257600Y0028186D01*
X0257633Y0028042D01*
X0257663Y0027897D01*
X0257689Y0027751D01*
X0257710Y0027605D01*
X0257728Y0027458D01*
X0257742Y0027311D01*
X0257752Y0027163D01*
X0257758Y0027015D01*
X0257760Y0026867D01*
X0257758Y0026719D01*
X0257752Y0026571D01*
X0257742Y0026423D01*
X0257728Y0026276D01*
X0257710Y0026129D01*
X0257689Y0025983D01*
X0257663Y0025837D01*
X0257633Y0025692D01*
X0257600Y0025548D01*
X0257562Y0025405D01*
X0257521Y0025263D01*
X0257476Y0025122D01*
X0257428Y0024982D01*
X0257375Y0024843D01*
X0257319Y0024706D01*
X0257259Y0024571D01*
X0257196Y0024437D01*
X0257129Y0024305D01*
X0257058Y0024175D01*
X0256984Y0024047D01*
X0256907Y0023921D01*
X0256826Y0023797D01*
X0256742Y0023675D01*
X0256655Y0023556D01*
X0256564Y0023439D01*
X0256470Y0023324D01*
X0256374Y0023212D01*
X0256274Y0023102D01*
X0256172Y0022996D01*
X0256066Y0022892D01*
X0255958Y0022791D01*
X0255847Y0022693D01*
X0255734Y0022597D01*
X0255618Y0022505D01*
X0255500Y0022416D01*
X0255379Y0022331D01*
X0255256Y0022248D01*
X0255131Y0022169D01*
X0255004Y0022093D01*
X0254875Y0022021D01*
X0254744Y0021952D01*
X0254611Y0021887D01*
X0254476Y0021826D01*
X0254340Y0021768D01*
X0254203Y0021713D01*
X0254064Y0021663D01*
X0253923Y0021616D01*
X0253782Y0021573D01*
X0253639Y0021533D01*
X0253495Y0021498D01*
X0253351Y0021466D01*
X0253205Y0021439D01*
X0253059Y0021415D01*
X0252912Y0021395D01*
X0252765Y0021379D01*
X0252618Y0021367D01*
X0252470Y0021359D01*
X0252322Y0021355D01*
X0252174Y0021355D01*
X0252026Y0021359D01*
X0251878Y0021367D01*
X0251731Y0021379D01*
X0251584Y0021395D01*
X0251437Y0021415D01*
X0251291Y0021439D01*
X0251145Y0021466D01*
X0251001Y0021498D01*
X0250857Y0021533D01*
X0250714Y0021573D01*
X0250573Y0021616D01*
X0250432Y0021663D01*
X0250293Y0021713D01*
X0250156Y0021768D01*
X0250020Y0021826D01*
X0249885Y0021887D01*
X0249752Y0021952D01*
X0249621Y0022021D01*
X0249492Y0022093D01*
X0249365Y0022169D01*
X0249240Y0022248D01*
X0249117Y0022331D01*
X0248996Y0022416D01*
X0248878Y0022505D01*
X0248762Y0022597D01*
X0248649Y0022693D01*
X0248538Y0022791D01*
X0248430Y0022892D01*
X0248324Y0022996D01*
X0248222Y0023102D01*
X0248122Y0023212D01*
X0248026Y0023324D01*
X0247932Y0023439D01*
X0247841Y0023556D01*
X0247754Y0023675D01*
X0247670Y0023797D01*
X0247589Y0023921D01*
X0247512Y0024047D01*
X0247438Y0024175D01*
X0247367Y0024305D01*
X0247300Y0024437D01*
X0247237Y0024571D01*
X0247177Y0024706D01*
X0247121Y0024843D01*
X0247068Y0024982D01*
X0247020Y0025122D01*
X0246975Y0025263D01*
X0246934Y0025405D01*
X0246896Y0025548D01*
X0246863Y0025692D01*
X0246833Y0025837D01*
X0246807Y0025983D01*
X0246786Y0026129D01*
X0246768Y0026276D01*
X0246754Y0026423D01*
X0246744Y0026571D01*
X0246738Y0026719D01*
X0246736Y0026867D01*
X0321146Y0024898D02*
X0321148Y0025023D01*
X0321154Y0025148D01*
X0321164Y0025272D01*
X0321178Y0025396D01*
X0321195Y0025520D01*
X0321217Y0025643D01*
X0321243Y0025765D01*
X0321272Y0025887D01*
X0321305Y0026007D01*
X0321343Y0026126D01*
X0321383Y0026245D01*
X0321428Y0026361D01*
X0321476Y0026476D01*
X0321528Y0026590D01*
X0321584Y0026702D01*
X0321643Y0026812D01*
X0321705Y0026920D01*
X0321771Y0027027D01*
X0321840Y0027131D01*
X0321913Y0027232D01*
X0321988Y0027332D01*
X0322067Y0027429D01*
X0322149Y0027523D01*
X0322234Y0027615D01*
X0322321Y0027704D01*
X0322412Y0027790D01*
X0322505Y0027873D01*
X0322601Y0027954D01*
X0322699Y0028031D01*
X0322799Y0028105D01*
X0322902Y0028176D01*
X0323007Y0028243D01*
X0323115Y0028308D01*
X0323224Y0028368D01*
X0323335Y0028426D01*
X0323448Y0028479D01*
X0323562Y0028529D01*
X0323678Y0028576D01*
X0323795Y0028618D01*
X0323914Y0028657D01*
X0324034Y0028693D01*
X0324155Y0028724D01*
X0324277Y0028752D01*
X0324399Y0028775D01*
X0324523Y0028795D01*
X0324647Y0028811D01*
X0324771Y0028823D01*
X0324896Y0028831D01*
X0325021Y0028835D01*
X0325145Y0028835D01*
X0325270Y0028831D01*
X0325395Y0028823D01*
X0325519Y0028811D01*
X0325643Y0028795D01*
X0325767Y0028775D01*
X0325889Y0028752D01*
X0326011Y0028724D01*
X0326132Y0028693D01*
X0326252Y0028657D01*
X0326371Y0028618D01*
X0326488Y0028576D01*
X0326604Y0028529D01*
X0326718Y0028479D01*
X0326831Y0028426D01*
X0326942Y0028368D01*
X0327052Y0028308D01*
X0327159Y0028243D01*
X0327264Y0028176D01*
X0327367Y0028105D01*
X0327467Y0028031D01*
X0327565Y0027954D01*
X0327661Y0027873D01*
X0327754Y0027790D01*
X0327845Y0027704D01*
X0327932Y0027615D01*
X0328017Y0027523D01*
X0328099Y0027429D01*
X0328178Y0027332D01*
X0328253Y0027232D01*
X0328326Y0027131D01*
X0328395Y0027027D01*
X0328461Y0026920D01*
X0328523Y0026812D01*
X0328582Y0026702D01*
X0328638Y0026590D01*
X0328690Y0026476D01*
X0328738Y0026361D01*
X0328783Y0026245D01*
X0328823Y0026126D01*
X0328861Y0026007D01*
X0328894Y0025887D01*
X0328923Y0025765D01*
X0328949Y0025643D01*
X0328971Y0025520D01*
X0328988Y0025396D01*
X0329002Y0025272D01*
X0329012Y0025148D01*
X0329018Y0025023D01*
X0329020Y0024898D01*
X0329018Y0024773D01*
X0329012Y0024648D01*
X0329002Y0024524D01*
X0328988Y0024400D01*
X0328971Y0024276D01*
X0328949Y0024153D01*
X0328923Y0024031D01*
X0328894Y0023909D01*
X0328861Y0023789D01*
X0328823Y0023670D01*
X0328783Y0023551D01*
X0328738Y0023435D01*
X0328690Y0023320D01*
X0328638Y0023206D01*
X0328582Y0023094D01*
X0328523Y0022984D01*
X0328461Y0022876D01*
X0328395Y0022769D01*
X0328326Y0022665D01*
X0328253Y0022564D01*
X0328178Y0022464D01*
X0328099Y0022367D01*
X0328017Y0022273D01*
X0327932Y0022181D01*
X0327845Y0022092D01*
X0327754Y0022006D01*
X0327661Y0021923D01*
X0327565Y0021842D01*
X0327467Y0021765D01*
X0327367Y0021691D01*
X0327264Y0021620D01*
X0327159Y0021553D01*
X0327051Y0021488D01*
X0326942Y0021428D01*
X0326831Y0021370D01*
X0326718Y0021317D01*
X0326604Y0021267D01*
X0326488Y0021220D01*
X0326371Y0021178D01*
X0326252Y0021139D01*
X0326132Y0021103D01*
X0326011Y0021072D01*
X0325889Y0021044D01*
X0325767Y0021021D01*
X0325643Y0021001D01*
X0325519Y0020985D01*
X0325395Y0020973D01*
X0325270Y0020965D01*
X0325145Y0020961D01*
X0325021Y0020961D01*
X0324896Y0020965D01*
X0324771Y0020973D01*
X0324647Y0020985D01*
X0324523Y0021001D01*
X0324399Y0021021D01*
X0324277Y0021044D01*
X0324155Y0021072D01*
X0324034Y0021103D01*
X0323914Y0021139D01*
X0323795Y0021178D01*
X0323678Y0021220D01*
X0323562Y0021267D01*
X0323448Y0021317D01*
X0323335Y0021370D01*
X0323224Y0021428D01*
X0323114Y0021488D01*
X0323007Y0021553D01*
X0322902Y0021620D01*
X0322799Y0021691D01*
X0322699Y0021765D01*
X0322601Y0021842D01*
X0322505Y0021923D01*
X0322412Y0022006D01*
X0322321Y0022092D01*
X0322234Y0022181D01*
X0322149Y0022273D01*
X0322067Y0022367D01*
X0321988Y0022464D01*
X0321913Y0022564D01*
X0321840Y0022665D01*
X0321771Y0022769D01*
X0321705Y0022876D01*
X0321643Y0022984D01*
X0321584Y0023094D01*
X0321528Y0023206D01*
X0321476Y0023320D01*
X0321428Y0023435D01*
X0321383Y0023551D01*
X0321343Y0023670D01*
X0321305Y0023789D01*
X0321272Y0023909D01*
X0321243Y0024031D01*
X0321217Y0024153D01*
X0321195Y0024276D01*
X0321178Y0024400D01*
X0321164Y0024524D01*
X0321154Y0024648D01*
X0321148Y0024773D01*
X0321146Y0024898D01*
X0360516Y0024898D02*
X0360518Y0025023D01*
X0360524Y0025148D01*
X0360534Y0025272D01*
X0360548Y0025396D01*
X0360565Y0025520D01*
X0360587Y0025643D01*
X0360613Y0025765D01*
X0360642Y0025887D01*
X0360675Y0026007D01*
X0360713Y0026126D01*
X0360753Y0026245D01*
X0360798Y0026361D01*
X0360846Y0026476D01*
X0360898Y0026590D01*
X0360954Y0026702D01*
X0361013Y0026812D01*
X0361075Y0026920D01*
X0361141Y0027027D01*
X0361210Y0027131D01*
X0361283Y0027232D01*
X0361358Y0027332D01*
X0361437Y0027429D01*
X0361519Y0027523D01*
X0361604Y0027615D01*
X0361691Y0027704D01*
X0361782Y0027790D01*
X0361875Y0027873D01*
X0361971Y0027954D01*
X0362069Y0028031D01*
X0362169Y0028105D01*
X0362272Y0028176D01*
X0362377Y0028243D01*
X0362485Y0028308D01*
X0362594Y0028368D01*
X0362705Y0028426D01*
X0362818Y0028479D01*
X0362932Y0028529D01*
X0363048Y0028576D01*
X0363165Y0028618D01*
X0363284Y0028657D01*
X0363404Y0028693D01*
X0363525Y0028724D01*
X0363647Y0028752D01*
X0363769Y0028775D01*
X0363893Y0028795D01*
X0364017Y0028811D01*
X0364141Y0028823D01*
X0364266Y0028831D01*
X0364391Y0028835D01*
X0364515Y0028835D01*
X0364640Y0028831D01*
X0364765Y0028823D01*
X0364889Y0028811D01*
X0365013Y0028795D01*
X0365137Y0028775D01*
X0365259Y0028752D01*
X0365381Y0028724D01*
X0365502Y0028693D01*
X0365622Y0028657D01*
X0365741Y0028618D01*
X0365858Y0028576D01*
X0365974Y0028529D01*
X0366088Y0028479D01*
X0366201Y0028426D01*
X0366312Y0028368D01*
X0366422Y0028308D01*
X0366529Y0028243D01*
X0366634Y0028176D01*
X0366737Y0028105D01*
X0366837Y0028031D01*
X0366935Y0027954D01*
X0367031Y0027873D01*
X0367124Y0027790D01*
X0367215Y0027704D01*
X0367302Y0027615D01*
X0367387Y0027523D01*
X0367469Y0027429D01*
X0367548Y0027332D01*
X0367623Y0027232D01*
X0367696Y0027131D01*
X0367765Y0027027D01*
X0367831Y0026920D01*
X0367893Y0026812D01*
X0367952Y0026702D01*
X0368008Y0026590D01*
X0368060Y0026476D01*
X0368108Y0026361D01*
X0368153Y0026245D01*
X0368193Y0026126D01*
X0368231Y0026007D01*
X0368264Y0025887D01*
X0368293Y0025765D01*
X0368319Y0025643D01*
X0368341Y0025520D01*
X0368358Y0025396D01*
X0368372Y0025272D01*
X0368382Y0025148D01*
X0368388Y0025023D01*
X0368390Y0024898D01*
X0368388Y0024773D01*
X0368382Y0024648D01*
X0368372Y0024524D01*
X0368358Y0024400D01*
X0368341Y0024276D01*
X0368319Y0024153D01*
X0368293Y0024031D01*
X0368264Y0023909D01*
X0368231Y0023789D01*
X0368193Y0023670D01*
X0368153Y0023551D01*
X0368108Y0023435D01*
X0368060Y0023320D01*
X0368008Y0023206D01*
X0367952Y0023094D01*
X0367893Y0022984D01*
X0367831Y0022876D01*
X0367765Y0022769D01*
X0367696Y0022665D01*
X0367623Y0022564D01*
X0367548Y0022464D01*
X0367469Y0022367D01*
X0367387Y0022273D01*
X0367302Y0022181D01*
X0367215Y0022092D01*
X0367124Y0022006D01*
X0367031Y0021923D01*
X0366935Y0021842D01*
X0366837Y0021765D01*
X0366737Y0021691D01*
X0366634Y0021620D01*
X0366529Y0021553D01*
X0366421Y0021488D01*
X0366312Y0021428D01*
X0366201Y0021370D01*
X0366088Y0021317D01*
X0365974Y0021267D01*
X0365858Y0021220D01*
X0365741Y0021178D01*
X0365622Y0021139D01*
X0365502Y0021103D01*
X0365381Y0021072D01*
X0365259Y0021044D01*
X0365137Y0021021D01*
X0365013Y0021001D01*
X0364889Y0020985D01*
X0364765Y0020973D01*
X0364640Y0020965D01*
X0364515Y0020961D01*
X0364391Y0020961D01*
X0364266Y0020965D01*
X0364141Y0020973D01*
X0364017Y0020985D01*
X0363893Y0021001D01*
X0363769Y0021021D01*
X0363647Y0021044D01*
X0363525Y0021072D01*
X0363404Y0021103D01*
X0363284Y0021139D01*
X0363165Y0021178D01*
X0363048Y0021220D01*
X0362932Y0021267D01*
X0362818Y0021317D01*
X0362705Y0021370D01*
X0362594Y0021428D01*
X0362484Y0021488D01*
X0362377Y0021553D01*
X0362272Y0021620D01*
X0362169Y0021691D01*
X0362069Y0021765D01*
X0361971Y0021842D01*
X0361875Y0021923D01*
X0361782Y0022006D01*
X0361691Y0022092D01*
X0361604Y0022181D01*
X0361519Y0022273D01*
X0361437Y0022367D01*
X0361358Y0022464D01*
X0361283Y0022564D01*
X0361210Y0022665D01*
X0361141Y0022769D01*
X0361075Y0022876D01*
X0361013Y0022984D01*
X0360954Y0023094D01*
X0360898Y0023206D01*
X0360846Y0023320D01*
X0360798Y0023435D01*
X0360753Y0023551D01*
X0360713Y0023670D01*
X0360675Y0023789D01*
X0360642Y0023909D01*
X0360613Y0024031D01*
X0360587Y0024153D01*
X0360565Y0024276D01*
X0360548Y0024400D01*
X0360534Y0024524D01*
X0360524Y0024648D01*
X0360518Y0024773D01*
X0360516Y0024898D01*
D11*
X0371146Y0013087D02*
X0371336Y0013089D01*
X0371526Y0013096D01*
X0371716Y0013108D01*
X0371906Y0013124D01*
X0372095Y0013144D01*
X0372284Y0013170D01*
X0372472Y0013199D01*
X0372659Y0013234D01*
X0372845Y0013273D01*
X0373030Y0013316D01*
X0373215Y0013364D01*
X0373398Y0013416D01*
X0373579Y0013472D01*
X0373759Y0013533D01*
X0373938Y0013599D01*
X0374115Y0013668D01*
X0374291Y0013742D01*
X0374464Y0013820D01*
X0374636Y0013903D01*
X0374805Y0013989D01*
X0374973Y0014079D01*
X0375138Y0014174D01*
X0375301Y0014272D01*
X0375461Y0014375D01*
X0375619Y0014481D01*
X0375774Y0014591D01*
X0375927Y0014704D01*
X0376077Y0014822D01*
X0376223Y0014943D01*
X0376367Y0015067D01*
X0376508Y0015195D01*
X0376646Y0015326D01*
X0376781Y0015461D01*
X0376912Y0015599D01*
X0377040Y0015740D01*
X0377164Y0015884D01*
X0377285Y0016030D01*
X0377403Y0016180D01*
X0377516Y0016333D01*
X0377626Y0016488D01*
X0377732Y0016646D01*
X0377835Y0016806D01*
X0377933Y0016969D01*
X0378028Y0017134D01*
X0378118Y0017302D01*
X0378204Y0017471D01*
X0378287Y0017643D01*
X0378365Y0017816D01*
X0378439Y0017992D01*
X0378508Y0018169D01*
X0378574Y0018348D01*
X0378635Y0018528D01*
X0378691Y0018709D01*
X0378743Y0018892D01*
X0378791Y0019077D01*
X0378834Y0019262D01*
X0378873Y0019448D01*
X0378908Y0019635D01*
X0378937Y0019823D01*
X0378963Y0020012D01*
X0378983Y0020201D01*
X0378999Y0020391D01*
X0379011Y0020581D01*
X0379018Y0020771D01*
X0379020Y0020961D01*
X0379020Y0186316D01*
X0379018Y0186506D01*
X0379011Y0186696D01*
X0378999Y0186886D01*
X0378983Y0187076D01*
X0378963Y0187265D01*
X0378937Y0187454D01*
X0378908Y0187642D01*
X0378873Y0187829D01*
X0378834Y0188015D01*
X0378791Y0188200D01*
X0378743Y0188385D01*
X0378691Y0188568D01*
X0378635Y0188749D01*
X0378574Y0188929D01*
X0378508Y0189108D01*
X0378439Y0189285D01*
X0378365Y0189461D01*
X0378287Y0189634D01*
X0378204Y0189806D01*
X0378118Y0189975D01*
X0378028Y0190143D01*
X0377933Y0190308D01*
X0377835Y0190471D01*
X0377732Y0190631D01*
X0377626Y0190789D01*
X0377516Y0190944D01*
X0377403Y0191097D01*
X0377285Y0191247D01*
X0377164Y0191393D01*
X0377040Y0191537D01*
X0376912Y0191678D01*
X0376781Y0191816D01*
X0376646Y0191951D01*
X0376508Y0192082D01*
X0376367Y0192210D01*
X0376223Y0192334D01*
X0376077Y0192455D01*
X0375927Y0192573D01*
X0375774Y0192686D01*
X0375619Y0192796D01*
X0375461Y0192902D01*
X0375301Y0193005D01*
X0375138Y0193103D01*
X0374973Y0193198D01*
X0374805Y0193288D01*
X0374636Y0193374D01*
X0374464Y0193457D01*
X0374291Y0193535D01*
X0374115Y0193609D01*
X0373938Y0193678D01*
X0373759Y0193744D01*
X0373579Y0193805D01*
X0373398Y0193861D01*
X0373215Y0193913D01*
X0373030Y0193961D01*
X0372845Y0194004D01*
X0372659Y0194043D01*
X0372472Y0194078D01*
X0372284Y0194107D01*
X0372095Y0194133D01*
X0371906Y0194153D01*
X0371716Y0194169D01*
X0371526Y0194181D01*
X0371336Y0194188D01*
X0371146Y0194190D01*
X0321146Y0194190D01*
X0320956Y0194188D01*
X0320766Y0194181D01*
X0320576Y0194169D01*
X0320386Y0194153D01*
X0320197Y0194133D01*
X0320008Y0194107D01*
X0319820Y0194078D01*
X0319633Y0194043D01*
X0319447Y0194004D01*
X0319262Y0193961D01*
X0319077Y0193913D01*
X0318894Y0193861D01*
X0318713Y0193805D01*
X0318533Y0193744D01*
X0318354Y0193678D01*
X0318177Y0193609D01*
X0318001Y0193535D01*
X0317828Y0193457D01*
X0317656Y0193374D01*
X0317487Y0193288D01*
X0317319Y0193198D01*
X0317154Y0193103D01*
X0316991Y0193005D01*
X0316831Y0192902D01*
X0316673Y0192796D01*
X0316518Y0192686D01*
X0316365Y0192573D01*
X0316215Y0192455D01*
X0316069Y0192334D01*
X0315925Y0192210D01*
X0315784Y0192082D01*
X0315646Y0191951D01*
X0315511Y0191816D01*
X0315380Y0191678D01*
X0315252Y0191537D01*
X0315128Y0191393D01*
X0315007Y0191247D01*
X0314889Y0191097D01*
X0314776Y0190944D01*
X0314666Y0190789D01*
X0314560Y0190631D01*
X0314457Y0190471D01*
X0314359Y0190308D01*
X0314264Y0190143D01*
X0314174Y0189975D01*
X0314088Y0189806D01*
X0314005Y0189634D01*
X0313927Y0189461D01*
X0313853Y0189285D01*
X0313784Y0189108D01*
X0313718Y0188929D01*
X0313657Y0188749D01*
X0313601Y0188568D01*
X0313549Y0188385D01*
X0313501Y0188200D01*
X0313458Y0188015D01*
X0313419Y0187829D01*
X0313384Y0187642D01*
X0313355Y0187454D01*
X0313329Y0187265D01*
X0313309Y0187076D01*
X0313293Y0186886D01*
X0313281Y0186696D01*
X0313274Y0186506D01*
X0313272Y0186316D01*
X0313272Y0154820D01*
X0313270Y0154630D01*
X0313263Y0154440D01*
X0313251Y0154250D01*
X0313235Y0154060D01*
X0313215Y0153871D01*
X0313189Y0153682D01*
X0313160Y0153494D01*
X0313125Y0153307D01*
X0313086Y0153121D01*
X0313043Y0152936D01*
X0312995Y0152751D01*
X0312943Y0152568D01*
X0312887Y0152387D01*
X0312826Y0152207D01*
X0312760Y0152028D01*
X0312691Y0151851D01*
X0312617Y0151675D01*
X0312539Y0151502D01*
X0312456Y0151330D01*
X0312370Y0151161D01*
X0312280Y0150993D01*
X0312185Y0150828D01*
X0312087Y0150665D01*
X0311984Y0150505D01*
X0311878Y0150347D01*
X0311768Y0150192D01*
X0311655Y0150039D01*
X0311537Y0149889D01*
X0311416Y0149743D01*
X0311292Y0149599D01*
X0311164Y0149458D01*
X0311033Y0149320D01*
X0310898Y0149185D01*
X0310760Y0149054D01*
X0310619Y0148926D01*
X0310475Y0148802D01*
X0310329Y0148681D01*
X0310179Y0148563D01*
X0310026Y0148450D01*
X0309871Y0148340D01*
X0309713Y0148234D01*
X0309553Y0148131D01*
X0309390Y0148033D01*
X0309225Y0147938D01*
X0309057Y0147848D01*
X0308888Y0147762D01*
X0308716Y0147679D01*
X0308543Y0147601D01*
X0308367Y0147527D01*
X0308190Y0147458D01*
X0308011Y0147392D01*
X0307831Y0147331D01*
X0307650Y0147275D01*
X0307467Y0147223D01*
X0307282Y0147175D01*
X0307097Y0147132D01*
X0306911Y0147093D01*
X0306724Y0147058D01*
X0306536Y0147029D01*
X0306347Y0147003D01*
X0306158Y0146983D01*
X0305968Y0146967D01*
X0305778Y0146955D01*
X0305588Y0146948D01*
X0305398Y0146946D01*
X0269965Y0146946D01*
X0269965Y0125292D01*
X0266028Y0125292D01*
X0266028Y0233560D01*
X0266028Y0117418D02*
X0266028Y0085922D01*
X0269965Y0085922D01*
X0269965Y0117418D01*
X0266028Y0117418D01*
X0266028Y0077654D02*
X0269571Y0077654D01*
X0269571Y0056394D01*
X0305398Y0056394D01*
X0305588Y0056392D01*
X0305778Y0056385D01*
X0305968Y0056373D01*
X0306158Y0056357D01*
X0306347Y0056337D01*
X0306536Y0056311D01*
X0306724Y0056282D01*
X0306911Y0056247D01*
X0307097Y0056208D01*
X0307282Y0056165D01*
X0307467Y0056117D01*
X0307650Y0056065D01*
X0307831Y0056009D01*
X0308011Y0055948D01*
X0308190Y0055882D01*
X0308367Y0055813D01*
X0308543Y0055739D01*
X0308716Y0055661D01*
X0308888Y0055578D01*
X0309057Y0055492D01*
X0309225Y0055402D01*
X0309390Y0055307D01*
X0309553Y0055209D01*
X0309713Y0055106D01*
X0309871Y0055000D01*
X0310026Y0054890D01*
X0310179Y0054777D01*
X0310329Y0054659D01*
X0310475Y0054538D01*
X0310619Y0054414D01*
X0310760Y0054286D01*
X0310898Y0054155D01*
X0311033Y0054020D01*
X0311164Y0053882D01*
X0311292Y0053741D01*
X0311416Y0053597D01*
X0311537Y0053451D01*
X0311655Y0053301D01*
X0311768Y0053148D01*
X0311878Y0052993D01*
X0311984Y0052835D01*
X0312087Y0052675D01*
X0312185Y0052512D01*
X0312280Y0052347D01*
X0312370Y0052179D01*
X0312456Y0052010D01*
X0312539Y0051838D01*
X0312617Y0051665D01*
X0312691Y0051489D01*
X0312760Y0051312D01*
X0312826Y0051133D01*
X0312887Y0050953D01*
X0312943Y0050772D01*
X0312995Y0050589D01*
X0313043Y0050404D01*
X0313086Y0050219D01*
X0313125Y0050033D01*
X0313160Y0049846D01*
X0313189Y0049658D01*
X0313215Y0049469D01*
X0313235Y0049280D01*
X0313251Y0049090D01*
X0313263Y0048900D01*
X0313270Y0048710D01*
X0313272Y0048520D01*
X0313272Y0020961D01*
X0313274Y0020771D01*
X0313281Y0020581D01*
X0313293Y0020391D01*
X0313309Y0020201D01*
X0313329Y0020012D01*
X0313355Y0019823D01*
X0313384Y0019635D01*
X0313419Y0019448D01*
X0313458Y0019262D01*
X0313501Y0019077D01*
X0313549Y0018892D01*
X0313601Y0018709D01*
X0313657Y0018528D01*
X0313718Y0018348D01*
X0313784Y0018169D01*
X0313853Y0017992D01*
X0313927Y0017816D01*
X0314005Y0017643D01*
X0314088Y0017471D01*
X0314174Y0017302D01*
X0314264Y0017134D01*
X0314359Y0016969D01*
X0314457Y0016806D01*
X0314560Y0016646D01*
X0314666Y0016488D01*
X0314776Y0016333D01*
X0314889Y0016180D01*
X0315007Y0016030D01*
X0315128Y0015884D01*
X0315252Y0015740D01*
X0315380Y0015599D01*
X0315511Y0015461D01*
X0315646Y0015326D01*
X0315784Y0015195D01*
X0315925Y0015067D01*
X0316069Y0014943D01*
X0316215Y0014822D01*
X0316365Y0014704D01*
X0316518Y0014591D01*
X0316673Y0014481D01*
X0316831Y0014375D01*
X0316991Y0014272D01*
X0317154Y0014174D01*
X0317319Y0014079D01*
X0317487Y0013989D01*
X0317656Y0013903D01*
X0317828Y0013820D01*
X0318001Y0013742D01*
X0318177Y0013668D01*
X0318354Y0013599D01*
X0318533Y0013533D01*
X0318713Y0013472D01*
X0318894Y0013416D01*
X0319077Y0013364D01*
X0319262Y0013316D01*
X0319447Y0013273D01*
X0319633Y0013234D01*
X0319820Y0013199D01*
X0320008Y0013170D01*
X0320197Y0013144D01*
X0320386Y0013124D01*
X0320576Y0013108D01*
X0320766Y0013096D01*
X0320956Y0013089D01*
X0321146Y0013087D01*
X0371146Y0013087D01*
X0266028Y0013087D02*
X0266028Y0077654D01*
X0197917Y0090253D02*
X0197917Y0020174D01*
X0193980Y0020174D01*
X0193980Y0090253D01*
X0197917Y0090253D01*
D12*
X0266028Y0013087D02*
X0021933Y0013087D01*
X0021648Y0013090D01*
X0021362Y0013101D01*
X0021077Y0013118D01*
X0020793Y0013142D01*
X0020509Y0013173D01*
X0020226Y0013211D01*
X0019945Y0013256D01*
X0019664Y0013307D01*
X0019384Y0013365D01*
X0019106Y0013430D01*
X0018830Y0013502D01*
X0018556Y0013580D01*
X0018283Y0013665D01*
X0018013Y0013757D01*
X0017745Y0013855D01*
X0017479Y0013959D01*
X0017216Y0014070D01*
X0016956Y0014187D01*
X0016698Y0014310D01*
X0016444Y0014440D01*
X0016193Y0014576D01*
X0015945Y0014717D01*
X0015701Y0014865D01*
X0015460Y0015018D01*
X0015224Y0015178D01*
X0014991Y0015343D01*
X0014762Y0015513D01*
X0014537Y0015689D01*
X0014317Y0015871D01*
X0014101Y0016057D01*
X0013890Y0016249D01*
X0013683Y0016446D01*
X0013481Y0016648D01*
X0013284Y0016855D01*
X0013092Y0017066D01*
X0012906Y0017282D01*
X0012724Y0017502D01*
X0012548Y0017727D01*
X0012378Y0017956D01*
X0012213Y0018189D01*
X0012053Y0018425D01*
X0011900Y0018666D01*
X0011752Y0018910D01*
X0011611Y0019158D01*
X0011475Y0019409D01*
X0011345Y0019663D01*
X0011222Y0019921D01*
X0011105Y0020181D01*
X0010994Y0020444D01*
X0010890Y0020710D01*
X0010792Y0020978D01*
X0010700Y0021248D01*
X0010615Y0021521D01*
X0010537Y0021795D01*
X0010465Y0022071D01*
X0010400Y0022349D01*
X0010342Y0022629D01*
X0010291Y0022910D01*
X0010246Y0023191D01*
X0010208Y0023474D01*
X0010177Y0023758D01*
X0010153Y0024042D01*
X0010136Y0024327D01*
X0010125Y0024613D01*
X0010122Y0024898D01*
X0010122Y0221749D01*
X0010125Y0222034D01*
X0010136Y0222320D01*
X0010153Y0222605D01*
X0010177Y0222889D01*
X0010208Y0223173D01*
X0010246Y0223456D01*
X0010291Y0223737D01*
X0010342Y0224018D01*
X0010400Y0224298D01*
X0010465Y0224576D01*
X0010537Y0224852D01*
X0010615Y0225126D01*
X0010700Y0225399D01*
X0010792Y0225669D01*
X0010890Y0225937D01*
X0010994Y0226203D01*
X0011105Y0226466D01*
X0011222Y0226726D01*
X0011345Y0226984D01*
X0011475Y0227238D01*
X0011611Y0227489D01*
X0011752Y0227737D01*
X0011900Y0227981D01*
X0012053Y0228222D01*
X0012213Y0228458D01*
X0012378Y0228691D01*
X0012548Y0228920D01*
X0012724Y0229145D01*
X0012906Y0229365D01*
X0013092Y0229581D01*
X0013284Y0229792D01*
X0013481Y0229999D01*
X0013683Y0230201D01*
X0013890Y0230398D01*
X0014101Y0230590D01*
X0014317Y0230776D01*
X0014537Y0230958D01*
X0014762Y0231134D01*
X0014991Y0231304D01*
X0015224Y0231469D01*
X0015460Y0231629D01*
X0015701Y0231782D01*
X0015945Y0231930D01*
X0016193Y0232071D01*
X0016444Y0232207D01*
X0016698Y0232337D01*
X0016956Y0232460D01*
X0017216Y0232577D01*
X0017479Y0232688D01*
X0017745Y0232792D01*
X0018013Y0232890D01*
X0018283Y0232982D01*
X0018556Y0233067D01*
X0018830Y0233145D01*
X0019106Y0233217D01*
X0019384Y0233282D01*
X0019664Y0233340D01*
X0019945Y0233391D01*
X0020226Y0233436D01*
X0020509Y0233474D01*
X0020793Y0233505D01*
X0021077Y0233529D01*
X0021362Y0233546D01*
X0021648Y0233557D01*
X0021933Y0233560D01*
X0266028Y0233560D01*
M02*
