%
M48
M72
T01C0.01181
T02C0.02362
T03C0.03150
T04C0.03600
T05C0.04000
T06C0.06693
T07C0.07874
T08C0.11024
T09C0.12598
T10C0.94488
%
T01
X72822Y147843
X87122Y174237
X95922Y195137
X127822Y184137
X242772Y145087
X339022Y39487
T02
X64453Y144977
X59335Y43796
T03
X50654Y61087
X41638Y61087
X32622Y61087
X17622Y67072
X17622Y76087
X17622Y85103
X17622Y103135
X32622Y109119
X41638Y109119
X50654Y109119
X65654Y103135
X65654Y85103
X65654Y76087
X65496Y67072
X208185Y68087
X208185Y58087
X208185Y48087
X208185Y78087
X208185Y88087
X208185Y98087
X208185Y108087
X208185Y118087
T04
X226122Y148087
X236122Y148087
X236122Y158087
X226122Y158087
X226122Y168087
X236122Y168087
X236122Y178087
X226122Y178087
X226122Y188087
X236122Y188087
X285437Y121670
X295437Y121670
X295437Y111670
X285437Y111670
X285437Y101670
X295437Y101670
X295437Y91670
X285437Y91670
X285437Y81670
X295437Y81670
T05
X181154Y35087
X161154Y35087
X70122Y34087
X50122Y34087
X51122Y125324
X51122Y135166
X51122Y145009
X51122Y154851
X45043Y183087
X35201Y183087
X43075Y214780
X53075Y214780
X63075Y214780
X73075Y214780
X83075Y214780
X93075Y214780
X103075Y214780
X113075Y214780
X123075Y214780
X133075Y214780
X143075Y214780
X153075Y214780
X163075Y214780
X173075Y214780
X183075Y214780
X193075Y214780
X203075Y214780
X213075Y214780
X223075Y214780
X233075Y214780
X233075Y224780
X223075Y224780
X213075Y224780
X203075Y224780
X193075Y224780
X183075Y224780
X173075Y224780
X163075Y224780
X153075Y224780
X143075Y224780
X133075Y224780
X123075Y224780
X113075Y224780
X103075Y224780
X93075Y224780
X83075Y224780
X73075Y224780
X63075Y224780
X53075Y224780
X43075Y224780
T06
X90358Y35300
X105949Y35300
X125358Y35300
X140949Y35300
T07
X325083Y24898
X364453Y24898
X364453Y182379
X325083Y182379
T08
X23902Y26867
X252248Y26867
X252248Y219780
X23902Y219780
T09
X80240Y161946
X174728Y161946
X174728Y67457
X80240Y67457
T10
X127484Y114662
M30
