G75*
%MOIN*%
%OFA0B0*%
%FSLAX25Y25*%
%IPPOS*%
%LPD*%
%AMOC8*
5,1,8,0,0,1.08239X$1,22.5*
%
%ADD10C,0.00600*%
%ADD11C,0.00500*%
%ADD12C,0.00400*%
%ADD13C,0.00200*%
%ADD14C,0.00700*%
%ADD15C,0.00394*%
%ADD16R,0.02500X0.09000*%
%ADD17C,0.00800*%
%ADD18R,0.05906X0.05906*%
D10*
X0056622Y0029587D02*
X0056622Y0034087D01*
X0056622Y0038587D01*
X0059122Y0038587D01*
X0059122Y0029587D01*
X0056622Y0029587D01*
X0056622Y0034087D02*
X0055622Y0034087D01*
X0040122Y0034087D02*
X0040128Y0034578D01*
X0040146Y0035068D01*
X0040176Y0035558D01*
X0040218Y0036047D01*
X0040272Y0036535D01*
X0040338Y0037022D01*
X0040416Y0037506D01*
X0040506Y0037989D01*
X0040608Y0038469D01*
X0040721Y0038947D01*
X0040846Y0039421D01*
X0040983Y0039893D01*
X0041131Y0040361D01*
X0041291Y0040825D01*
X0041462Y0041285D01*
X0041644Y0041741D01*
X0041838Y0042192D01*
X0042042Y0042638D01*
X0042258Y0043079D01*
X0042484Y0043515D01*
X0042720Y0043945D01*
X0042967Y0044369D01*
X0043225Y0044787D01*
X0043493Y0045198D01*
X0043770Y0045603D01*
X0044058Y0046001D01*
X0044355Y0046392D01*
X0044662Y0046775D01*
X0044978Y0047150D01*
X0045303Y0047518D01*
X0045637Y0047878D01*
X0045980Y0048229D01*
X0046331Y0048572D01*
X0046691Y0048906D01*
X0047059Y0049231D01*
X0047434Y0049547D01*
X0047817Y0049854D01*
X0048208Y0050151D01*
X0048606Y0050439D01*
X0049011Y0050716D01*
X0049422Y0050984D01*
X0049840Y0051242D01*
X0050264Y0051489D01*
X0050694Y0051725D01*
X0051130Y0051951D01*
X0051571Y0052167D01*
X0052017Y0052371D01*
X0052468Y0052565D01*
X0052924Y0052747D01*
X0053384Y0052918D01*
X0053848Y0053078D01*
X0054316Y0053226D01*
X0054788Y0053363D01*
X0055262Y0053488D01*
X0055740Y0053601D01*
X0056220Y0053703D01*
X0056703Y0053793D01*
X0057187Y0053871D01*
X0057674Y0053937D01*
X0058162Y0053991D01*
X0058651Y0054033D01*
X0059141Y0054063D01*
X0059631Y0054081D01*
X0060122Y0054087D01*
X0060613Y0054081D01*
X0061103Y0054063D01*
X0061593Y0054033D01*
X0062082Y0053991D01*
X0062570Y0053937D01*
X0063057Y0053871D01*
X0063541Y0053793D01*
X0064024Y0053703D01*
X0064504Y0053601D01*
X0064982Y0053488D01*
X0065456Y0053363D01*
X0065928Y0053226D01*
X0066396Y0053078D01*
X0066860Y0052918D01*
X0067320Y0052747D01*
X0067776Y0052565D01*
X0068227Y0052371D01*
X0068673Y0052167D01*
X0069114Y0051951D01*
X0069550Y0051725D01*
X0069980Y0051489D01*
X0070404Y0051242D01*
X0070822Y0050984D01*
X0071233Y0050716D01*
X0071638Y0050439D01*
X0072036Y0050151D01*
X0072427Y0049854D01*
X0072810Y0049547D01*
X0073185Y0049231D01*
X0073553Y0048906D01*
X0073913Y0048572D01*
X0074264Y0048229D01*
X0074607Y0047878D01*
X0074941Y0047518D01*
X0075266Y0047150D01*
X0075582Y0046775D01*
X0075889Y0046392D01*
X0076186Y0046001D01*
X0076474Y0045603D01*
X0076751Y0045198D01*
X0077019Y0044787D01*
X0077277Y0044369D01*
X0077524Y0043945D01*
X0077760Y0043515D01*
X0077986Y0043079D01*
X0078202Y0042638D01*
X0078406Y0042192D01*
X0078600Y0041741D01*
X0078782Y0041285D01*
X0078953Y0040825D01*
X0079113Y0040361D01*
X0079261Y0039893D01*
X0079398Y0039421D01*
X0079523Y0038947D01*
X0079636Y0038469D01*
X0079738Y0037989D01*
X0079828Y0037506D01*
X0079906Y0037022D01*
X0079972Y0036535D01*
X0080026Y0036047D01*
X0080068Y0035558D01*
X0080098Y0035068D01*
X0080116Y0034578D01*
X0080122Y0034087D01*
X0080116Y0033596D01*
X0080098Y0033106D01*
X0080068Y0032616D01*
X0080026Y0032127D01*
X0079972Y0031639D01*
X0079906Y0031152D01*
X0079828Y0030668D01*
X0079738Y0030185D01*
X0079636Y0029705D01*
X0079523Y0029227D01*
X0079398Y0028753D01*
X0079261Y0028281D01*
X0079113Y0027813D01*
X0078953Y0027349D01*
X0078782Y0026889D01*
X0078600Y0026433D01*
X0078406Y0025982D01*
X0078202Y0025536D01*
X0077986Y0025095D01*
X0077760Y0024659D01*
X0077524Y0024229D01*
X0077277Y0023805D01*
X0077019Y0023387D01*
X0076751Y0022976D01*
X0076474Y0022571D01*
X0076186Y0022173D01*
X0075889Y0021782D01*
X0075582Y0021399D01*
X0075266Y0021024D01*
X0074941Y0020656D01*
X0074607Y0020296D01*
X0074264Y0019945D01*
X0073913Y0019602D01*
X0073553Y0019268D01*
X0073185Y0018943D01*
X0072810Y0018627D01*
X0072427Y0018320D01*
X0072036Y0018023D01*
X0071638Y0017735D01*
X0071233Y0017458D01*
X0070822Y0017190D01*
X0070404Y0016932D01*
X0069980Y0016685D01*
X0069550Y0016449D01*
X0069114Y0016223D01*
X0068673Y0016007D01*
X0068227Y0015803D01*
X0067776Y0015609D01*
X0067320Y0015427D01*
X0066860Y0015256D01*
X0066396Y0015096D01*
X0065928Y0014948D01*
X0065456Y0014811D01*
X0064982Y0014686D01*
X0064504Y0014573D01*
X0064024Y0014471D01*
X0063541Y0014381D01*
X0063057Y0014303D01*
X0062570Y0014237D01*
X0062082Y0014183D01*
X0061593Y0014141D01*
X0061103Y0014111D01*
X0060613Y0014093D01*
X0060122Y0014087D01*
X0059631Y0014093D01*
X0059141Y0014111D01*
X0058651Y0014141D01*
X0058162Y0014183D01*
X0057674Y0014237D01*
X0057187Y0014303D01*
X0056703Y0014381D01*
X0056220Y0014471D01*
X0055740Y0014573D01*
X0055262Y0014686D01*
X0054788Y0014811D01*
X0054316Y0014948D01*
X0053848Y0015096D01*
X0053384Y0015256D01*
X0052924Y0015427D01*
X0052468Y0015609D01*
X0052017Y0015803D01*
X0051571Y0016007D01*
X0051130Y0016223D01*
X0050694Y0016449D01*
X0050264Y0016685D01*
X0049840Y0016932D01*
X0049422Y0017190D01*
X0049011Y0017458D01*
X0048606Y0017735D01*
X0048208Y0018023D01*
X0047817Y0018320D01*
X0047434Y0018627D01*
X0047059Y0018943D01*
X0046691Y0019268D01*
X0046331Y0019602D01*
X0045980Y0019945D01*
X0045637Y0020296D01*
X0045303Y0020656D01*
X0044978Y0021024D01*
X0044662Y0021399D01*
X0044355Y0021782D01*
X0044058Y0022173D01*
X0043770Y0022571D01*
X0043493Y0022976D01*
X0043225Y0023387D01*
X0042967Y0023805D01*
X0042720Y0024229D01*
X0042484Y0024659D01*
X0042258Y0025095D01*
X0042042Y0025536D01*
X0041838Y0025982D01*
X0041644Y0026433D01*
X0041462Y0026889D01*
X0041291Y0027349D01*
X0041131Y0027813D01*
X0040983Y0028281D01*
X0040846Y0028753D01*
X0040721Y0029227D01*
X0040608Y0029705D01*
X0040506Y0030185D01*
X0040416Y0030668D01*
X0040338Y0031152D01*
X0040272Y0031639D01*
X0040218Y0032127D01*
X0040176Y0032616D01*
X0040146Y0033106D01*
X0040128Y0033596D01*
X0040122Y0034087D01*
X0045122Y0037587D02*
X0045122Y0040587D01*
X0046622Y0039087D02*
X0043622Y0039087D01*
X0062622Y0034087D02*
X0064622Y0034087D01*
X0082681Y0027426D02*
X0113626Y0027426D01*
X0113626Y0054985D01*
X0082681Y0054985D01*
X0082681Y0027426D01*
X0082681Y0021520D01*
X0113626Y0021520D01*
X0113626Y0027426D01*
X0117681Y0027426D02*
X0148626Y0027426D01*
X0148626Y0054985D01*
X0117681Y0054985D01*
X0117681Y0027426D01*
X0117681Y0021520D01*
X0148626Y0021520D01*
X0148626Y0027426D01*
X0156154Y0038587D02*
X0156154Y0041587D01*
X0157654Y0040087D02*
X0154654Y0040087D01*
X0166654Y0035087D02*
X0167654Y0035087D01*
X0167654Y0039587D01*
X0170154Y0039587D01*
X0170154Y0030587D01*
X0167654Y0030587D01*
X0167654Y0035087D01*
X0151154Y0035087D02*
X0151160Y0035578D01*
X0151178Y0036068D01*
X0151208Y0036558D01*
X0151250Y0037047D01*
X0151304Y0037535D01*
X0151370Y0038022D01*
X0151448Y0038506D01*
X0151538Y0038989D01*
X0151640Y0039469D01*
X0151753Y0039947D01*
X0151878Y0040421D01*
X0152015Y0040893D01*
X0152163Y0041361D01*
X0152323Y0041825D01*
X0152494Y0042285D01*
X0152676Y0042741D01*
X0152870Y0043192D01*
X0153074Y0043638D01*
X0153290Y0044079D01*
X0153516Y0044515D01*
X0153752Y0044945D01*
X0153999Y0045369D01*
X0154257Y0045787D01*
X0154525Y0046198D01*
X0154802Y0046603D01*
X0155090Y0047001D01*
X0155387Y0047392D01*
X0155694Y0047775D01*
X0156010Y0048150D01*
X0156335Y0048518D01*
X0156669Y0048878D01*
X0157012Y0049229D01*
X0157363Y0049572D01*
X0157723Y0049906D01*
X0158091Y0050231D01*
X0158466Y0050547D01*
X0158849Y0050854D01*
X0159240Y0051151D01*
X0159638Y0051439D01*
X0160043Y0051716D01*
X0160454Y0051984D01*
X0160872Y0052242D01*
X0161296Y0052489D01*
X0161726Y0052725D01*
X0162162Y0052951D01*
X0162603Y0053167D01*
X0163049Y0053371D01*
X0163500Y0053565D01*
X0163956Y0053747D01*
X0164416Y0053918D01*
X0164880Y0054078D01*
X0165348Y0054226D01*
X0165820Y0054363D01*
X0166294Y0054488D01*
X0166772Y0054601D01*
X0167252Y0054703D01*
X0167735Y0054793D01*
X0168219Y0054871D01*
X0168706Y0054937D01*
X0169194Y0054991D01*
X0169683Y0055033D01*
X0170173Y0055063D01*
X0170663Y0055081D01*
X0171154Y0055087D01*
X0171645Y0055081D01*
X0172135Y0055063D01*
X0172625Y0055033D01*
X0173114Y0054991D01*
X0173602Y0054937D01*
X0174089Y0054871D01*
X0174573Y0054793D01*
X0175056Y0054703D01*
X0175536Y0054601D01*
X0176014Y0054488D01*
X0176488Y0054363D01*
X0176960Y0054226D01*
X0177428Y0054078D01*
X0177892Y0053918D01*
X0178352Y0053747D01*
X0178808Y0053565D01*
X0179259Y0053371D01*
X0179705Y0053167D01*
X0180146Y0052951D01*
X0180582Y0052725D01*
X0181012Y0052489D01*
X0181436Y0052242D01*
X0181854Y0051984D01*
X0182265Y0051716D01*
X0182670Y0051439D01*
X0183068Y0051151D01*
X0183459Y0050854D01*
X0183842Y0050547D01*
X0184217Y0050231D01*
X0184585Y0049906D01*
X0184945Y0049572D01*
X0185296Y0049229D01*
X0185639Y0048878D01*
X0185973Y0048518D01*
X0186298Y0048150D01*
X0186614Y0047775D01*
X0186921Y0047392D01*
X0187218Y0047001D01*
X0187506Y0046603D01*
X0187783Y0046198D01*
X0188051Y0045787D01*
X0188309Y0045369D01*
X0188556Y0044945D01*
X0188792Y0044515D01*
X0189018Y0044079D01*
X0189234Y0043638D01*
X0189438Y0043192D01*
X0189632Y0042741D01*
X0189814Y0042285D01*
X0189985Y0041825D01*
X0190145Y0041361D01*
X0190293Y0040893D01*
X0190430Y0040421D01*
X0190555Y0039947D01*
X0190668Y0039469D01*
X0190770Y0038989D01*
X0190860Y0038506D01*
X0190938Y0038022D01*
X0191004Y0037535D01*
X0191058Y0037047D01*
X0191100Y0036558D01*
X0191130Y0036068D01*
X0191148Y0035578D01*
X0191154Y0035087D01*
X0191148Y0034596D01*
X0191130Y0034106D01*
X0191100Y0033616D01*
X0191058Y0033127D01*
X0191004Y0032639D01*
X0190938Y0032152D01*
X0190860Y0031668D01*
X0190770Y0031185D01*
X0190668Y0030705D01*
X0190555Y0030227D01*
X0190430Y0029753D01*
X0190293Y0029281D01*
X0190145Y0028813D01*
X0189985Y0028349D01*
X0189814Y0027889D01*
X0189632Y0027433D01*
X0189438Y0026982D01*
X0189234Y0026536D01*
X0189018Y0026095D01*
X0188792Y0025659D01*
X0188556Y0025229D01*
X0188309Y0024805D01*
X0188051Y0024387D01*
X0187783Y0023976D01*
X0187506Y0023571D01*
X0187218Y0023173D01*
X0186921Y0022782D01*
X0186614Y0022399D01*
X0186298Y0022024D01*
X0185973Y0021656D01*
X0185639Y0021296D01*
X0185296Y0020945D01*
X0184945Y0020602D01*
X0184585Y0020268D01*
X0184217Y0019943D01*
X0183842Y0019627D01*
X0183459Y0019320D01*
X0183068Y0019023D01*
X0182670Y0018735D01*
X0182265Y0018458D01*
X0181854Y0018190D01*
X0181436Y0017932D01*
X0181012Y0017685D01*
X0180582Y0017449D01*
X0180146Y0017223D01*
X0179705Y0017007D01*
X0179259Y0016803D01*
X0178808Y0016609D01*
X0178352Y0016427D01*
X0177892Y0016256D01*
X0177428Y0016096D01*
X0176960Y0015948D01*
X0176488Y0015811D01*
X0176014Y0015686D01*
X0175536Y0015573D01*
X0175056Y0015471D01*
X0174573Y0015381D01*
X0174089Y0015303D01*
X0173602Y0015237D01*
X0173114Y0015183D01*
X0172625Y0015141D01*
X0172135Y0015111D01*
X0171645Y0015093D01*
X0171154Y0015087D01*
X0170663Y0015093D01*
X0170173Y0015111D01*
X0169683Y0015141D01*
X0169194Y0015183D01*
X0168706Y0015237D01*
X0168219Y0015303D01*
X0167735Y0015381D01*
X0167252Y0015471D01*
X0166772Y0015573D01*
X0166294Y0015686D01*
X0165820Y0015811D01*
X0165348Y0015948D01*
X0164880Y0016096D01*
X0164416Y0016256D01*
X0163956Y0016427D01*
X0163500Y0016609D01*
X0163049Y0016803D01*
X0162603Y0017007D01*
X0162162Y0017223D01*
X0161726Y0017449D01*
X0161296Y0017685D01*
X0160872Y0017932D01*
X0160454Y0018190D01*
X0160043Y0018458D01*
X0159638Y0018735D01*
X0159240Y0019023D01*
X0158849Y0019320D01*
X0158466Y0019627D01*
X0158091Y0019943D01*
X0157723Y0020268D01*
X0157363Y0020602D01*
X0157012Y0020945D01*
X0156669Y0021296D01*
X0156335Y0021656D01*
X0156010Y0022024D01*
X0155694Y0022399D01*
X0155387Y0022782D01*
X0155090Y0023173D01*
X0154802Y0023571D01*
X0154525Y0023976D01*
X0154257Y0024387D01*
X0153999Y0024805D01*
X0153752Y0025229D01*
X0153516Y0025659D01*
X0153290Y0026095D01*
X0153074Y0026536D01*
X0152870Y0026982D01*
X0152676Y0027433D01*
X0152494Y0027889D01*
X0152323Y0028349D01*
X0152163Y0028813D01*
X0152015Y0029281D01*
X0151878Y0029753D01*
X0151753Y0030227D01*
X0151640Y0030705D01*
X0151538Y0031185D01*
X0151448Y0031668D01*
X0151370Y0032152D01*
X0151304Y0032639D01*
X0151250Y0033127D01*
X0151208Y0033616D01*
X0151178Y0034106D01*
X0151160Y0034596D01*
X0151154Y0035087D01*
X0173654Y0035087D02*
X0175654Y0035087D01*
X0060177Y0115678D02*
X0060177Y0118828D01*
X0042461Y0118828D01*
X0042461Y0161347D01*
X0060177Y0161347D01*
X0060177Y0164497D01*
X0014902Y0164497D01*
X0014902Y0115678D01*
X0060177Y0115678D01*
X0054689Y0169702D02*
X0025555Y0169702D01*
X0025555Y0184072D01*
X0027622Y0184072D01*
X0027622Y0171769D01*
X0052622Y0171769D01*
X0052622Y0184072D01*
X0054689Y0184072D01*
X0054689Y0169702D01*
X0054689Y0184072D02*
X0054689Y0189190D01*
X0045909Y0189190D01*
X0045909Y0192339D01*
X0054689Y0192339D01*
X0054689Y0189190D01*
X0045909Y0192339D02*
X0034335Y0192339D01*
X0034335Y0189190D01*
X0025555Y0189190D01*
X0025555Y0184072D01*
X0025555Y0189190D02*
X0025555Y0192339D01*
X0034335Y0192339D01*
D11*
X0048072Y0021637D02*
X0051075Y0021637D01*
X0049573Y0021637D02*
X0049573Y0026141D01*
X0048072Y0024640D01*
X0052676Y0025391D02*
X0052676Y0022388D01*
X0055679Y0025391D01*
X0055679Y0022388D01*
X0054928Y0021637D01*
X0053427Y0021637D01*
X0052676Y0022388D01*
X0052676Y0025391D02*
X0053427Y0026141D01*
X0054928Y0026141D01*
X0055679Y0025391D01*
X0057280Y0025391D02*
X0058031Y0026141D01*
X0059532Y0026141D01*
X0060282Y0025391D01*
X0057280Y0022388D01*
X0058031Y0021637D01*
X0059532Y0021637D01*
X0060282Y0022388D01*
X0060282Y0025391D01*
X0061884Y0025391D02*
X0061884Y0022388D01*
X0064886Y0025391D01*
X0064886Y0022388D01*
X0064136Y0021637D01*
X0062634Y0021637D01*
X0061884Y0022388D01*
X0061884Y0025391D02*
X0062634Y0026141D01*
X0064136Y0026141D01*
X0064886Y0025391D01*
X0066488Y0024640D02*
X0066488Y0022388D01*
X0067238Y0021637D01*
X0069490Y0021637D01*
X0069490Y0024640D01*
X0071092Y0023889D02*
X0072593Y0023889D01*
X0071092Y0021637D02*
X0071092Y0026141D01*
X0074094Y0026141D01*
X0057280Y0025391D02*
X0057280Y0022388D01*
X0075323Y0046337D02*
X0076824Y0046337D01*
X0077575Y0047088D01*
X0079176Y0047088D02*
X0079927Y0046337D01*
X0081428Y0046337D01*
X0082179Y0047088D01*
X0082179Y0047839D01*
X0081428Y0048589D01*
X0080677Y0048589D01*
X0081428Y0048589D02*
X0082179Y0049340D01*
X0082179Y0050091D01*
X0081428Y0050841D01*
X0079927Y0050841D01*
X0079176Y0050091D01*
X0077575Y0050091D02*
X0076824Y0050841D01*
X0075323Y0050841D01*
X0074572Y0050091D01*
X0074572Y0047088D01*
X0075323Y0046337D01*
X0159104Y0025640D02*
X0160605Y0027141D01*
X0160605Y0022637D01*
X0159104Y0022637D02*
X0162106Y0022637D01*
X0163707Y0023388D02*
X0166710Y0026391D01*
X0166710Y0023388D01*
X0165959Y0022637D01*
X0164458Y0022637D01*
X0163707Y0023388D01*
X0163707Y0026391D01*
X0164458Y0027141D01*
X0165959Y0027141D01*
X0166710Y0026391D01*
X0168311Y0026391D02*
X0169062Y0027141D01*
X0170563Y0027141D01*
X0171314Y0026391D01*
X0168311Y0023388D01*
X0169062Y0022637D01*
X0170563Y0022637D01*
X0171314Y0023388D01*
X0171314Y0026391D01*
X0172915Y0026391D02*
X0172915Y0023388D01*
X0175918Y0026391D01*
X0175918Y0023388D01*
X0175167Y0022637D01*
X0173666Y0022637D01*
X0172915Y0023388D01*
X0172915Y0026391D02*
X0173666Y0027141D01*
X0175167Y0027141D01*
X0175918Y0026391D01*
X0177519Y0025640D02*
X0177519Y0023388D01*
X0178270Y0022637D01*
X0180522Y0022637D01*
X0180522Y0025640D01*
X0182123Y0024889D02*
X0183624Y0024889D01*
X0182123Y0022637D02*
X0182123Y0027141D01*
X0185126Y0027141D01*
X0168311Y0026391D02*
X0168311Y0023388D01*
X0198185Y0043087D02*
X0198185Y0125587D01*
X0260685Y0125587D01*
X0260685Y0043087D01*
X0198185Y0043087D01*
X0197510Y0046137D02*
X0194507Y0046137D01*
X0196009Y0046137D02*
X0196009Y0050641D01*
X0194507Y0049140D01*
X0192906Y0049891D02*
X0192155Y0050641D01*
X0190654Y0050641D01*
X0189904Y0049891D01*
X0189904Y0046888D01*
X0190654Y0046137D01*
X0192155Y0046137D01*
X0192906Y0046888D01*
X0230685Y0060587D02*
X0233185Y0063087D01*
X0235685Y0060587D01*
X0233185Y0063087D02*
X0233185Y0048087D01*
X0248185Y0048087D01*
X0245685Y0045587D01*
X0248185Y0048087D02*
X0245685Y0050587D01*
X0271937Y0066670D02*
X0272937Y0066670D01*
X0272937Y0061670D01*
X0307937Y0061670D01*
X0307937Y0079170D01*
X0307437Y0079170D01*
X0307437Y0084170D01*
X0307937Y0084170D01*
X0307937Y0093670D01*
X0303937Y0093670D01*
X0302937Y0093670D01*
X0302937Y0066670D01*
X0277937Y0066670D01*
X0277937Y0136670D01*
X0302937Y0136670D01*
X0302937Y0119670D01*
X0302937Y0113670D01*
X0302937Y0109670D01*
X0303937Y0109670D01*
X0307937Y0109670D01*
X0307937Y0093670D01*
X0306187Y0097920D02*
X0306187Y0100923D01*
X0306187Y0099421D02*
X0301683Y0099421D01*
X0303184Y0097920D01*
X0302937Y0093670D02*
X0299937Y0093670D01*
X0299937Y0109670D01*
X0302937Y0109670D01*
X0305937Y0111670D02*
X0305937Y0113670D01*
X0305937Y0119670D01*
X0303937Y0119670D01*
X0302937Y0119670D01*
X0305937Y0119670D02*
X0305937Y0121670D01*
X0307937Y0123170D01*
X0307937Y0141670D01*
X0272937Y0141670D01*
X0272937Y0136670D01*
X0271937Y0136670D01*
X0271937Y0131670D01*
X0272937Y0131670D01*
X0272937Y0104170D01*
X0271937Y0104170D01*
X0271937Y0099170D01*
X0272937Y0099170D01*
X0272937Y0071670D01*
X0271937Y0071670D01*
X0271937Y0066670D01*
X0283183Y0072671D02*
X0283934Y0071920D01*
X0283183Y0072671D02*
X0283183Y0074172D01*
X0283934Y0074923D01*
X0284684Y0074923D01*
X0287687Y0071920D01*
X0287687Y0074923D01*
X0293183Y0073421D02*
X0294684Y0071920D01*
X0293183Y0073421D02*
X0297687Y0073421D01*
X0297687Y0071920D02*
X0297687Y0074923D01*
X0302434Y0102524D02*
X0301683Y0103275D01*
X0301683Y0104776D01*
X0302434Y0105527D01*
X0305436Y0102524D01*
X0306187Y0103275D01*
X0306187Y0104776D01*
X0305436Y0105527D01*
X0302434Y0105527D01*
X0302434Y0102524D02*
X0305436Y0102524D01*
X0307937Y0109670D02*
X0307937Y0110170D01*
X0305937Y0111670D01*
X0305937Y0113670D02*
X0303937Y0113670D01*
X0302937Y0113670D01*
X0310318Y0102457D02*
X0310328Y0103312D01*
X0310360Y0104167D01*
X0310412Y0105020D01*
X0310486Y0105872D01*
X0310580Y0106722D01*
X0310695Y0107570D01*
X0310831Y0108414D01*
X0310987Y0109255D01*
X0311165Y0110091D01*
X0311362Y0110923D01*
X0311580Y0111750D01*
X0311818Y0112571D01*
X0312077Y0113387D01*
X0312355Y0114195D01*
X0312653Y0114997D01*
X0312970Y0115791D01*
X0313307Y0116577D01*
X0313663Y0117354D01*
X0314038Y0118123D01*
X0314432Y0118882D01*
X0314845Y0119631D01*
X0315275Y0120370D01*
X0315724Y0121098D01*
X0316190Y0121815D01*
X0316674Y0122520D01*
X0317175Y0123213D01*
X0317693Y0123894D01*
X0318227Y0124561D01*
X0318778Y0125216D01*
X0319344Y0125856D01*
X0319926Y0126483D01*
X0320523Y0127095D01*
X0321135Y0127692D01*
X0321762Y0128274D01*
X0322402Y0128840D01*
X0323057Y0129391D01*
X0323724Y0129925D01*
X0324405Y0130443D01*
X0325098Y0130944D01*
X0325803Y0131428D01*
X0326520Y0131894D01*
X0327248Y0132343D01*
X0327987Y0132773D01*
X0328736Y0133186D01*
X0329495Y0133580D01*
X0330264Y0133955D01*
X0331041Y0134311D01*
X0331827Y0134648D01*
X0332621Y0134965D01*
X0333423Y0135263D01*
X0334231Y0135541D01*
X0335047Y0135800D01*
X0335868Y0136038D01*
X0336695Y0136256D01*
X0337527Y0136453D01*
X0338363Y0136631D01*
X0339204Y0136787D01*
X0340048Y0136923D01*
X0340896Y0137038D01*
X0341746Y0137132D01*
X0342598Y0137206D01*
X0343451Y0137258D01*
X0344306Y0137290D01*
X0345161Y0137300D01*
X0346016Y0137290D01*
X0346871Y0137258D01*
X0347724Y0137206D01*
X0348576Y0137132D01*
X0349426Y0137038D01*
X0350274Y0136923D01*
X0351118Y0136787D01*
X0351959Y0136631D01*
X0352795Y0136453D01*
X0353627Y0136256D01*
X0354454Y0136038D01*
X0355275Y0135800D01*
X0356091Y0135541D01*
X0356899Y0135263D01*
X0357701Y0134965D01*
X0358495Y0134648D01*
X0359281Y0134311D01*
X0360058Y0133955D01*
X0360827Y0133580D01*
X0361586Y0133186D01*
X0362335Y0132773D01*
X0363074Y0132343D01*
X0363802Y0131894D01*
X0364519Y0131428D01*
X0365224Y0130944D01*
X0365917Y0130443D01*
X0366598Y0129925D01*
X0367265Y0129391D01*
X0367920Y0128840D01*
X0368560Y0128274D01*
X0369187Y0127692D01*
X0369799Y0127095D01*
X0370396Y0126483D01*
X0370978Y0125856D01*
X0371544Y0125216D01*
X0372095Y0124561D01*
X0372629Y0123894D01*
X0373147Y0123213D01*
X0373648Y0122520D01*
X0374132Y0121815D01*
X0374598Y0121098D01*
X0375047Y0120370D01*
X0375477Y0119631D01*
X0375890Y0118882D01*
X0376284Y0118123D01*
X0376659Y0117354D01*
X0377015Y0116577D01*
X0377352Y0115791D01*
X0377669Y0114997D01*
X0377967Y0114195D01*
X0378245Y0113387D01*
X0378504Y0112571D01*
X0378742Y0111750D01*
X0378960Y0110923D01*
X0379157Y0110091D01*
X0379335Y0109255D01*
X0379491Y0108414D01*
X0379627Y0107570D01*
X0379742Y0106722D01*
X0379836Y0105872D01*
X0379910Y0105020D01*
X0379962Y0104167D01*
X0379994Y0103312D01*
X0380004Y0102457D01*
X0379994Y0101602D01*
X0379962Y0100747D01*
X0379910Y0099894D01*
X0379836Y0099042D01*
X0379742Y0098192D01*
X0379627Y0097344D01*
X0379491Y0096500D01*
X0379335Y0095659D01*
X0379157Y0094823D01*
X0378960Y0093991D01*
X0378742Y0093164D01*
X0378504Y0092343D01*
X0378245Y0091527D01*
X0377967Y0090719D01*
X0377669Y0089917D01*
X0377352Y0089123D01*
X0377015Y0088337D01*
X0376659Y0087560D01*
X0376284Y0086791D01*
X0375890Y0086032D01*
X0375477Y0085283D01*
X0375047Y0084544D01*
X0374598Y0083816D01*
X0374132Y0083099D01*
X0373648Y0082394D01*
X0373147Y0081701D01*
X0372629Y0081020D01*
X0372095Y0080353D01*
X0371544Y0079698D01*
X0370978Y0079058D01*
X0370396Y0078431D01*
X0369799Y0077819D01*
X0369187Y0077222D01*
X0368560Y0076640D01*
X0367920Y0076074D01*
X0367265Y0075523D01*
X0366598Y0074989D01*
X0365917Y0074471D01*
X0365224Y0073970D01*
X0364519Y0073486D01*
X0363802Y0073020D01*
X0363074Y0072571D01*
X0362335Y0072141D01*
X0361586Y0071728D01*
X0360827Y0071334D01*
X0360058Y0070959D01*
X0359281Y0070603D01*
X0358495Y0070266D01*
X0357701Y0069949D01*
X0356899Y0069651D01*
X0356091Y0069373D01*
X0355275Y0069114D01*
X0354454Y0068876D01*
X0353627Y0068658D01*
X0352795Y0068461D01*
X0351959Y0068283D01*
X0351118Y0068127D01*
X0350274Y0067991D01*
X0349426Y0067876D01*
X0348576Y0067782D01*
X0347724Y0067708D01*
X0346871Y0067656D01*
X0346016Y0067624D01*
X0345161Y0067614D01*
X0344306Y0067624D01*
X0343451Y0067656D01*
X0342598Y0067708D01*
X0341746Y0067782D01*
X0340896Y0067876D01*
X0340048Y0067991D01*
X0339204Y0068127D01*
X0338363Y0068283D01*
X0337527Y0068461D01*
X0336695Y0068658D01*
X0335868Y0068876D01*
X0335047Y0069114D01*
X0334231Y0069373D01*
X0333423Y0069651D01*
X0332621Y0069949D01*
X0331827Y0070266D01*
X0331041Y0070603D01*
X0330264Y0070959D01*
X0329495Y0071334D01*
X0328736Y0071728D01*
X0327987Y0072141D01*
X0327248Y0072571D01*
X0326520Y0073020D01*
X0325803Y0073486D01*
X0325098Y0073970D01*
X0324405Y0074471D01*
X0323724Y0074989D01*
X0323057Y0075523D01*
X0322402Y0076074D01*
X0321762Y0076640D01*
X0321135Y0077222D01*
X0320523Y0077819D01*
X0319926Y0078431D01*
X0319344Y0079058D01*
X0318778Y0079698D01*
X0318227Y0080353D01*
X0317693Y0081020D01*
X0317175Y0081701D01*
X0316674Y0082394D01*
X0316190Y0083099D01*
X0315724Y0083816D01*
X0315275Y0084544D01*
X0314845Y0085283D01*
X0314432Y0086032D01*
X0314038Y0086791D01*
X0313663Y0087560D01*
X0313307Y0088337D01*
X0312970Y0089123D01*
X0312653Y0089917D01*
X0312355Y0090719D01*
X0312077Y0091527D01*
X0311818Y0092343D01*
X0311580Y0093164D01*
X0311362Y0093991D01*
X0311165Y0094823D01*
X0310987Y0095659D01*
X0310831Y0096500D01*
X0310695Y0097344D01*
X0310580Y0098192D01*
X0310486Y0099042D01*
X0310412Y0099894D01*
X0310360Y0100747D01*
X0310328Y0101602D01*
X0310318Y0102457D01*
X0312878Y0102457D02*
X0312888Y0103249D01*
X0312917Y0104041D01*
X0312965Y0104832D01*
X0313033Y0105621D01*
X0313121Y0106409D01*
X0313227Y0107194D01*
X0313353Y0107976D01*
X0313498Y0108755D01*
X0313662Y0109530D01*
X0313845Y0110301D01*
X0314047Y0111067D01*
X0314268Y0111828D01*
X0314507Y0112584D01*
X0314765Y0113333D01*
X0315041Y0114075D01*
X0315335Y0114811D01*
X0315648Y0115539D01*
X0315978Y0116260D01*
X0316325Y0116972D01*
X0316690Y0117675D01*
X0317072Y0118369D01*
X0317471Y0119054D01*
X0317887Y0119728D01*
X0318319Y0120392D01*
X0318767Y0121046D01*
X0319231Y0121688D01*
X0319711Y0122319D01*
X0320206Y0122937D01*
X0320716Y0123543D01*
X0321241Y0124137D01*
X0321780Y0124717D01*
X0322333Y0125285D01*
X0322901Y0125838D01*
X0323481Y0126377D01*
X0324075Y0126902D01*
X0324681Y0127412D01*
X0325299Y0127907D01*
X0325930Y0128387D01*
X0326572Y0128851D01*
X0327226Y0129299D01*
X0327890Y0129731D01*
X0328564Y0130147D01*
X0329249Y0130546D01*
X0329943Y0130928D01*
X0330646Y0131293D01*
X0331358Y0131640D01*
X0332079Y0131970D01*
X0332807Y0132283D01*
X0333543Y0132577D01*
X0334285Y0132853D01*
X0335034Y0133111D01*
X0335790Y0133350D01*
X0336551Y0133571D01*
X0337317Y0133773D01*
X0338088Y0133956D01*
X0338863Y0134120D01*
X0339642Y0134265D01*
X0340424Y0134391D01*
X0341209Y0134497D01*
X0341997Y0134585D01*
X0342786Y0134653D01*
X0343577Y0134701D01*
X0344369Y0134730D01*
X0345161Y0134740D01*
X0345953Y0134730D01*
X0346745Y0134701D01*
X0347536Y0134653D01*
X0348325Y0134585D01*
X0349113Y0134497D01*
X0349898Y0134391D01*
X0350680Y0134265D01*
X0351459Y0134120D01*
X0352234Y0133956D01*
X0353005Y0133773D01*
X0353771Y0133571D01*
X0354532Y0133350D01*
X0355288Y0133111D01*
X0356037Y0132853D01*
X0356779Y0132577D01*
X0357515Y0132283D01*
X0358243Y0131970D01*
X0358964Y0131640D01*
X0359676Y0131293D01*
X0360379Y0130928D01*
X0361073Y0130546D01*
X0361758Y0130147D01*
X0362432Y0129731D01*
X0363096Y0129299D01*
X0363750Y0128851D01*
X0364392Y0128387D01*
X0365023Y0127907D01*
X0365641Y0127412D01*
X0366247Y0126902D01*
X0366841Y0126377D01*
X0367421Y0125838D01*
X0367989Y0125285D01*
X0368542Y0124717D01*
X0369081Y0124137D01*
X0369606Y0123543D01*
X0370116Y0122937D01*
X0370611Y0122319D01*
X0371091Y0121688D01*
X0371555Y0121046D01*
X0372003Y0120392D01*
X0372435Y0119728D01*
X0372851Y0119054D01*
X0373250Y0118369D01*
X0373632Y0117675D01*
X0373997Y0116972D01*
X0374344Y0116260D01*
X0374674Y0115539D01*
X0374987Y0114811D01*
X0375281Y0114075D01*
X0375557Y0113333D01*
X0375815Y0112584D01*
X0376054Y0111828D01*
X0376275Y0111067D01*
X0376477Y0110301D01*
X0376660Y0109530D01*
X0376824Y0108755D01*
X0376969Y0107976D01*
X0377095Y0107194D01*
X0377201Y0106409D01*
X0377289Y0105621D01*
X0377357Y0104832D01*
X0377405Y0104041D01*
X0377434Y0103249D01*
X0377444Y0102457D01*
X0377434Y0101665D01*
X0377405Y0100873D01*
X0377357Y0100082D01*
X0377289Y0099293D01*
X0377201Y0098505D01*
X0377095Y0097720D01*
X0376969Y0096938D01*
X0376824Y0096159D01*
X0376660Y0095384D01*
X0376477Y0094613D01*
X0376275Y0093847D01*
X0376054Y0093086D01*
X0375815Y0092330D01*
X0375557Y0091581D01*
X0375281Y0090839D01*
X0374987Y0090103D01*
X0374674Y0089375D01*
X0374344Y0088654D01*
X0373997Y0087942D01*
X0373632Y0087239D01*
X0373250Y0086545D01*
X0372851Y0085860D01*
X0372435Y0085186D01*
X0372003Y0084522D01*
X0371555Y0083868D01*
X0371091Y0083226D01*
X0370611Y0082595D01*
X0370116Y0081977D01*
X0369606Y0081371D01*
X0369081Y0080777D01*
X0368542Y0080197D01*
X0367989Y0079629D01*
X0367421Y0079076D01*
X0366841Y0078537D01*
X0366247Y0078012D01*
X0365641Y0077502D01*
X0365023Y0077007D01*
X0364392Y0076527D01*
X0363750Y0076063D01*
X0363096Y0075615D01*
X0362432Y0075183D01*
X0361758Y0074767D01*
X0361073Y0074368D01*
X0360379Y0073986D01*
X0359676Y0073621D01*
X0358964Y0073274D01*
X0358243Y0072944D01*
X0357515Y0072631D01*
X0356779Y0072337D01*
X0356037Y0072061D01*
X0355288Y0071803D01*
X0354532Y0071564D01*
X0353771Y0071343D01*
X0353005Y0071141D01*
X0352234Y0070958D01*
X0351459Y0070794D01*
X0350680Y0070649D01*
X0349898Y0070523D01*
X0349113Y0070417D01*
X0348325Y0070329D01*
X0347536Y0070261D01*
X0346745Y0070213D01*
X0345953Y0070184D01*
X0345161Y0070174D01*
X0344369Y0070184D01*
X0343577Y0070213D01*
X0342786Y0070261D01*
X0341997Y0070329D01*
X0341209Y0070417D01*
X0340424Y0070523D01*
X0339642Y0070649D01*
X0338863Y0070794D01*
X0338088Y0070958D01*
X0337317Y0071141D01*
X0336551Y0071343D01*
X0335790Y0071564D01*
X0335034Y0071803D01*
X0334285Y0072061D01*
X0333543Y0072337D01*
X0332807Y0072631D01*
X0332079Y0072944D01*
X0331358Y0073274D01*
X0330646Y0073621D01*
X0329943Y0073986D01*
X0329249Y0074368D01*
X0328564Y0074767D01*
X0327890Y0075183D01*
X0327226Y0075615D01*
X0326572Y0076063D01*
X0325930Y0076527D01*
X0325299Y0077007D01*
X0324681Y0077502D01*
X0324075Y0078012D01*
X0323481Y0078537D01*
X0322901Y0079076D01*
X0322333Y0079629D01*
X0321780Y0080197D01*
X0321241Y0080777D01*
X0320716Y0081371D01*
X0320206Y0081977D01*
X0319711Y0082595D01*
X0319231Y0083226D01*
X0318767Y0083868D01*
X0318319Y0084522D01*
X0317887Y0085186D01*
X0317471Y0085860D01*
X0317072Y0086545D01*
X0316690Y0087239D01*
X0316325Y0087942D01*
X0315978Y0088654D01*
X0315648Y0089375D01*
X0315335Y0090103D01*
X0315041Y0090839D01*
X0314765Y0091581D01*
X0314507Y0092330D01*
X0314268Y0093086D01*
X0314047Y0093847D01*
X0313845Y0094613D01*
X0313662Y0095384D01*
X0313498Y0096159D01*
X0313353Y0096938D01*
X0313227Y0097720D01*
X0313121Y0098505D01*
X0313033Y0099293D01*
X0312965Y0100082D01*
X0312917Y0100873D01*
X0312888Y0101665D01*
X0312878Y0102457D01*
X0317602Y0102457D02*
X0317610Y0103133D01*
X0317635Y0103809D01*
X0317677Y0104484D01*
X0317735Y0105158D01*
X0317809Y0105831D01*
X0317900Y0106501D01*
X0318008Y0107169D01*
X0318132Y0107833D01*
X0318272Y0108495D01*
X0318428Y0109153D01*
X0318600Y0109807D01*
X0318789Y0110457D01*
X0318993Y0111102D01*
X0319213Y0111741D01*
X0319449Y0112375D01*
X0319700Y0113003D01*
X0319966Y0113625D01*
X0320248Y0114240D01*
X0320545Y0114848D01*
X0320856Y0115448D01*
X0321182Y0116041D01*
X0321523Y0116625D01*
X0321878Y0117201D01*
X0322247Y0117768D01*
X0322629Y0118326D01*
X0323025Y0118874D01*
X0323435Y0119412D01*
X0323858Y0119940D01*
X0324293Y0120458D01*
X0324741Y0120964D01*
X0325201Y0121460D01*
X0325674Y0121944D01*
X0326158Y0122417D01*
X0326654Y0122877D01*
X0327160Y0123325D01*
X0327678Y0123760D01*
X0328206Y0124183D01*
X0328744Y0124593D01*
X0329292Y0124989D01*
X0329850Y0125371D01*
X0330417Y0125740D01*
X0330993Y0126095D01*
X0331577Y0126436D01*
X0332170Y0126762D01*
X0332770Y0127073D01*
X0333378Y0127370D01*
X0333993Y0127652D01*
X0334615Y0127918D01*
X0335243Y0128169D01*
X0335877Y0128405D01*
X0336516Y0128625D01*
X0337161Y0128829D01*
X0337811Y0129018D01*
X0338465Y0129190D01*
X0339123Y0129346D01*
X0339785Y0129486D01*
X0340449Y0129610D01*
X0341117Y0129718D01*
X0341787Y0129809D01*
X0342460Y0129883D01*
X0343134Y0129941D01*
X0343809Y0129983D01*
X0344485Y0130008D01*
X0345161Y0130016D01*
X0345837Y0130008D01*
X0346513Y0129983D01*
X0347188Y0129941D01*
X0347862Y0129883D01*
X0348535Y0129809D01*
X0349205Y0129718D01*
X0349873Y0129610D01*
X0350537Y0129486D01*
X0351199Y0129346D01*
X0351857Y0129190D01*
X0352511Y0129018D01*
X0353161Y0128829D01*
X0353806Y0128625D01*
X0354445Y0128405D01*
X0355079Y0128169D01*
X0355707Y0127918D01*
X0356329Y0127652D01*
X0356944Y0127370D01*
X0357552Y0127073D01*
X0358152Y0126762D01*
X0358745Y0126436D01*
X0359329Y0126095D01*
X0359905Y0125740D01*
X0360472Y0125371D01*
X0361030Y0124989D01*
X0361578Y0124593D01*
X0362116Y0124183D01*
X0362644Y0123760D01*
X0363162Y0123325D01*
X0363668Y0122877D01*
X0364164Y0122417D01*
X0364648Y0121944D01*
X0365121Y0121460D01*
X0365581Y0120964D01*
X0366029Y0120458D01*
X0366464Y0119940D01*
X0366887Y0119412D01*
X0367297Y0118874D01*
X0367693Y0118326D01*
X0368075Y0117768D01*
X0368444Y0117201D01*
X0368799Y0116625D01*
X0369140Y0116041D01*
X0369466Y0115448D01*
X0369777Y0114848D01*
X0370074Y0114240D01*
X0370356Y0113625D01*
X0370622Y0113003D01*
X0370873Y0112375D01*
X0371109Y0111741D01*
X0371329Y0111102D01*
X0371533Y0110457D01*
X0371722Y0109807D01*
X0371894Y0109153D01*
X0372050Y0108495D01*
X0372190Y0107833D01*
X0372314Y0107169D01*
X0372422Y0106501D01*
X0372513Y0105831D01*
X0372587Y0105158D01*
X0372645Y0104484D01*
X0372687Y0103809D01*
X0372712Y0103133D01*
X0372720Y0102457D01*
X0372712Y0101781D01*
X0372687Y0101105D01*
X0372645Y0100430D01*
X0372587Y0099756D01*
X0372513Y0099083D01*
X0372422Y0098413D01*
X0372314Y0097745D01*
X0372190Y0097081D01*
X0372050Y0096419D01*
X0371894Y0095761D01*
X0371722Y0095107D01*
X0371533Y0094457D01*
X0371329Y0093812D01*
X0371109Y0093173D01*
X0370873Y0092539D01*
X0370622Y0091911D01*
X0370356Y0091289D01*
X0370074Y0090674D01*
X0369777Y0090066D01*
X0369466Y0089466D01*
X0369140Y0088873D01*
X0368799Y0088289D01*
X0368444Y0087713D01*
X0368075Y0087146D01*
X0367693Y0086588D01*
X0367297Y0086040D01*
X0366887Y0085502D01*
X0366464Y0084974D01*
X0366029Y0084456D01*
X0365581Y0083950D01*
X0365121Y0083454D01*
X0364648Y0082970D01*
X0364164Y0082497D01*
X0363668Y0082037D01*
X0363162Y0081589D01*
X0362644Y0081154D01*
X0362116Y0080731D01*
X0361578Y0080321D01*
X0361030Y0079925D01*
X0360472Y0079543D01*
X0359905Y0079174D01*
X0359329Y0078819D01*
X0358745Y0078478D01*
X0358152Y0078152D01*
X0357552Y0077841D01*
X0356944Y0077544D01*
X0356329Y0077262D01*
X0355707Y0076996D01*
X0355079Y0076745D01*
X0354445Y0076509D01*
X0353806Y0076289D01*
X0353161Y0076085D01*
X0352511Y0075896D01*
X0351857Y0075724D01*
X0351199Y0075568D01*
X0350537Y0075428D01*
X0349873Y0075304D01*
X0349205Y0075196D01*
X0348535Y0075105D01*
X0347862Y0075031D01*
X0347188Y0074973D01*
X0346513Y0074931D01*
X0345837Y0074906D01*
X0345161Y0074898D01*
X0344485Y0074906D01*
X0343809Y0074931D01*
X0343134Y0074973D01*
X0342460Y0075031D01*
X0341787Y0075105D01*
X0341117Y0075196D01*
X0340449Y0075304D01*
X0339785Y0075428D01*
X0339123Y0075568D01*
X0338465Y0075724D01*
X0337811Y0075896D01*
X0337161Y0076085D01*
X0336516Y0076289D01*
X0335877Y0076509D01*
X0335243Y0076745D01*
X0334615Y0076996D01*
X0333993Y0077262D01*
X0333378Y0077544D01*
X0332770Y0077841D01*
X0332170Y0078152D01*
X0331577Y0078478D01*
X0330993Y0078819D01*
X0330417Y0079174D01*
X0329850Y0079543D01*
X0329292Y0079925D01*
X0328744Y0080321D01*
X0328206Y0080731D01*
X0327678Y0081154D01*
X0327160Y0081589D01*
X0326654Y0082037D01*
X0326158Y0082497D01*
X0325674Y0082970D01*
X0325201Y0083454D01*
X0324741Y0083950D01*
X0324293Y0084456D01*
X0323858Y0084974D01*
X0323435Y0085502D01*
X0323025Y0086040D01*
X0322629Y0086588D01*
X0322247Y0087146D01*
X0321878Y0087713D01*
X0321523Y0088289D01*
X0321182Y0088873D01*
X0320856Y0089466D01*
X0320545Y0090066D01*
X0320248Y0090674D01*
X0319966Y0091289D01*
X0319700Y0091911D01*
X0319449Y0092539D01*
X0319213Y0093173D01*
X0318993Y0093812D01*
X0318789Y0094457D01*
X0318600Y0095107D01*
X0318428Y0095761D01*
X0318272Y0096419D01*
X0318132Y0097081D01*
X0318008Y0097745D01*
X0317900Y0098413D01*
X0317809Y0099083D01*
X0317735Y0099756D01*
X0317677Y0100430D01*
X0317635Y0101105D01*
X0317610Y0101781D01*
X0317602Y0102457D01*
X0249622Y0133087D02*
X0249622Y0138087D01*
X0248622Y0138087D01*
X0248622Y0165587D01*
X0249622Y0165587D01*
X0249622Y0170587D01*
X0248622Y0170587D01*
X0248622Y0198087D01*
X0249622Y0198087D01*
X0249622Y0203087D01*
X0248622Y0203087D01*
X0248622Y0208087D01*
X0213622Y0208087D01*
X0213622Y0190587D01*
X0214122Y0190587D01*
X0214122Y0185587D01*
X0213622Y0185587D01*
X0213622Y0176087D01*
X0217622Y0176087D01*
X0218622Y0176087D01*
X0218622Y0203087D01*
X0243622Y0203087D01*
X0243622Y0133087D01*
X0218622Y0133087D01*
X0218622Y0150087D01*
X0218622Y0156087D01*
X0218622Y0160087D01*
X0217622Y0160087D01*
X0213622Y0160087D01*
X0213622Y0176087D01*
X0218622Y0176087D02*
X0221622Y0176087D01*
X0221622Y0160087D01*
X0218622Y0160087D01*
X0219872Y0163130D02*
X0219872Y0166132D01*
X0219872Y0164631D02*
X0215368Y0164631D01*
X0216869Y0163130D01*
X0213622Y0160087D02*
X0213622Y0159587D01*
X0215622Y0158087D01*
X0215622Y0156087D01*
X0215622Y0150087D01*
X0217622Y0150087D01*
X0218622Y0150087D01*
X0215622Y0150087D02*
X0215622Y0148087D01*
X0213622Y0146587D01*
X0213622Y0128087D01*
X0248622Y0128087D01*
X0248622Y0133087D01*
X0249622Y0133087D01*
X0218622Y0156087D02*
X0217622Y0156087D01*
X0215622Y0156087D01*
X0216119Y0167733D02*
X0215368Y0168484D01*
X0215368Y0169985D01*
X0216119Y0170736D01*
X0219121Y0167733D01*
X0219872Y0168484D01*
X0219872Y0169985D01*
X0219121Y0170736D01*
X0216119Y0170736D01*
X0216119Y0167733D02*
X0219121Y0167733D01*
X0225369Y0193733D02*
X0223868Y0195235D01*
X0228372Y0195235D01*
X0228372Y0196736D02*
X0228372Y0193733D01*
X0233868Y0194484D02*
X0233868Y0195985D01*
X0234619Y0196736D01*
X0235369Y0196736D01*
X0238372Y0193733D01*
X0238372Y0196736D01*
X0234619Y0193733D02*
X0233868Y0194484D01*
X0038016Y0197117D02*
X0035013Y0197117D01*
X0036514Y0197117D02*
X0036514Y0201621D01*
X0035013Y0200119D01*
X0033412Y0201621D02*
X0033412Y0197117D01*
X0030409Y0201621D01*
X0030409Y0197117D01*
X0028808Y0197868D02*
X0028057Y0197117D01*
X0026556Y0197117D01*
X0025805Y0197868D01*
X0025805Y0200870D01*
X0026556Y0201621D01*
X0028057Y0201621D01*
X0028808Y0200870D01*
X0016620Y0176564D02*
X0016620Y0173561D01*
X0013618Y0176564D01*
X0012867Y0176564D01*
X0012116Y0175813D01*
X0012116Y0174312D01*
X0012867Y0173561D01*
X0012116Y0171960D02*
X0016620Y0171960D01*
X0012116Y0168957D01*
X0016620Y0168957D01*
X0015869Y0167356D02*
X0016620Y0166605D01*
X0016620Y0165104D01*
X0015869Y0164353D01*
X0012867Y0164353D01*
X0012116Y0165104D01*
X0012116Y0166605D01*
X0012867Y0167356D01*
D12*
X0058355Y0185734D02*
X0058355Y0190338D01*
X0061424Y0190338D01*
X0062959Y0188803D02*
X0064494Y0190338D01*
X0066028Y0188803D01*
X0066028Y0185734D01*
X0067563Y0185734D02*
X0067563Y0190338D01*
X0070632Y0185734D01*
X0070632Y0190338D01*
X0066028Y0188036D02*
X0062959Y0188036D01*
X0062959Y0188803D02*
X0062959Y0185734D01*
X0059890Y0188036D02*
X0058355Y0188036D01*
X0064368Y0136596D02*
X0063601Y0135828D01*
X0063601Y0134294D01*
X0064368Y0133526D01*
X0065903Y0133526D01*
X0066670Y0134294D01*
X0066670Y0135828D01*
X0065903Y0136596D01*
X0064368Y0136596D01*
X0063601Y0131992D02*
X0066670Y0130457D01*
X0063601Y0128922D01*
X0063601Y0127388D02*
X0063601Y0126620D01*
X0065135Y0125086D01*
X0063601Y0125086D02*
X0066670Y0125086D01*
X0065135Y0123551D02*
X0065135Y0120482D01*
X0064368Y0120482D02*
X0063601Y0121249D01*
X0063601Y0122784D01*
X0064368Y0123551D01*
X0065135Y0123551D01*
X0066670Y0122784D02*
X0066670Y0121249D01*
X0065903Y0120482D01*
X0064368Y0120482D01*
X0065135Y0118947D02*
X0065903Y0118947D01*
X0066670Y0118180D01*
X0066670Y0116645D01*
X0065903Y0115878D01*
X0064368Y0116645D02*
X0064368Y0118180D01*
X0065135Y0118947D01*
X0062833Y0118947D02*
X0062066Y0118180D01*
X0062066Y0116645D01*
X0062833Y0115878D01*
X0063601Y0115878D01*
X0064368Y0116645D01*
X0086508Y0061302D02*
X0085741Y0060534D01*
X0085741Y0057465D01*
X0086508Y0056698D01*
X0088043Y0056698D01*
X0088810Y0057465D01*
X0090345Y0058232D02*
X0092647Y0058232D01*
X0093414Y0059000D01*
X0093414Y0060534D01*
X0092647Y0061302D01*
X0090345Y0061302D01*
X0090345Y0056698D01*
X0094949Y0057465D02*
X0095716Y0056698D01*
X0097251Y0056698D01*
X0098018Y0057465D01*
X0098018Y0061302D01*
X0094949Y0061302D02*
X0094949Y0057465D01*
X0099553Y0055930D02*
X0102622Y0055930D01*
X0104157Y0057465D02*
X0104924Y0056698D01*
X0106459Y0056698D01*
X0107226Y0057465D01*
X0107226Y0058232D01*
X0106459Y0059000D01*
X0104924Y0059000D01*
X0104157Y0059767D01*
X0104157Y0060534D01*
X0104924Y0061302D01*
X0106459Y0061302D01*
X0107226Y0060534D01*
X0108761Y0061302D02*
X0108761Y0056698D01*
X0110295Y0058232D01*
X0111830Y0056698D01*
X0111830Y0061302D01*
X0115843Y0060808D02*
X0118145Y0060808D01*
X0118912Y0060041D01*
X0118912Y0059273D01*
X0118145Y0058506D01*
X0115843Y0058506D01*
X0115843Y0056204D02*
X0115843Y0060808D01*
X0118145Y0058506D02*
X0118912Y0057739D01*
X0118912Y0056971D01*
X0118145Y0056204D01*
X0115843Y0056204D01*
X0120447Y0056971D02*
X0121214Y0057739D01*
X0123516Y0057739D01*
X0123516Y0058506D02*
X0123516Y0056204D01*
X0121214Y0056204D01*
X0120447Y0056971D01*
X0121214Y0059273D02*
X0122749Y0059273D01*
X0123516Y0058506D01*
X0125051Y0059273D02*
X0126585Y0059273D01*
X0125818Y0060041D02*
X0125818Y0056971D01*
X0126585Y0056204D01*
X0128887Y0056971D02*
X0128887Y0060041D01*
X0128120Y0059273D02*
X0129655Y0059273D01*
X0131189Y0058506D02*
X0131189Y0056971D01*
X0131957Y0056204D01*
X0133491Y0056204D01*
X0134259Y0057739D02*
X0131189Y0057739D01*
X0131189Y0058506D02*
X0131957Y0059273D01*
X0133491Y0059273D01*
X0134259Y0058506D01*
X0134259Y0057739D01*
X0135793Y0057739D02*
X0137328Y0059273D01*
X0138095Y0059273D01*
X0139630Y0059273D02*
X0139630Y0056971D01*
X0140397Y0056204D01*
X0142699Y0056204D01*
X0142699Y0055437D02*
X0141932Y0054669D01*
X0141165Y0054669D01*
X0142699Y0055437D02*
X0142699Y0059273D01*
X0135793Y0059273D02*
X0135793Y0056204D01*
X0129655Y0056204D02*
X0128887Y0056971D01*
X0088810Y0060534D02*
X0088043Y0061302D01*
X0086508Y0061302D01*
X0238385Y0064055D02*
X0239152Y0063287D01*
X0241454Y0063287D01*
X0241454Y0062520D02*
X0240687Y0061753D01*
X0239920Y0061753D01*
X0241454Y0062520D02*
X0241454Y0066357D01*
X0238385Y0066357D02*
X0238385Y0064055D01*
X0250885Y0051357D02*
X0253954Y0048287D01*
X0250885Y0048287D02*
X0253954Y0051357D01*
X0253381Y0078287D02*
X0253381Y0079822D01*
X0253381Y0079055D02*
X0257985Y0079055D01*
X0257985Y0079822D02*
X0257985Y0078287D01*
X0257985Y0082891D02*
X0253381Y0082891D01*
X0253381Y0081357D02*
X0253381Y0084426D01*
X0254148Y0085961D02*
X0253381Y0086728D01*
X0253381Y0088263D01*
X0254148Y0089030D01*
X0255683Y0089030D02*
X0255683Y0087495D01*
X0255683Y0089030D02*
X0257218Y0089030D01*
X0257985Y0088263D01*
X0257985Y0086728D01*
X0257218Y0085961D01*
X0254148Y0085961D01*
X0257985Y0090565D02*
X0253381Y0093634D01*
X0253381Y0095168D02*
X0254916Y0096703D01*
X0253381Y0098238D01*
X0257985Y0098238D01*
X0257985Y0099772D02*
X0253381Y0099772D01*
X0253381Y0102074D01*
X0254148Y0102842D01*
X0255683Y0102842D01*
X0256450Y0102074D01*
X0256450Y0099772D01*
X0257218Y0104376D02*
X0253381Y0104376D01*
X0253381Y0107446D02*
X0257218Y0107446D01*
X0257985Y0106678D01*
X0257985Y0105144D01*
X0257218Y0104376D01*
X0257985Y0095168D02*
X0253381Y0095168D01*
X0329943Y0064644D02*
X0330710Y0065411D01*
X0332244Y0065411D01*
X0333012Y0064644D01*
X0333012Y0063876D01*
X0329943Y0060807D01*
X0333012Y0060807D01*
X0334546Y0060807D02*
X0337616Y0060807D01*
X0336081Y0060807D02*
X0336081Y0065411D01*
X0334546Y0063876D01*
X0339150Y0063876D02*
X0339918Y0063109D01*
X0342220Y0063109D01*
X0343754Y0063109D02*
X0346824Y0063109D01*
X0348358Y0061574D02*
X0348358Y0064644D01*
X0349126Y0065411D01*
X0350660Y0065411D01*
X0351428Y0064644D01*
X0348358Y0061574D01*
X0349126Y0060807D01*
X0350660Y0060807D01*
X0351428Y0061574D01*
X0351428Y0064644D01*
X0352962Y0064644D02*
X0353729Y0065411D01*
X0355264Y0065411D01*
X0356031Y0064644D01*
X0356031Y0063876D01*
X0352962Y0060807D01*
X0356031Y0060807D01*
X0342220Y0061574D02*
X0342220Y0064644D01*
X0341452Y0065411D01*
X0339918Y0065411D01*
X0339150Y0064644D01*
X0339150Y0063876D01*
X0339150Y0061574D02*
X0339918Y0060807D01*
X0341452Y0060807D01*
X0342220Y0061574D01*
X0347157Y0029663D02*
X0346390Y0028896D01*
X0346390Y0028128D01*
X0347157Y0027361D01*
X0348692Y0027361D01*
X0349459Y0026594D01*
X0349459Y0025826D01*
X0348692Y0025059D01*
X0347157Y0025059D01*
X0346390Y0025826D01*
X0349459Y0028896D02*
X0348692Y0029663D01*
X0347157Y0029663D01*
X0350994Y0028896D02*
X0351761Y0029663D01*
X0353296Y0029663D01*
X0354063Y0028896D01*
X0354063Y0028128D01*
X0353296Y0027361D01*
X0354063Y0026594D01*
X0354063Y0025826D01*
X0353296Y0025059D01*
X0351761Y0025059D01*
X0350994Y0025826D01*
X0352528Y0027361D02*
X0353296Y0027361D01*
X0354063Y0139232D02*
X0350994Y0139232D01*
X0352528Y0139232D02*
X0352528Y0143836D01*
X0350994Y0142302D01*
X0349459Y0143069D02*
X0348692Y0143836D01*
X0347157Y0143836D01*
X0346390Y0143069D01*
X0346390Y0142302D01*
X0347157Y0141534D01*
X0348692Y0141534D01*
X0349459Y0140767D01*
X0349459Y0140000D01*
X0348692Y0139232D01*
X0347157Y0139232D01*
X0346390Y0140000D01*
X0349126Y0174980D02*
X0348358Y0175748D01*
X0351428Y0178817D01*
X0351428Y0175748D01*
X0350660Y0174980D01*
X0349126Y0174980D01*
X0348358Y0175748D02*
X0348358Y0178817D01*
X0349126Y0179584D01*
X0350660Y0179584D01*
X0351428Y0178817D01*
X0352962Y0178817D02*
X0353729Y0179584D01*
X0355264Y0179584D01*
X0356031Y0178817D01*
X0356031Y0178050D01*
X0352962Y0174980D01*
X0356031Y0174980D01*
X0346824Y0177282D02*
X0343754Y0177282D01*
X0342220Y0177282D02*
X0339918Y0177282D01*
X0339150Y0178050D01*
X0339150Y0178817D01*
X0339918Y0179584D01*
X0341452Y0179584D01*
X0342220Y0178817D01*
X0342220Y0175748D01*
X0341452Y0174980D01*
X0339918Y0174980D01*
X0339150Y0175748D01*
X0337616Y0174980D02*
X0334546Y0174980D01*
X0333012Y0174980D02*
X0329943Y0174980D01*
X0333012Y0178050D01*
X0333012Y0178817D01*
X0332244Y0179584D01*
X0330710Y0179584D01*
X0329943Y0178817D01*
X0334546Y0178050D02*
X0336081Y0179584D01*
X0336081Y0174980D01*
D13*
X0354474Y0165351D02*
X0354474Y0164617D01*
X0354841Y0164250D01*
X0354474Y0165351D02*
X0354841Y0165718D01*
X0355208Y0165718D01*
X0356676Y0164250D01*
X0356676Y0165718D01*
X0356676Y0155718D02*
X0356676Y0154250D01*
X0356676Y0154984D02*
X0354474Y0154984D01*
X0355208Y0154250D01*
X0336498Y0154170D02*
X0336131Y0154537D01*
X0334664Y0154537D01*
X0334297Y0154170D01*
X0334297Y0153436D01*
X0334664Y0153069D01*
X0336131Y0153069D01*
X0336498Y0153436D01*
X0336498Y0154170D01*
X0336498Y0155279D02*
X0334297Y0155279D01*
X0336498Y0156747D01*
X0334297Y0156747D01*
X0303937Y0137670D02*
X0276937Y0137670D01*
X0276937Y0065670D01*
X0303937Y0065670D01*
X0303937Y0093670D01*
X0303937Y0109670D02*
X0303937Y0113670D01*
X0303937Y0119670D02*
X0303937Y0137670D01*
X0244622Y0132087D02*
X0244622Y0204087D01*
X0217622Y0204087D01*
X0217622Y0176087D01*
X0217622Y0160087D02*
X0217622Y0156087D01*
X0217622Y0150087D02*
X0217622Y0132087D01*
X0244622Y0132087D01*
X0354474Y0051178D02*
X0354474Y0050444D01*
X0354841Y0050077D01*
X0354474Y0051178D02*
X0354841Y0051545D01*
X0355208Y0051545D01*
X0356676Y0050077D01*
X0356676Y0051545D01*
X0356676Y0041545D02*
X0356676Y0040077D01*
X0356676Y0040811D02*
X0354474Y0040811D01*
X0355208Y0040077D01*
X0336498Y0039997D02*
X0336131Y0040364D01*
X0334664Y0040364D01*
X0334297Y0039997D01*
X0334297Y0039263D01*
X0334664Y0038896D01*
X0336131Y0038896D01*
X0336498Y0039263D01*
X0336498Y0039997D01*
X0336498Y0041106D02*
X0334297Y0041106D01*
X0336498Y0042574D01*
X0334297Y0042574D01*
D14*
X0310375Y0071863D02*
X0311426Y0072913D01*
X0311426Y0075015D01*
X0310375Y0076066D01*
X0309324Y0076066D01*
X0308273Y0075015D01*
X0308273Y0072913D01*
X0307222Y0071863D01*
X0306171Y0071863D01*
X0305120Y0072913D01*
X0305120Y0075015D01*
X0306171Y0076066D01*
X0305120Y0078308D02*
X0309324Y0078308D01*
X0311426Y0080410D01*
X0309324Y0082512D01*
X0305120Y0082512D01*
X0307222Y0084754D02*
X0305120Y0086855D01*
X0311426Y0086855D01*
X0311426Y0084754D02*
X0311426Y0088957D01*
X0257772Y0157695D02*
X0257772Y0159797D01*
X0257772Y0158746D02*
X0251467Y0158746D01*
X0251467Y0157695D02*
X0251467Y0159797D01*
X0252518Y0161992D02*
X0256721Y0161992D01*
X0257772Y0163043D01*
X0257772Y0165145D01*
X0256721Y0166195D01*
X0252518Y0166195D01*
X0251467Y0165145D01*
X0251467Y0163043D01*
X0252518Y0161992D01*
X0252518Y0189101D02*
X0253568Y0189101D01*
X0254619Y0190152D01*
X0254619Y0192254D01*
X0255670Y0193304D01*
X0256721Y0193304D01*
X0257772Y0192254D01*
X0257772Y0190152D01*
X0256721Y0189101D01*
X0252518Y0189101D02*
X0251467Y0190152D01*
X0251467Y0192254D01*
X0252518Y0193304D01*
X0251467Y0195546D02*
X0255670Y0195546D01*
X0257772Y0197648D01*
X0255670Y0199750D01*
X0251467Y0199750D01*
X0252518Y0201992D02*
X0251467Y0203043D01*
X0251467Y0205145D01*
X0252518Y0206195D01*
X0253568Y0206195D01*
X0257772Y0201992D01*
X0257772Y0206195D01*
D15*
X0065654Y0109119D02*
X0065654Y0061087D01*
X0017622Y0061087D01*
X0017622Y0106757D01*
X0019984Y0109119D01*
X0065654Y0109119D01*
X0019984Y0109119D02*
X0017622Y0109119D01*
X0017622Y0106757D01*
D16*
X0062372Y0034087D03*
X0173404Y0035087D03*
D17*
X0332858Y0035450D02*
X0332858Y0033265D01*
X0358252Y0033265D01*
X0358252Y0038186D01*
X0353429Y0033363D01*
X0358252Y0035450D02*
X0358252Y0038186D01*
X0353429Y0037812D02*
X0337681Y0037812D01*
X0337681Y0043717D01*
X0353429Y0043717D01*
X0353429Y0037812D01*
X0358252Y0045450D02*
X0358252Y0045981D01*
X0353429Y0047812D02*
X0337681Y0047812D01*
X0337681Y0053717D01*
X0353429Y0053717D01*
X0353429Y0047812D01*
X0358252Y0055981D02*
X0358252Y0058166D01*
X0332858Y0058166D01*
X0332858Y0055981D01*
X0332858Y0045981D02*
X0332858Y0045450D01*
X0332858Y0147438D02*
X0358252Y0147438D01*
X0358252Y0152359D01*
X0353429Y0147536D01*
X0353429Y0151985D02*
X0337681Y0151985D01*
X0337681Y0157891D01*
X0353429Y0157891D01*
X0353429Y0151985D01*
X0358252Y0152359D02*
X0358252Y0149623D01*
X0358252Y0159623D02*
X0358252Y0160154D01*
X0353429Y0161985D02*
X0337681Y0161985D01*
X0337681Y0167891D01*
X0353429Y0167891D01*
X0353429Y0161985D01*
X0358252Y0170154D02*
X0358252Y0172339D01*
X0332858Y0172339D01*
X0332858Y0170154D01*
X0332858Y0160154D02*
X0332858Y0159623D01*
X0332858Y0149623D02*
X0332858Y0147438D01*
D18*
X0350476Y0154938D03*
X0350476Y0164938D03*
X0350476Y0050765D03*
X0350476Y0040765D03*
M02*
